<?xml version="1.0" standalone="no"?>
<!DOCTYPE svg PUBLIC "-//W3C//DTD SVG 1.1//EN" "http://www.w3.org/Graphics/SVG/1.1/DTD/svg11.dtd" >
<svg>
<metadata>
Created by FontForge 20120731 at Sun Jun 30 11:37:43 2019
 By www
Copyright (c) 1991 Digital Typeface Corp.
</metadata>
<defs>
<font id="Algerian" horiz-adv-x="2048" >
  <font-face 
    font-family="Algerian"
    font-weight="400"
    font-stretch="normal"
    units-per-em="4096"
    panose-1="4 2 114 0 0 0 0 0 0 0"
    ascent="3276"
    descent="-820"
    x-height="2732"
    cap-height="2732"
    bbox="-774 -918 4563 3637"
    underline-thickness="57"
    underline-position="-91"
    unicode-range="U+000D-FB02"
  />
<missing-glyph horiz-adv-x="3072" 
d="M512 0v2560h2048v-2560h-2048zM2496 64v2432h-1920v-2432h1920z" />
    <glyph glyph-name=".notdef" unicode="&#xf8ff;" horiz-adv-x="3072" 
d="M512 0v2560h2048v-2560h-2048zM2496 64v2432h-1920v-2432h1920z" />
    <glyph glyph-name=".notdef" unicode="&#xe01e;" horiz-adv-x="3072" 
d="M512 0v2560h2048v-2560h-2048zM2496 64v2432h-1920v-2432h1920z" />
    <glyph glyph-name=".notdef" unicode="&#x25ca;" horiz-adv-x="3072" 
d="M512 0v2560h2048v-2560h-2048zM2496 64v2432h-1920v-2432h1920z" />
    <glyph glyph-name=".notdef" unicode="&#x394;" horiz-adv-x="3072" 
d="M512 0v2560h2048v-2560h-2048zM2496 64v2432h-1920v-2432h1920z" />
    <glyph glyph-name=".notdef" unicode="&#x2248;" horiz-adv-x="3072" 
d="M512 0v2560h2048v-2560h-2048zM2496 64v2432h-1920v-2432h1920z" />
    <glyph glyph-name=".notdef" unicode="&#x221a;" horiz-adv-x="3072" 
d="M512 0v2560h2048v-2560h-2048zM2496 64v2432h-1920v-2432h1920z" />
    <glyph glyph-name=".notdef" unicode="&#x3a9;" horiz-adv-x="3072" 
d="M512 0v2560h2048v-2560h-2048zM2496 64v2432h-1920v-2432h1920z" />
    <glyph glyph-name=".notdef" unicode="&#x222b;" horiz-adv-x="3072" 
d="M512 0v2560h2048v-2560h-2048zM2496 64v2432h-1920v-2432h1920z" />
    <glyph glyph-name=".notdef" unicode="&#x3c0;" horiz-adv-x="3072" 
d="M512 0v2560h2048v-2560h-2048zM2496 64v2432h-1920v-2432h1920z" />
    <glyph glyph-name=".notdef" unicode="&#x220f;" horiz-adv-x="3072" 
d="M512 0v2560h2048v-2560h-2048zM2496 64v2432h-1920v-2432h1920z" />
    <glyph glyph-name=".notdef" unicode="&#x2211;" horiz-adv-x="3072" 
d="M512 0v2560h2048v-2560h-2048zM2496 64v2432h-1920v-2432h1920z" />
    <glyph glyph-name=".notdef" unicode="&#x2202;" horiz-adv-x="3072" 
d="M512 0v2560h2048v-2560h-2048zM2496 64v2432h-1920v-2432h1920z" />
    <glyph glyph-name=".notdef" unicode="&#x2265;" horiz-adv-x="3072" 
d="M512 0v2560h2048v-2560h-2048zM2496 64v2432h-1920v-2432h1920z" />
    <glyph glyph-name=".notdef" unicode="&#x2264;" horiz-adv-x="3072" 
d="M512 0v2560h2048v-2560h-2048zM2496 64v2432h-1920v-2432h1920z" />
    <glyph glyph-name=".notdef" unicode="&#x221e;" horiz-adv-x="3072" 
d="M512 0v2560h2048v-2560h-2048zM2496 64v2432h-1920v-2432h1920z" />
    <glyph glyph-name=".notdef" unicode="&#x2260;" horiz-adv-x="3072" 
d="M512 0v2560h2048v-2560h-2048zM2496 64v2432h-1920v-2432h1920z" />
    <glyph glyph-name=".notdef" horiz-adv-x="3072" 
d="M512 0v2560h2048v-2560h-2048zM2496 64v2432h-1920v-2432h1920z" />
    <glyph glyph-name=".notdef" horiz-adv-x="3072" 
d="M512 0v2560h2048v-2560h-2048zM2496 64v2432h-1920v-2432h1920z" />
    <glyph glyph-name=".notdef" horiz-adv-x="3072" 
d="M512 0v2560h2048v-2560h-2048zM2496 64v2432h-1920v-2432h1920z" />
    <glyph glyph-name=".notdef" horiz-adv-x="3072" 
d="M512 0v2560h2048v-2560h-2048zM2496 64v2432h-1920v-2432h1920z" />
    <glyph glyph-name=".notdef" horiz-adv-x="3072" 
d="M512 0v2560h2048v-2560h-2048zM2496 64v2432h-1920v-2432h1920z" />
    <glyph glyph-name=".notdef" horiz-adv-x="3072" 
d="M512 0v2560h2048v-2560h-2048zM2496 64v2432h-1920v-2432h1920z" />
    <glyph glyph-name=".notdef" horiz-adv-x="3072" 
d="M512 0v2560h2048v-2560h-2048zM2496 64v2432h-1920v-2432h1920z" />
    <glyph glyph-name=".notdef" horiz-adv-x="3072" 
d="M512 0v2560h2048v-2560h-2048zM2496 64v2432h-1920v-2432h1920z" />
    <glyph glyph-name=".notdef" horiz-adv-x="3072" 
d="M512 0v2560h2048v-2560h-2048zM2496 64v2432h-1920v-2432h1920z" />
    <glyph glyph-name=".notdef" horiz-adv-x="3072" 
d="M512 0v2560h2048v-2560h-2048zM2496 64v2432h-1920v-2432h1920z" />
    <glyph glyph-name=".notdef" horiz-adv-x="3072" 
d="M512 0v2560h2048v-2560h-2048zM2496 64v2432h-1920v-2432h1920z" />
    <glyph glyph-name=".notdef" horiz-adv-x="3072" 
d="M512 0v2560h2048v-2560h-2048zM2496 64v2432h-1920v-2432h1920z" />
    <glyph glyph-name=".notdef" horiz-adv-x="3072" 
d="M512 0v2560h2048v-2560h-2048zM2496 64v2432h-1920v-2432h1920z" />
    <glyph glyph-name=".notdef" horiz-adv-x="3072" 
d="M512 0v2560h2048v-2560h-2048zM2496 64v2432h-1920v-2432h1920z" />
    <glyph glyph-name=".notdef" horiz-adv-x="3072" 
d="M512 0v2560h2048v-2560h-2048zM2496 64v2432h-1920v-2432h1920z" />
    <glyph glyph-name=".notdef" horiz-adv-x="3072" 
d="M512 0v2560h2048v-2560h-2048zM2496 64v2432h-1920v-2432h1920z" />
    <glyph glyph-name=".notdef" horiz-adv-x="3072" 
d="M512 0v2560h2048v-2560h-2048zM2496 64v2432h-1920v-2432h1920z" />
    <glyph glyph-name=".notdef" horiz-adv-x="3072" 
d="M512 0v2560h2048v-2560h-2048zM2496 64v2432h-1920v-2432h1920z" />
    <glyph glyph-name=".notdef" horiz-adv-x="3072" 
d="M512 0v2560h2048v-2560h-2048zM2496 64v2432h-1920v-2432h1920z" />
    <glyph glyph-name=".notdef" horiz-adv-x="3072" 
d="M512 0v2560h2048v-2560h-2048zM2496 64v2432h-1920v-2432h1920z" />
    <glyph glyph-name=".notdef" unicode="&#xa;" horiz-adv-x="3072" 
d="M512 0v2560h2048v-2560h-2048zM2496 64v2432h-1920v-2432h1920z" />
    <glyph glyph-name=".notdef" horiz-adv-x="3072" 
d="M512 0v2560h2048v-2560h-2048zM2496 64v2432h-1920v-2432h1920z" />
    <glyph glyph-name=".notdef" horiz-adv-x="3072" 
d="M512 0v2560h2048v-2560h-2048zM2496 64v2432h-1920v-2432h1920z" />
    <glyph glyph-name=".notdef" horiz-adv-x="3072" 
d="M512 0v2560h2048v-2560h-2048zM2496 64v2432h-1920v-2432h1920z" />
    <glyph glyph-name=".notdef" horiz-adv-x="3072" 
d="M512 0v2560h2048v-2560h-2048zM2496 64v2432h-1920v-2432h1920z" />
    <glyph glyph-name=".notdef" horiz-adv-x="3072" 
d="M512 0v2560h2048v-2560h-2048zM2496 64v2432h-1920v-2432h1920z" />
    <glyph glyph-name=".notdef" horiz-adv-x="3072" 
d="M512 0v2560h2048v-2560h-2048zM2496 64v2432h-1920v-2432h1920z" />
    <glyph glyph-name=".notdef" horiz-adv-x="3072" 
d="M512 0v2560h2048v-2560h-2048zM2496 64v2432h-1920v-2432h1920z" />
    <glyph glyph-name=".null" horiz-adv-x="0" 
 />
    <glyph glyph-name=".null" horiz-adv-x="0" 
 />
    <glyph glyph-name=".null" horiz-adv-x="0" 
 />
    <glyph glyph-name="nonmarkingreturn" unicode="&#xd;" horiz-adv-x="0" 
 />
    <glyph glyph-name="nonmarkingreturn" unicode="&#x9;" horiz-adv-x="0" 
 />
    <glyph glyph-name="space" unicode=" " horiz-adv-x="1139" 
 />
    <glyph glyph-name="exclam" unicode="!" horiz-adv-x="1323" 
d="M557 2675q53 -219 137.5 -329.5t263.5 -195.5l-20 -36q-133 -206 -203 -377.5t-108 -393.5q-38 -212 -49 -475v-32h-66v41q0 354 -127 753q-111 349 -279 549q195 87 284.5 185t166.5 311zM1212 2179l-24 -29q-134 -176 -192.5 -270t-106.5 -221q-45 -114 -94 -307
q-60 -264 -74 -545l-4 -21h-58v17q0 231 58 484.5t161.5 482.5t235.5 393q-349 197 -434 430l65 -29q81 -122 183.5 -206.5t283.5 -178.5zM561 651q110 0 186 -74.5t76 -183.5q0 -108 -77 -185t-185 -77q-106 0 -182 77.5t-76 184.5q0 108 75 183t183 75zM889 569
q68 -65 89 -115t21 -143q0 -135 -101 -237.5t-234 -102.5q-99 0 -151.5 24t-111.5 95l13 16q126 -77 233 -77q129 0 216 89t87 218q0 99 -78 217z" />
    <glyph glyph-name="quotedbl" unicode="&#x22;" horiz-adv-x="1384" 
d="M487 2732l-135 -807h-155l-62 807h352zM324 1774l-70 41h192l156 835l49 -24l-155 -852h-172zM1085 2732l-135 -807h-159l-58 807h352zM922 1774l-70 41h192l156 835l45 -24l-155 -852h-168z" />
    <glyph glyph-name="numbersign" unicode="#" horiz-adv-x="2404" 
d="M1294 938h-270l-131 -938h-262l-37 45h250l131 950h328l16 115h-447l-131 -946h-262l111 774h-393l-21 57h422l16 115h-491v164h516l33 254h-393l-21 53h422l16 115h-475v172h500l119 864h262l-119 -864h115l110 778l54 -16l-111 -762h270l123 864h254l-119 -864h115
l111 778l53 -16l-107 -762h275v-172h-471l-58 -422h115l45 307h479l-4 250l41 -45l4 -258h-475l-33 -254h267v-164h-463l-135 -946h-254zM1376 1528h-270l-37 -254h270zM1401 1696h-443l-61 -422h119l41 307h327zM1589 0h-258l-41 45h250l131 950h483l-4 250l37 -45l4 -262
h-471z" />
    <glyph glyph-name="dollar" unicode="$" horiz-adv-x="2404" 
d="M2064 2753q-91 -150 -180 -332q-107 -214 -147 -344l-13 4q-80 445 -471 549v-877l119 -33v783q98 -43 147 -88t107 -146h-16l-13 12q-44 45 -69 62q-39 37 -82 61q-1 1 -6.5 3.5t-14.5 9.5v-713l29 -8l188 -58q117 -32 234 -114q94 -68 160 -159t100.5 -200t34.5 -223
q0 -213 -113.5 -393.5t-310 -284.5t-432.5 -104h-62v-369h-163v217l-271 58l-188 45q-176 32 -258 32q-109 0 -209 -45l-25 62q109 45 213 45q139 0 479 -82q128 -31 140 -33l119 -24v114q-147 15 -488 107q-151 37 -254 37q-125 0 -262 -78l-16 33q225 351 348 704h33
q38 -281 204 -450t435 -201v856l-287 74q-201 49 -284.5 108t-125.5 174l74 -37q35 -68 110 -107.5t246 -80.5l267 -66v107l-37 8q-218 46 -324.5 80t-187.5 84q-130 80 -208.5 233.5t-78.5 323.5q0 225 99.5 387.5t287 249.5t449.5 92v270h163v-282q52 -7 119 -25v238
l53 -37v-201q31 -6 33 -8q67 -13 217 -53q119 -29 176 -29q61 0 102 16t95 58zM1421 324q418 93 418 454q0 221 -209 385q-81 64 -176 99q-114 31 -180 49l-25 8v-1004l123 9v847q168 -36 261 -99t132 -167h-16q-117 141 -328 197v-778zM1090 1790v704q-137 -9 -220.5 -92.5
t-83.5 -210.5q0 -183 213 -315v-12q-142 62 -208 145t-66 203q0 135 105.5 234.5t259.5 105.5v106q-131 -1 -244 -57.5t-178.5 -152t-65.5 -207.5q0 -169 109.5 -275.5t353.5 -171.5zM2195 2671l-20 -33q-117 -191 -217 -414l-90 -192l-45 16l102 225q4 10 131 262
q49 93 78 140l8 16zM2064 1475q129 -91 202 -235t73 -298q0 -230 -106 -431.5t-291 -332.5t-414 -162l-86 -12l-21 -4v-360h-217l-45 53h213v360q247 6 456 128t331 324.5t122 436.5q0 133 -60.5 278t-156.5 242v13zM643 905q38 -197 120 -304t277 -216v-12
q-179 44 -300 184t-150 332z" />
    <glyph glyph-name="percent" unicode="%" horiz-adv-x="2564" 
d="M2036 2728l-1430 -2581h-176l1425 2581h181zM2114 2683l32 -57l-1441 -2630h-193l-33 57h197zM750 2503q-54 37 -99 37q-73 0 -113 -36t-57.5 -122.5t-17.5 -243.5q0 -195 31.5 -311.5t103.5 -196.5h-25q-92 71 -125.5 180.5t-33.5 335.5q0 254 45.5 346.5t167.5 92.5
q85 0 135 -82h-12zM1114 2118q0 -328 -131.5 -502t-380.5 -174q-164 0 -284.5 83.5t-184 241.5t-63.5 375q0 306 139.5 489t376.5 183q149 0 270 -90t189.5 -249.5t68.5 -356.5zM864 2114q0 536 -274 536q-142 0 -204 -120.5t-62 -403.5q0 -259 73 -402t205 -143
q126 0 194 139.5t68 393.5zM950 2716h29q141 -88 220 -257.5t79 -377.5q0 -207 -68 -372.5t-188 -259t-268 -93.5q-117 0 -185 45h29q64 -17 107 -17q146 0 266 89.5t189 249t69 354.5q0 199 -68 353t-211 286zM1982 1069q-51 37 -98 37q-170 0 -176 -217l-8 -184v-50
q0 -321 131 -458h-25q-92 77 -125.5 185t-33.5 331q0 176 19 268t65 131t129 39q85 0 135 -82h-13zM2347 684q0 -328 -132 -502t-380 -174t-390 187t-142 514q0 305 139.5 488t376.5 183q149 0 270 -90t189.5 -249.5t68.5 -356.5zM2097 680q0 537 -274 537
q-144 0 -205.5 -121.5t-61.5 -403.5q0 -259 73 -402t206 -143q124 0 193 140.5t69 392.5zM2183 1282h29q142 -92 220.5 -257.5t78.5 -373.5q0 -210 -67.5 -375t-187.5 -259.5t-269 -94.5q-78 0 -107.5 7.5t-77.5 41.5h29q56 -20 111 -20q145 0 265 90t187.5 248t67.5 354
q0 198 -67.5 350t-211.5 289z" />
    <glyph glyph-name="ampersand" unicode="&#x26;" horiz-adv-x="3285" 
d="M1122 1855q-53 207 -53 369q0 169 61 305t169 210.5t245 74.5q140 0 256 -60t182 -164t66 -231q0 -385 -545 -557q213 -549 447 -880q28 68 49 151q-84 132 -184 328q-96 176 -160 328l28 12q480 190 480 581q0 136 -99 299l-16 25q164 -145 164 -352q0 -379 -483 -602
q138 -336 278 -549q8 82 8 188q0 147 -16 246l16 -16q259 -196 508 -291q-242 -251 -430 -578q228 -327 455 -327q87 0 184 81q20 21 49 21q70 0 70 -57q0 -64 -94 -140q-158 -110 -299 -110q-205 0 -439 151q-138 -150 -328 -230.5t-401 -80.5q-189 0 -383.5 74t-328.5 196
l16 17q167 -120 334.5 -177t361.5 -57q412 0 684 291q-25 17 -43 31t-35 26q-285 -221 -630 -221q-286 0 -512 101.5t-353 283t-127 410.5q0 224 82 383.5t261 277t473 207.5zM1229 1532q-189 -103 -275 -246t-86 -352q0 -190 108.5 -334t289.5 -199v-28q-200 32 -325.5 188
t-125.5 373q0 149 40.5 264.5t125 207.5t227.5 179l-12 25q-20 53 -25 69q-143 -57 -255 -163.5t-172 -243.5t-60 -285q0 -190 71 -337t200 -228.5t294 -81.5q279 0 500 233q-68 95 -166.5 264t-187.5 343.5t-166 351.5zM1597 2023q218 109 218 344q0 126 -74 210.5
t-185 84.5q-105 0 -165 -71t-60 -191q0 -214 115 -442l102 41q-98 227 -98 368q0 89 44.5 145t115.5 56q60 0 135 -69l-12 -21l-17 12q-59 33 -94 33q-131 0 -131 -168q0 -135 106 -332zM2630 1126q-106 -108 -201.5 -233.5t-126.5 -192.5l16 -20q174 -197 312 -197
q31 0 73 17v-21q-52 -28 -114 -28q-82 0 -171 65.5t-161 183.5q150 271 332 459zM2986 307q-42 -131 -164 -217t-262 -86q-77 0 -160 30.5t-143 80.5v16q129 -78 270 -78q254 0 402 258l8 13z" />
    <glyph glyph-name="quoteright" unicode="&#x2019;" horiz-adv-x="901" 
d="M618 2748q58 -137 58 -290q0 -232 -153.5 -407.5t-436.5 -268.5l-16 28l20 21q113 92 159 185.5t46 228.5q0 171 -107 295q11 2 22.5 7t14.5 5q237 90 393 196zM815 2687q33 -112 33 -221q0 -136 -45 -266t-132.5 -238t-199.5 -176q-125 -81 -283 -139l-28 53l37 12
q317 129 434 291q74 96 119 218.5t45 227.5q0 101 -37 267z" />
    <glyph glyph-name="parenleft" unicode="(" horiz-adv-x="1823" 
d="M1475 3019l49 -49v-234q-45 4 -90 4q-133 0 -226.5 -55t-171.5 -178q-44 -70 -72 -150t-45 -183t-25.5 -248.5t-8.5 -348.5q0 -689 61 -1053q49 -324 160 -442q71 -71 266 -102v-177q-438 14 -737 320q-133 139 -215 319.5t-120 426.5t-38 581q0 392 38 611t138 421
q87 179 221 307q96 96 192 152.5t219.5 90.5t301.5 56v-184q-332 -31 -500 -262q-82 -114 -118.5 -259t-48.5 -405q-9 -250 -9 -364q0 -614 74 -1012q53 -274 242 -463q-95 183 -123 381q-58 388 -58 1127q0 415 63.5 652t211.5 367q147 123 324 123h45v230zM1524 -156v-225
q-289 37 -557 168q-101 50 -152 89t-123 120v8q119 -114 282.5 -192t340.5 -107l160 -24v208z" />
    <glyph glyph-name="parenright" unicode=")" horiz-adv-x="1823" 
d="M303 3088q161 -9 328.5 -76.5t298.5 -177.5q143 -118 243.5 -305.5t151.5 -435t51 -545.5q0 -1081 -385 -1466q-279 -279 -688 -324v189q122 45 173 72t110 79q199 175 282 631q62 334 62 1028q0 349 -35 538.5t-125 321.5q-156 236 -467 291v180zM971 2929
q140 -87 210.5 -157t149.5 -208q130 -216 182 -452t52 -613q0 -1035 -406 -1495q-133 -155 -306 -247t-419 -138l-33 37q257 50 421.5 135.5t299.5 241.5q389 444 389 1442q0 297 -28 504.5t-92 369.5t-176 302.5t-281 277.5h37z" />
    <glyph glyph-name="asterisk" unicode="*" horiz-adv-x="1434" 
d="M725 2068q-65 -80 -91.5 -165.5t-35.5 -243.5l-4 -33l-41 53q9 154 40.5 243t106.5 179q-8 15 -14.5 25.5t-21.5 36.5q-175 -238 -181 -459l-295 213q153 37 320 221q-49 2 -87 5t-56 3q-37 0 -148 -12l-61 45q45 8 98 8q117 0 262 -37q17 19 27.5 33t29.5 37
q-163 53 -307 53q-95 0 -184 -24l111 344q111 -171 409 -271v29q0 263 -127 447h365q-131 -162 -131 -467q49 14 102 36q40 203 127 332l12 -73q-68 -110 -123 -250q195 93 295 217l111 -344q-85 32 -184 32q-134 0 -304 -53q166 -231 381 -311l-295 -213q5 16 5 37
q0 135 -111 327zM975 2130q155 -151 352 -205l-348 -278l-61 4l327 258q-200 65 -385 250q126 53 266 53q97 0 185 -25l-99 332l58 -33l98 -360q-107 33 -201 33q-98 0 -192 -29z" />
    <glyph glyph-name="plus" unicode="+" horiz-adv-x="2404" 
d="M995 2298h250v-709h111v598l53 -37v-561h528v-250h-692v-671h-250v508h-585l-37 53h622v110h-688v250h688v709zM1409 1176v-713h-258l-45 45h250v721h696v250l45 -45v-258h-688z" />
    <glyph glyph-name="comma" unicode="," horiz-adv-x="1073" 
d="M618 610q58 -137 58 -291q0 -231 -154 -406t-436 -265l-16 24l20 21q74 60 118.5 120.5t65.5 132t21 160.5q0 171 -107 295q38 11 38 13h-1q222 82 393 196zM815 549q33 -117 33 -221q0 -136 -45 -266t-132.5 -238t-199.5 -176q-125 -81 -283 -140l-28 54l37 16
q307 120 434 287q164 213 164 450q0 97 -37 263z" />
    <glyph glyph-name="hyphen" unicode="-" horiz-adv-x="1286" 
d="M999 1544l86 -237h-1003l-82 237h999zM1286 1163h-1073l-41 54h1040l-94 274l66 -45z" />
    <glyph glyph-name="period" unicode="." horiz-adv-x="1094" 
d="M459 651q108 0 185 -75t77 -183q0 -106 -78 -184t-184 -78t-182 77.5t-76 184.5q0 108 75 183t183 75zM786 569q66 -62 88.5 -113.5t22.5 -144.5q0 -135 -100.5 -237.5t-235.5 -102.5q-98 0 -150.5 24t-111.5 95l12 16q127 -77 234 -77q129 0 216 89t87 218
q0 106 -78 217z" />
    <glyph glyph-name="slash" unicode="/" horiz-adv-x="1970" 
d="M2060 3072l-1966 -3269h-188l1966 3269h188zM-57 -315h213l1998 3330l37 -41l-2007 -3343h-221z" />
    <glyph glyph-name="zero" unicode="0" horiz-adv-x="2404" 
d="M1540 2236q-67 90 -171 143.5t-210 53.5q-271 0 -368 -233q-111 -269 -111 -762q0 -339 41.5 -562.5t132.5 -353.5t236 -182v-21q-109 20 -215.5 117.5t-153.5 222.5q-94 257 -94 775q0 533 110 786q56 126 168 198t254 72q121 0 232 -62.5t182 -170.5zM2126 1430
q0 -410 -117 -704t-339 -448.5t-531 -154.5q-299 0 -534.5 165t-367 461.5t-131.5 671.5q0 310 69 561.5t200 427t317.5 267.5t417.5 92q292 0 524.5 -171t362 -478.5t129.5 -689.5zM1729 1430q0 308 -26.5 502.5t-88.5 336.5q-44 98 -119.5 169t-176.5 109t-216 38
q-166 0 -289.5 -74t-181.5 -209q-131 -300 -131 -868q0 -519 135 -824q64 -138 206 -230.5t285 -92.5q177 0 289.5 77.5t186.5 249.5q127 309 127 816zM1655 2691q142 -63 262 -188q195 -198 286 -459.5t91 -626.5q0 -337 -75.5 -610.5t-218 -461.5t-348.5 -287t-464 -99
q-202 0 -354 61t-326 213l16 17q166 -135 313.5 -188.5t354.5 -53.5q224 0 428 99.5t338 273.5q99 132 160 282.5t89.5 335.5t28.5 422q0 906 -581 1250v20z" />
    <glyph glyph-name="one" unicode="1" horiz-adv-x="2458" 
d="M1376 2691v-2318l242 -209h-860l254 209v1757q-120 -57 -238 -57q-187 0 -282 147h16q120 -98 266 -98q131 0 238 69v123q-144 -98 -320 -98q-94 0 -163.5 45.5t-69.5 105.5q0 50 27 82.5t67 32.5q37 0 59.5 -21.5t22.5 -56.5q0 -20 -4 -28v-17q0 -28 53 -28
q131 0 259 102t196 258h237zM1475 2654l53 -24v-2257l323 -373h-1024l-45 53h951l-258 303v2298z" />
    <glyph glyph-name="two" unicode="2" horiz-adv-x="2458" 
d="M2093 725v-561h-1860q32 145 63.5 221.5t109.5 208.5q112 189 244 317t378 281q196 121 249.5 159.5t123.5 102.5q266 248 266 631q0 146 -65.5 260.5t-183.5 179t-267 64.5q-150 0 -266.5 -53.5t-181 -150t-64.5 -222.5q0 -149 89 -248.5t222 -99.5q78 0 130.5 26
t115.5 92l33 -16q-30 -162 -146 -253t-297 -91q-213 0 -360 146t-147 358q0 196 110 350t308.5 240t449.5 86q242 0 450.5 -103t331.5 -278.5t123 -380.5q0 -161 -68.5 -299.5t-213 -266.5t-369.5 -254l-307 -167q-335 -188 -533 -537q-8 -8 -12 -16h127q162 292 573 512
l275 151q220 118 360.5 245.5t207.5 271.5t67 315q0 387 -336 639l8 16q180 -91 282.5 -266t102.5 -389q0 -177 -70 -331t-213 -287t-372 -259l-275 -151q-434 -229 -536 -467h626q264 0 395 21t191 77t90 176h41zM2249 651v-651h-1823l-37 53h1802v598h58zM1642 2044
q-117 381 -471 381q-155 0 -255.5 -90t-100.5 -230q0 -69 51 -135.5t133 -105.5v-25q-100 20 -166.5 97.5t-66.5 172.5q0 166 111.5 269.5t289.5 103.5q136 0 243.5 -56.5t169 -157.5t62.5 -224zM1352 1827q-68 -219 -192 -318.5t-324 -99.5q-264 0 -402 225h17l20 -20
q115 -96 185.5 -128t170.5 -32q192 0 315 101.5t161 287.5z" />
    <glyph glyph-name="three" unicode="3" horiz-adv-x="2458" 
d="M647 1040q-29 -114 -29 -233q0 -255 128 -396t360 -141q273 0 417 152.5t144 441.5q0 189 -72.5 342t-200 239.5t-288.5 86.5q-64 0 -201 -29l-20 -4l78 217h20q53 -4 123 -4q140 0 248.5 56.5t169.5 160.5t61 234q0 128 -68 238t-184 173.5t-256 63.5
q-196 0 -323 -110.5t-127 -282.5q0 -109 53.5 -177.5t138.5 -68.5q59 0 115 49l29 -16q-33 -83 -113.5 -130t-181.5 -47q-154 0 -261.5 110t-107.5 267q0 154 111 279.5t305.5 197.5t431.5 72q231 0 417.5 -76.5t290 -214t103.5 -311.5q0 -193 -120.5 -334.5t-326.5 -193.5
q-45 -16 -45 -29q0 -19 41 -37q578 -181 578 -745q0 -224 -116 -387.5t-335 -250.5t-520 -87q-263 0 -449.5 77.5t-300.5 233.5t-159 397l20 4q242 81 422 213zM823 995v-24q-24 -187 -24 -213q0 -142 65 -256t180 -174v-21q-137 38 -218 161.5t-81 293.5q0 81 29 217v16h49
zM1540 1204q-162 152 -401 152q-123 0 -189 -29l-16 53q109 29 205 29q299 0 413 -205h-12zM1982 1393q153 -152 212 -277t59 -305q0 -192 -74.5 -350.5t-215.5 -273.5t-334.5 -175.5t-424.5 -60.5q-496 0 -758 274v13l25 -17q170 -118 340.5 -169.5t384.5 -51.5
q288 0 516 103t355.5 289t127.5 419q0 155 -42.5 262.5t-170.5 278.5l-16 24zM1823 2626q119 -30 213 -182.5t94 -317.5q0 -205 -133 -371t-330 -207l-41 37q204 58 327.5 203t123.5 330q0 148 -51 253t-187 238q-8 8 -16 17zM1532 2208l-21 24q-162 230 -405 230
q-132 0 -213.5 -73.5t-81.5 -193.5q0 -66 74 -122l3 -3t5 -2l-25 -32q-114 46 -114 164q0 139 98 225t254 86q164 0 280.5 -79.5t161.5 -223.5h-16zM1110 1937q-134 -217 -365 -217q-166 0 -315 160l-12 8v13l16 -13l70 -49q84 -70 237 -70q93 0 186 55.5t138 141.5z" />
    <glyph glyph-name="four" unicode="4" horiz-adv-x="2458" 
d="M1327 2691q-21 -141 -122.5 -389t-246.5 -508q-221 -396 -536 -762l-12 -12v-49h106l8 12q151 171 247.5 292.5t165.5 229t161 277.5q209 379 352 839l4 17l41 -29l-8 -24q-129 -430 -352 -844q-150 -269 -308 -484q-124 -161 -249 -286h708v876q8 4 12 8q134 83 199 144
t129 160h37v-1188h98v1110l54 -13v-1097h20q161 0 248.5 -58.5t87.5 -162.5q0 -62 -38.5 -103t-96.5 -41q-57 0 -92 27.5t-35 71.5q0 35 12 49l16 16q0 1 2.5 5.5t2.5 10.5q0 50 -103 50h-176v-463l233 -209h-856l246 196v316h-1110l-41 49h1151v111h-1175v65l12 12
q202 243 362.5 562t259.5 684q86 325 86 520v12h496zM2163 905q63 -9 109 -69.5t46 -135.5q0 -89 -52.5 -146.5t-135.5 -57.5q-65 0 -143 49v24q83 -41 131 -41q64 0 111.5 50t47.5 118q0 76 -28 111v0q-1 0 -74 86q-6 0 -12 12zM2134 0h-1008l-45 53h942l-262 307v349h54
v-332z" />
    <glyph glyph-name="five" unicode="5" horiz-adv-x="2458" 
d="M389 2695l1049 -4q252 0 332.5 29.5t80.5 118.5q0 20 -16 20q-9 0 -20 -16q-27 -21 -58 -21q-38 0 -64 26t-26 64t27 66t67 28q79 0 131 -69q70 -82 70 -176q0 -196 -170 -286.5t-535 -90.5h-688v-680l33 29q16 11 41 29t41 28v487h754q279 0 446.5 119.5t167.5 319.5
q0 102 -53 213h12l12 -25q70 -122 70 -225q0 -131 -84.5 -235t-236.5 -162t-342 -58h-693v-409q111 60 190 79t216 19q278 0 498.5 -114t342 -318t121.5 -465q0 -214 -68.5 -388.5t-197 -297t-312.5 -187.5t-405 -65q-301 0 -492.5 71t-326.5 236q-81 98 -111 161.5
t-53 186.5l29 12q284 140 438 263q-20 -112 -20 -213q0 -177 49 -287q52 -123 186.5 -199t296.5 -76q170 0 297.5 98t195.5 278.5t68 418.5q0 345 -148.5 529t-428.5 184q-362 0 -586 -344l-127 78v1220zM1888 1716q174 -112 275.5 -317.5t101.5 -448.5q0 -232 -77 -421
t-224.5 -329.5t-350 -215t-442.5 -74.5q-320 0 -602 168v20q178 -76 298 -101.5t292 -25.5q238 0 432 69t331.5 199.5t209.5 312.5t72 406q0 242 -72 411.5t-244 330.5v16zM786 946q-20 -122 -20 -192q0 -157 91 -276t249 -171v-24q-176 27 -286.5 164.5t-110.5 330.5
q0 72 28 180zM1585 1319q-202 266 -467 266q-146 0 -251.5 -58.5t-223.5 -207.5l-45 24q89 136 227 211.5t297 75.5q332 0 475 -311h-12z" />
    <glyph glyph-name="six" unicode="6" horiz-adv-x="2458" 
d="M1606 2097q0 25 -4 29q-18 260 -123 380t-312 120q-238 0 -392.5 -216t-192.5 -604q-25 -222 -25 -467q0 -499 115 -757q64 -149 191 -236.5t284 -87.5q142 0 261.5 106.5t189 290t69.5 402.5q0 208 -55 364t-157.5 242t-237.5 86q-375 0 -443 -426q-17 -98 -74 -98
q-37 0 -61.5 32t-24.5 82q0 160 84.5 295.5t231 213t323.5 77.5q231 0 407 -110.5t272 -314t96 -468.5q0 -274 -108 -484t-305.5 -326t-451.5 -116q-238 0 -434 105.5t-319 296.5q-110 180 -176 423.5t-66 473.5q0 290 76.5 545.5t215.5 443.5t326 291.5t402 103.5
q581 0 799 -479l-127 -61q-134 -64 -254 -152zM1556 2257l-16 8l-82 86q-109 111 -258 111q-87 0 -171 -50t-136.5 -131.5t-74.5 -155t-64 -310.5l-4 -17l-54 -65q31 378 160 578t340 200q126 0 228 -72t132 -182zM1778 2683q123 -55 255 -190.5t203 -280.5l-262 -103
l-270 -127l-25 41q219 132 488 218q-117 226 -389 425v17zM1593 1229q-94 183 -184 263.5t-205 80.5q-205 0 -282 -311q-45 -193 -160 -193h-17q0 -8 -2 -20t-2 -17q0 -222 99 -418q60 -111 137 -173.5t215 -112.5l16 -4v-13q-220 0 -368 212t-148 530q0 37 4 73
q42 -8 49 -8q54 0 75 18.5t36 80.5l21 61q56 184 132 264t195 80q142 0 253 -108.5t149 -284.5h-13zM1974 1634q89 -64 159.5 -261t70.5 -382q0 -279 -128.5 -522t-345.5 -386.5t-468 -143.5q-167 0 -290.5 45t-258.5 151l-17 12v13q175 -96 290 -132t259 -36q372 0 656 315
q132 145 190.5 303t58.5 369q0 179 -36 316.5t-132 318.5z" />
    <glyph glyph-name="seven" unicode="7" horiz-adv-x="2458" 
d="M2142 2691q-21 -171 -93.5 -386.5t-180.5 -416.5l-189 -356q-83 -154 -152.5 -359.5t-96.5 -377.5q-37 -194 -37 -488q0 -82 4 -143h-537q6 137 42 316.5t89 334.5q119 346 459 803l250 344q86 120 151 266h-1097v-86q0 -208 -69.5 -300.5t-217.5 -92.5q-83 0 -172 57h90
q62 -12 86 -12q119 0 171 75.5t58 256.5l5 151h1167l12 25q19 37 25 82h-1319v-86q0 -418 -205 -418q-60 0 -101.5 29.5t-41.5 72.5q0 41 26 70t60 29q37 0 65 -29q23 -16 37 -16q53 0 53 151v504h1659zM2298 2613q-37 -383 -270 -803l-197 -356q-174 -320 -225 -692
q-25 -157 -25 -397q0 -168 16 -336l5 -29h-631l-33 53h598q-16 153 -16 275q0 667 274 1159l184 336q216 389 271 766l4 24h45z" />
    <glyph glyph-name="eight" unicode="8" horiz-adv-x="2458" 
d="M799 1585q-167 73 -277 155.5t-160.5 177.5t-50.5 212q0 355 434 594q34 18 85.5 46t91.5 48q228 123 335 201l62 49q45 33 45 53q-4 5 -10 13t-11 8l-28 12q-25 25 -29 33q-16 27 -16 57q0 50 30.5 84.5t71.5 34.5q61 0 104.5 -54t43.5 -126q0 -181 -361 -385l-241 -140
q-127 -74 -205 -177t-78 -195q0 -144 107 -244t388 -215q72 -28 177 -58q462 141 462 467q0 136 -104.5 230t-255.5 94q-92 0 -165 -45.5t-105 -122.5q-27 -57 -58 -57q-61 0 -61 98q0 121 103 200t257 79q159 0 287.5 -65t201.5 -180.5t73 -254.5q0 -155 -106 -279
t-349 -262l139 -61q201 100 311.5 242.5t110.5 301.5q0 117 -27.5 183.5t-140.5 214.5q-3 3 -7 9t-9 11q233 -145 233 -422q0 -166 -117 -323.5t-305 -241.5q161 -87 273.5 -206t171.5 -262.5t59 -301.5q0 -218 -121 -387.5t-339.5 -263.5t-497.5 -94q-307 0 -553 97.5
t-385.5 271.5t-139.5 392q0 165 63.5 294.5t200 237.5t355.5 206zM1192 1409q-524 -200 -524 -557q0 -310 270 -533v-16q-150 87 -235 233t-85 320q0 125 62 235t178 197t277 142l-197 65q-241 -120 -348 -274.5t-107 -380.5q0 -282 215.5 -456.5t563.5 -174.5
q178 0 314 61.5t210 174.5t74 260q0 237 -146.5 398t-480.5 294zM1540 3334q63 -56 85 -97.5t22 -103.5q0 -203 -287 -376l-17 -13h-81q178 106 254.5 193t76.5 192q0 89 -73 189zM2007 1401q89 -44 163.5 -136t117.5 -210.5t43 -239.5q0 -200 -76.5 -367.5t-220 -287
t-344.5 -183t-445 -63.5q-249 0 -427.5 58.5t-330.5 187.5v12l33 -20q153 -101 316.5 -143t400.5 -42q311 0 547.5 103.5t364.5 296t128 444.5q0 258 -155 451l-94 114zM1712 2286q-117 122 -250 122q-157 0 -241 -122h-29q86 172 270 172q180 0 267 -172h-17zM991 2511
q-110 -77 -153 -138t-43 -145q0 -136 98 -213l-12 -12q-136 112 -136 250q0 85 56 157.5t190 161.5v-61z" />
    <glyph glyph-name="nine" unicode="9" horiz-adv-x="2458" 
d="M1651 1122q-116 -131 -291 -206.5t-361 -75.5q-170 0 -329.5 75.5t-239.5 194.5l4 12q74 -108 223.5 -168.5t333.5 -60.5q216 0 392 90.5t288 257.5q12 127 12 299q0 427 -86 660q-60 172 -210 284.5t-318 112.5q-151 0 -264.5 -85t-174.5 -244t-61 -372
q0 -207 63.5 -359t182.5 -234t283 -82q169 0 283 91.5t147 252.5l16 82q11 45 49 45q66 0 66 -107q0 -152 -88.5 -286t-238.5 -212.5t-324 -78.5q-240 0 -423 99.5t-283.5 282t-100.5 420.5q0 255 115.5 468t316.5 337.5t436 124.5q218 0 402.5 -90t317.5 -257.5t204 -399
t71 -510.5q0 -483 -217 -898t-585.5 -657.5t-798.5 -242.5q-123 0 -123 61q0 59 86 66q187 22 360 90q195 70 377 229.5t283 347.5q135 245 205 643zM1548 2200q-193 233 -418 233q-181 0 -278.5 -145.5t-97.5 -415.5q0 -235 88.5 -397t242.5 -209v-17q-179 32 -284 200.5
t-105 422.5q0 195 50.5 333t147 209.5t232.5 71.5q130 0 245 -78t177 -208zM1671 2621q280 -153 427 -442.5t147 -695.5q0 -328 -87 -620.5t-256.5 -538.5t-418.5 -439q-460 -352 -991 -352h-29l-17 49q579 24 1000 344q161 124 298.5 292t235.5 358t150 395q61 231 61 504
q-1 259 -61.5 477t-176.5 382.5t-282 266.5v20z" />
    <glyph glyph-name="colon" unicode=":" horiz-adv-x="1094" 
d="M455 2126q107 0 184.5 -76t77.5 -182t-78 -184t-184 -78t-182 77.5t-76 184.5q0 106 76 182t182 76zM782 2044q68 -65 89.5 -114.5t21.5 -143.5q0 -135 -100.5 -237.5t-235.5 -102.5q-98 0 -150.5 24t-111.5 95l12 16q84 -50 125.5 -64t108.5 -14q129 0 216 89t87 218
q0 104 -78 218zM455 651q108 0 185 -75t77 -183q0 -106 -78 -184t-184 -78t-182 77.5t-76 184.5q0 108 75 183t183 75zM782 569q68 -65 89.5 -114.5t21.5 -143.5q0 -135 -100.5 -237.5t-235.5 -102.5q-98 0 -150.5 24t-111.5 95l12 16q127 -77 234 -77q129 0 216 89t87 218
q0 104 -78 217z" />
    <glyph glyph-name="semicolon" unicode=";" horiz-adv-x="1073" 
d="M618 610q58 -137 58 -291q0 -231 -154 -406t-436 -265l-16 24l20 21q74 60 118.5 120.5t65.5 132t21 160.5q0 171 -107 295q38 11 38 13h-1q222 82 393 196zM815 549q33 -117 33 -221q0 -136 -45 -266t-132.5 -238t-199.5 -176q-125 -81 -283 -140l-28 54l37 16
q307 120 434 287q164 213 164 450q0 97 -37 263zM446 2130q109 0 186 -76t77 -186q0 -107 -77.5 -182.5t-185.5 -75.5q-106 0 -182 76t-76 182q0 107 76 184.5t182 77.5zM774 2044q68 -62 89.5 -111t21.5 -143q0 -135 -101.5 -237.5t-234.5 -102.5q-98 0 -150.5 24
t-111.5 95l12 12q130 -74 233 -74q129 0 216.5 88.5t87.5 214.5q0 95 -78 222z" />
    <glyph glyph-name="less" unicode="&#x3c;" 
d="M1880 2548v-201l-1167 -750l1167 -782v-536l-1712 1155v28z" />
    <glyph glyph-name="equal" unicode="=" horiz-adv-x="2404" 
d="M1937 1929v-250h-1630v250h1630zM2052 1819l45 -45v-258h-1687l-37 53h1679v250zM1937 1245v-250h-1630v250h1630zM2052 1135l45 -45v-259h-1687l-37 58h1679v246z" />
    <glyph glyph-name="greater" unicode="&#x3e;" 
d="M168 279v200l1163 750l-1163 782v537l1712 -1155v-29z" />
    <glyph glyph-name="question" unicode="?" horiz-adv-x="1778" 
d="M217 1716q-89 106 -118 179.5t-29 193.5q0 166 91 297t256.5 203.5t373.5 72.5q217 0 391.5 -81.5t274 -224t99.5 -316.5q0 -125 -39.5 -225.5t-127 -193.5t-238.5 -196l-213 -139q-113 -76 -187.5 -184t-74.5 -193v-12l4 -70v-8q0 -74 -66 -74q-43 0 -80.5 66.5
t-37.5 146.5q0 277 303 586q202 204 271 321t69 257q0 172 -99 276.5t-262 104.5q-141 0 -240.5 -87.5t-99.5 -207.5q0 -134 164 -230l-20 -12l-111 -61q-132 -80 -254 -189zM1434 2544q140 -103 215 -245t75 -304q0 -326 -274 -549q-38 -31 -295 -225l-115 -82
q-111 -81 -157.5 -145.5t-46.5 -141.5q0 -65 57 -164l-74 21q-37 75 -37 143q0 105 72 193t264 221q208 143 315 240.5t164 201.5q82 143 82 287q0 174 -68 311t-194 217zM848 1946l-41 -25q-319 -185 -447 -287l-16 -12l-37 45l21 16q282 192 417 263q-163 100 -163 270
q0 83 65 140t164 57q190 0 287 -218h-17q-118 164 -274 164q-77 0 -126.5 -44t-49.5 -111q0 -169 217 -258zM799 651q108 0 185 -75t77 -183q0 -106 -78 -184t-184 -78t-182 77.5t-76 184.5q0 108 75 183t183 75zM1126 569q66 -62 88.5 -113.5t22.5 -144.5
q0 -135 -100.5 -237.5t-235.5 -102.5q-98 0 -150.5 24t-111.5 95l12 16q127 -77 234 -77q129 0 216 89t87 218q0 106 -78 217z" />
    <glyph glyph-name="at" unicode="@" horiz-adv-x="2949" 
d="M1688 786q-120 -113 -204 -152.5t-206 -39.5q-185 0 -320 151v9q129 -111 324 -111q108 0 183 36.5t177 135.5l33 29q52 -81 95 -122t98.5 -58t134.5 -17q203 0 380.5 142.5t283.5 381.5t106 512q0 339 -166.5 591t-480.5 384l4 25q344 -120 524 -385t180 -647
q0 -271 -114 -517t-303 -397t-398 -151q-117 0 -189 44t-142 156zM754 221l4 17q137 -122 305.5 -176t406.5 -54q235 0 457.5 66t362.5 176q43 39 127 123l37 -29q-91 -121 -237.5 -207.5t-338.5 -132t-408 -45.5q-233 0 -394.5 59t-321.5 203zM1614 1995q-41 41 -82 41
q-100 0 -178 -92t-120 -260.5t-42 -380.5q0 -328 123 -402l-4 -12q-168 44 -168 434q0 222 48.5 393.5t136 266t204.5 94.5q54 0 98 -66zM2126 2150l45 -53l-111 -856q-4 -37 -4 -94q0 -79 12 -112t54 -81q161 84 252.5 287t91.5 467q0 260 -133 474.5t-365.5 337
t-513.5 122.5q-294 0 -554 -171.5t-414 -460.5t-154 -617q0 -311 142.5 -571t390 -410t544.5 -150q218 0 403.5 60t370.5 190q59 45 98 45q41 0 41 -45q0 -66 -163 -164q-339 -217 -766 -217q-366 0 -663.5 173.5t-466.5 479t-169 682.5q0 336 187.5 639t499.5 485.5
t661 182.5q343 0 617 -139t428.5 -388.5t154.5 -557.5q0 -232 -95.5 -446t-253 -343t-331.5 -129q-267 0 -287 274q-91 -149 -194 -217.5t-240 -68.5q-225 0 -362.5 170t-137.5 452q0 236 100.5 441t271.5 324.5t370 119.5q87 0 128 -9t146 -52q91 -33 127 -33q57 0 115 33
l24 -17l-122 -987q0 -31 -2.5 -56.5t-2.5 -29.5q0 -81 36.5 -130.5t95.5 -49.5q7 0 65 8q-94 71 -94 205q0 18 12 98zM1663 1425l37 295v41q0 183 -67.5 290.5t-182.5 107.5q-183 0 -298.5 -231.5t-115.5 -600.5q0 -216 68.5 -339.5t185.5 -123.5q146 0 244.5 148t128.5 413
zM2015 2408l-41 9q-233 65 -422 65q-292 0 -534 -150.5t-380 -414.5t-138 -586q0 -202 65 -384t186 -318.5t285 -210.5l-16 -21q-195 91 -324 222.5t-191.5 307.5t-62.5 404q0 337 146 612.5t400.5 431.5t567.5 156q323 0 459 -123z" />
    <glyph glyph-name="A" unicode="A" horiz-adv-x="3101" 
d="M1933 2732l-204 -238l323 -872l82 45l-295 787l209 245l53 -20l-200 -238l278 -745l94 78q26 17 78 69q48 -218 160 -409q-41 4 -86 4q-185 0 -279 -62l365 -979l299 -233h-1008l275 233l-222 582q-213 -215 -339 -422l-46 12q121 202 353 439l16 20l-37 90
q-102 -84 -217 -219t-180 -244l-37 62q-101 160 -266 377l-17 24q-155 -352 -155 -573q0 -116 42 -197.5t208 -290.5q7 -7 18 -21.5t27 -35.5h-1082l-41 53h1020l-37 45q-130 158 -171.5 246t-41.5 205q0 200 168 614l-90 90q-25 -63 -65 -188l-66 -201q-53 -163 -53 -274
q0 -77 15.5 -131.5t56 -111t129.5 -146.5q5 -10 32 -37h-999q155 81 251 163t179 201q174 272 279 574q9 23 73 233l9 25q-105 90 -304 110q115 180 168 345l123 -119q80 -64 111 -86l37 86l-25 20q-86 73 -86 74v0q-26 26 -82 70l-16 12l33 45q110 -74 200 -164l275 750
l-213 229h921zM1438 2089l-217 -582l20 -24l82 -90q72 -84 168 -226l20 -28q71 89 201 213zM1348 2318l-316 -839q177 -185 262 -308l111 -155l70 86q-126 198 -324 389l254 676zM2527 1749q42 -180 221 -496q-24 4 -53 4q-11 4 -160 17q-146 8 -159 8h-41l331 -885
l447 -397h-1155l-41 53h1061l-357 320l-356 942q62 16 156 16t205 -12l32 -4q-92 170 -129 261.5t-63 209.5z" />
    <glyph glyph-name="B" unicode="B" horiz-adv-x="2650" 
d="M135 2458q471 315 1069 315q282 0 504 -88.5t344.5 -246.5t122.5 -357q0 -197 -121.5 -337.5t-349.5 -207.5v-25q44 -8 119 -32q145 34 253 118.5t165 209.5t57 274q0 284 -234 499v13q162 -122 222.5 -228t60.5 -276q0 -243 -107.5 -395.5t-343.5 -243.5
q195 -89 304.5 -255.5t109.5 -375.5q0 -196 -97 -344.5t-277 -229.5t-420 -81h-1430l274 237v865q-123 0 -274 -25l-16 57q129 14 290 21v106h-49q-162 -5 -237 -12q-2 0 -18 -2t-27 -2l86 193l32 -5q50 -4 119 -4q22 0 49 -2t29 -2h16v750zM762 2490v-901l65 -4l33 4v815
q173 82 336 82q191 0 299 -68.5t184 -234.5l-57 33q-146 225 -426 225q-99 0 -152 -15.5t-131 -70.5v-766q45 -4 86 -4q344 0 521 94q107 55 172 170.5t65 251.5q0 232 -156.5 374t-408.5 142q-219 0 -430 -127zM762 1421v-1102h98v984q98 8 209 8q224 0 356.5 -26
t213.5 -88.5t143 -180.5h-25q-64 91 -149 144t-210 75t-325 22q-82 0 -160 -4v-934h66q240 0 368.5 18.5t229.5 68.5q258 115 258 487q0 168 -76 297t-203 174q-193 66 -626 66q-38 0 -79.5 -3.5t-88.5 -5.5zM2257 1282q98 -72 157.5 -205t59.5 -278q0 -251 -109 -430.5
t-318 -274t-495 -94.5h-1359l-33 53h1261q280 0 434 35t275 121q291 203 291 586q0 139 -43.5 248.5t-141.5 222.5z" />
    <glyph glyph-name="C" unicode="C" horiz-adv-x="2384" 
d="M2183 2671l-24 -41q-171 -295 -312 -627l-16 -45l-25 12q-33 204 -119 352.5t-216 228t-287 79.5q-131 0 -258 -75t-201 -196q-61 -103 -100 -231.5t-57.5 -290.5t-18.5 -367q0 -376 87.5 -648.5t255 -416t398.5 -143.5q188 0 325 82.5t218.5 244.5t103.5 394q7 82 62 82
q82 0 82 -131q0 -97 -32.5 -231t-78.5 -220q-62 -123 -170 -210.5t-252 -133t-319 -45.5q-257 0 -468 93.5t-360 270.5t-228 429t-79 559q0 378 145 688t399 487t562 177q153 0 233.5 -18t278.5 -93q149 -57 238 -57q110 0 200 57zM1602 2322q-109 88 -179 118t-166 30
q-168 0 -284.5 -112t-176 -334t-59.5 -541q0 -222 31 -412.5t91 -338t145.5 -245t195.5 -143.5v-20q-120 26 -214.5 117.5t-164 245t-105.5 358.5t-36 438q0 504 146.5 770t422.5 266q112 0 187 -37t166 -135v-25zM2253 950q-15 -239 -66.5 -402t-154.5 -290
q-126 -153 -320 -238.5t-422 -85.5q-331 0 -618 205v17q260 -168 614 -168q214 0 397 82t304 233q98 119 142 256t62 371l4 45zM2327 2572l-21 -37q-223 -382 -348 -680l-53 29l196 397l180 320z" />
    <glyph glyph-name="D" unicode="D" horiz-adv-x="2499" 
d="M143 2732h787q372 0 601 -80t382 -264q287 -335 287 -909q0 -468 -156.5 -776t-458.5 -437q-140 -60 -275 -81t-376 -21h-852l274 209v2126zM750 2560v-2245h110v2114q109 16 189 16q163 0 259.5 -33.5t190.5 -121.5q-218 102 -455 102q-20 0 -56.5 -2.5t-78.5 -5.5
v-2069h33q178 0 282 31t193 105q169 138 256.5 404t87.5 632q0 351 -95.5 602.5t-268.5 355.5q-189 115 -553 115h-94zM205 0l-29 53h733q467 0 721 107q701 286 701 1282q0 295 -46 476.5t-163 354.5q-47 65 -62 82l-82 86l-20 29q79 -49 119.5 -88.5t97.5 -120.5
q74 -110 119.5 -228t65.5 -255t20 -324q0 -521 -182.5 -866t-526.5 -477q-292 -111 -762 -111h-704z" />
    <glyph glyph-name="E" unicode="E" horiz-adv-x="2548" 
d="M2249 2732l-33 -41q-125 -152 -187.5 -262t-136.5 -311q-4 10 -15.5 36t-12.5 29q-76 169 -150 247t-191 106t-347 28q-197 0 -361 -8v-922h127v815q135 13 291 13q175 0 279.5 -22.5t175.5 -78.5t135 -161q-21 12 -41 32q-106 82 -111 82q-74 56 -155 74q-93 16 -259 16
q-69 0 -221 -8h-41v-762h365l258 357v-861l-258 332h-545v-1122h127v1028h434l54 -53h-435v-975h29q290 0 471 33q227 44 348 254l107 180l24 45q50 -222 127 -354t258 -305h-2240l303 229v893q-168 -15 -303 -103l-29 41q113 88 332 115v94q-13 0 -26 2t-15 2
q-211 0 -381 -151q49 170 145.5 243t276.5 76v856l-303 242h2130zM2347 2593l-16 -21q-165 -225 -218 -314t-106 -235l-37 41q134 305 348 570zM1757 1925v-885l-49 25v885zM2589 180l-107 -180h-2183l-33 53h2188l69 127q-155 145 -247.5 275.5t-157.5 294.5l65 -25
q65 -154 137.5 -254t235.5 -258z" />
    <glyph glyph-name="F" unicode="F" horiz-adv-x="2257" 
d="M127 2732h2077q-124 -161 -174 -250.5t-142 -310.5l-12 -41q-87 177 -168 268t-189 126.5t-290 35.5h-361h-73v-930h123v824l57 4q78 4 229 4q251 0 370.5 -46.5t174.5 -166.5q-92 94 -209.5 126.5t-355.5 32.5q-111 0 -217 -8v-770h303l319 336v-836l-336 332h-458
v-1011l258 -258h-983l327 258v864q-156 -5 -270 -119l-37 41q112 131 291 131h16v94q-14 0 -33 2t-28 2q-187 0 -320 -151l-16 28q49 137 142 204.5t255 82.5v844zM2355 2609q-288 -334 -360 -614l-41 28q34 144 131 310t233 309zM1737 1896v-864l-54 29v864zM1376 1290
h-409v-856l352 -434h-1159l-49 53h1097l-290 361v929h401z" />
    <glyph glyph-name="G" unicode="G" horiz-adv-x="2793" 
d="M2343 2662l-373 -737q-36 312 -198 479.5t-424 167.5q-249 0 -428.5 -131t-273 -381.5t-93.5 -597.5q0 -397 101.5 -654t311 -381t533.5 -124h324v1036h-504q-165 0 -235 18t-138 77v53q73 -55 144.5 -72.5t232.5 -17.5h500v110h-647q-135 0 -217 58t-82 159
q0 84 50.5 142.5t121.5 58.5q52 0 91.5 -37t39.5 -90q0 -34 -20.5 -65t-45.5 -37l-49 -8q-21 -9 -21 -17q0 -29 62 -29h1388l-274 -274v-983l258 -221h-1225q-198 0 -278 17t-209 81q-247 117 -418 344q-254 346 -254 852q0 282 89 519t250 408t387 265t491 94
q166 0 422 -73q138 -41 184 -50q85 -24 168 -24q128 0 258 65zM2462 2535l-340 -671l-49 20l344 676zM1823 2232l-37 25q-129 93 -219.5 128.5t-198.5 35.5q-200 0 -357.5 -132.5t-207.5 -342.5q-53 -223 -53 -508q0 -282 33.5 -460t113 -306t225.5 -246v-20
q-221 132 -311 331q-123 285 -123 738q0 527 217 786q181 213 438 213q165 0 275.5 -54t204.5 -179v-9zM2585 1528l-209 -209v-938l336 -381h-1512q-93 0 -147.5 9.5t-104 34t-112.5 71.5h45q141 -58 372 -58h1344l-275 303v979l230 234z" />
    <glyph glyph-name="H" unicode="H" horiz-adv-x="2572" 
d="M127 2732h942l-274 -266v-864q35 -8 110 -13v856l217 213l41 -32l-209 -205v-836l70 -4q123 -12 299 -12q221 0 356 16v922l-245 225h925l-278 -266v-2085l246 -217h-922l274 233v848q-156 -37 -348 -37t-348 17h-29v-844l332 -381h-1036l-49 53h975l-271 299v922l58 -4
q263 -21 352 -21q217 0 364 49v74q-207 -29 -467 -29q-76 0 -168 9l-249 20v-991l258 -217h-926l270 233v877q-174 -6 -270 -135l-41 20q114 145 311 164v74h-16q-212 0 -340 -172l-29 20q67 163 151.5 238t233.5 102v901zM2441 2617l-200 -196v-2040l331 -381h-1040l-49 53
h975l-271 303v2085l221 217z" />
    <glyph glyph-name="I" unicode="I" horiz-adv-x="1253" 
d="M82 2732h950l-270 -274v-2081l254 -213h-934l278 229v2089zM1122 2617l-204 -200v-2040l335 -377h-1040l-49 53h971l-275 303v2077l225 225z" />
    <glyph glyph-name="J" unicode="J" horiz-adv-x="2101" 
d="M1913 2728l-271 -270v-1549q0 -148 103 -204q-16 -171 -126.5 -306t-294 -209.5t-406.5 -74.5q-631 0 -812 491l-28 78q-18 58 -48.5 79.5t-111.5 35.5l598 442q-33 -210 -33 -397q0 -274 110 -432t300 -158q170 0 259 148.5t89 424.5v1655l-270 246h942zM1995 2617
l-197 -200v-1540q0 -78 30 -127.5t109 -98.5q-34 -200 -177.5 -362.5t-363 -256t-466.5 -93.5q-375 0 -623 229v16q156 -113 285 -156.5t326 -43.5q227 0 434 85t346 234t178 328q-91 76 -111 127t-20 209v1474l221 217zM705 1196l-5 -25q-41 -247 -41 -331q0 -387 291 -525
h-32q-312 93 -312 516q0 167 45 365h54z" />
    <glyph glyph-name="K" unicode="K" horiz-adv-x="2773" 
d="M98 2732h934l-274 -266v-1209l106 127v1065l226 217l28 -40l-205 -201v-979l619 741q135 163 135 287q0 76 -75.5 146.5t-182.5 91.5v20h1053v-20q-111 -26 -180.5 -61.5t-192.5 -131.5q-115 -87 -177.5 -149.5t-195.5 -223.5l-278 -331l737 -1434l336 -217h-1036
l262 196l-496 992l-328 -398v-573l328 -381h-1024l-53 53h954l-254 307v619l348 430l-45 90l-409 -495v-623l241 -217h-917l274 233v2097zM2564 2548q-160 -9 -297.5 -89.5t-296.5 -254.5l-348 -389l705 -1434l569 -381h-1274l-57 53h1159l-426 291l-733 1471l372 417
q158 177 298 259.5t305 97.5z" />
    <glyph glyph-name="L" unicode="L" horiz-adv-x="2241" 
d="M82 2732h954l-282 -274v-2139l106 -8v2126l217 217l29 -45l-193 -196v-2102q148 -8 168 -8q216 0 357 61t223.5 194t120.5 351q70 -194 168 -401q82 -164 116 -217t105 -127h-2089l274 225v2089zM2363 180l-86 -180h-2089l-49 53h2114l57 127q-221 271 -348 602l-8 21
l61 -25l17 -33q125 -281 319 -544z" />
    <glyph glyph-name="M" unicode="M" horiz-adv-x="3318" 
d="M3097 2576l-226 -163v-2016l348 -397h-1065l-24 53h967l-279 316v2076l238 164zM831 807v1130l-110 320v-1438q0 -229 25.5 -348t91.5 -180.5t206 -102.5h29l148 -188h-1045l-37 53h983l-94 111h-872l41 20q152 83 229 160.5t106 186t29 296.5v1655l-262 250h1032
l-291 -262l566 -1675l73 172l-512 1487l263 192l40 -33l-249 -176l479 -1397l512 1430l-242 262h1012l-275 -278v-2057l246 -233h-917l278 233v1348l-635 -1745h-192l-17 53h177l667 1860v307l-745 -2056h-139l-549 1614v-963q0 -239 37.5 -361.5t138.5 -224.5l12 -12
q-137 47 -187.5 182.5t-50.5 407.5z" />
    <glyph glyph-name="N" unicode="N" horiz-adv-x="2654" 
d="M2535 2580l-36 -57q-105 -25 -160.5 -73t-79 -137.5t-23.5 -248.5v-2064h-430l-28 53h405v1991q0 282 72 392.5t280 143.5zM467 1745v762l-266 225h1011l-286 -192l970 -1889v242l-831 1614l283 192l32 -37l-245 -168l761 -1495v1041q0 242 -23.5 360.5t-91 186
t-225.5 145.5h910q-165 -86 -248 -167t-114 -196t-31 -313v-1892h-340l-942 1831v-1176q0 -227 48 -351.5t156 -234.5l13 -12q-144 49 -209.5 190t-65.5 400v1282l-106 213v-1155q0 -284 9.5 -425t36.5 -222t85 -152q57 -70 109 -101t169 -67l176 -184h-1085l-29 53h1000
l-103 111h-934q236 84 312 221q55 101 74.5 207t19.5 313v840z" />
    <glyph glyph-name="O" unicode="O" horiz-adv-x="2605" 
d="M1647 2314q-134 77 -216.5 104t-181.5 27q-544 0 -544 -1069q0 -773 335 -1028l-16 -20q-142 98 -226 233.5t-121.5 332t-37.5 490.5q0 1110 606 1110q126 0 233.5 -47t168.5 -133zM2302 1430q0 -305 -75 -553.5t-217.5 -423.5t-343.5 -267t-449 -92q-335 0 -598.5 171.5
t-410.5 479t-147 697.5q0 306 80 559t229.5 430t362 272t471.5 95q245 0 449 -97.5t348.5 -277.5t222.5 -432t78 -561zM1847 1487q0 526 -127 811q-71 147 -211 235t-305 88q-696 0 -696 -1224q0 -1131 684 -1131q344 0 516 357q53 119 82.5 236t43 265.5t13.5 362.5z
M1860 2691q198 -96 341.5 -283.5t220.5 -452.5t77 -579q0 -316 -88 -579t-252.5 -458.5t-389 -300t-491.5 -104.5q-346 0 -660 234v12q258 -184 644 -184q255 0 471.5 100.5t376.5 287.5t245.5 441t85.5 551q0 302 -68.5 555.5t-198.5 441t-314 298.5v20z" />
    <glyph glyph-name="P" unicode="P" horiz-adv-x="2421" 
d="M193 2732h897q367 0 576 -56t349 -190q197 -191 197 -479q0 -175 -85.5 -314t-244 -221.5t-375.5 -99.5q-177 -15 -344 -20h-73h-246v-967l246 -221h-930l278 233v803q-30 0 -145 -17.5t-166 -43.5l-16 37q129 77 237 77h90v99q-28 4 -65 4q-215 0 -340 -103l-21 29
q127 225 394 225h32v979zM844 2523v-1003h106v893h217q173 0 272 -18.5t158.5 -68t110.5 -147.5q-73 104 -183 144t-313 40h-208v-843h28q737 0 737 483q0 376 -323 483q-134 45 -373 45q-119 0 -184 -4zM2109 2515q120 -55 195.5 -204t75.5 -324q0 -578 -533 -730
q-143 -37 -276 -49t-395 -12q-107 0 -172 4v-827l315 -373h-1004l-53 53h942l-254 299v901q160 -12 357 -12q527 0 777.5 180t250.5 561q0 158 -47.5 269.5t-178.5 263.5z" />
    <glyph glyph-name="Q" unicode="Q" horiz-adv-x="2626" 
d="M1565 2380q-13 4 -29 12q-106 49 -148.5 59.5t-121.5 10.5q-202 0 -326.5 -120.5t-182 -378.5t-57.5 -677q0 -372 98.5 -603t307.5 -355h-21q-94 29 -177 108.5t-140 197.5t-84 267q-33 183 -33 426q0 311 33.5 534t104.5 365t182 209.5t270 67.5q188 0 324 -111v-12z
M1819 328q81 -81 196.5 -131t216.5 -50q100 0 155 12.5t165 61.5l16 -8q-106 -148 -155 -238l-148 -266l-8 -12q-325 54 -574 352q-210 -98 -413 -98q-144 0 -293 49.5t-240 126.5l8 16q271 -135 496 -135q223 0 406 82q-5 8 -13 16q-20 38 -53 70q-124 -45 -191.5 -57.5
t-193.5 -12.5q-310 0 -563 175t-396 484t-143 689q0 298 80.5 544t229.5 420.5t361 268.5t468 94q305 0 547 -167t376 -468t134 -684q0 -233 -58.5 -462.5t-154.5 -372.5q-83 -120 -242 -279zM1712 631q139 284 139 848q0 493 -122 778q-70 163 -219 261.5t-318 98.5
q-332 0 -502 -295.5t-170 -871.5q0 -291 38 -486t126 -358q85 -157 222 -246.5t294 -89.5q87 0 133 10.5t125 47.5q-51 99 -138 160t-177 61q-21 0 -45 -4l139 172q150 -47 356 -209l21 -16l9 9l7 7q1 1 41 57l12 13q-79 79 -151 121t-201 87l29 45q186 -71 328 -184z
M1876 2634q138 -58 251 -171t191 -266t121 -344.5t43 -402.5q0 -634 -373 -1094q115 -101 353 -118v-13q-74 -12 -103 -12q-188 0 -331 131q191 197 294 485.5t103 628.5q0 397 -133 679t-416 484v13zM2720 119q-157 -201 -307 -479l-13 -21l-49 25q75 143 156 262l164 241z
" />
    <glyph glyph-name="R" unicode="R" horiz-adv-x="2601" 
d="M176 2490q205 118 346 174.5t289.5 78.5t384.5 22q281 0 503 -84t347 -235t125 -337q0 -152 -81 -285t-234.5 -232t-356.5 -150q138 -380 377 -744t471 -551l-29 -8q-290 -99 -585 -291l-29 -16l-8 62q-88 519 -234 966q-80 241 -127 348l-8 21q-150 -72 -369 -103
l-16 -4v-749l352 -373h-1032l-33 53h951l-287 307v807l37 4q235 28 385 91l-45 114q-149 -42 -226 -49l-262 -33v-893l226 -237h-881l258 237v672q-28 -6 -71.5 -15.5t-51.5 -13.5q-24 -8 -49 -17.5t-53 -14.5l-17 -4l-16 41q105 38 135 45l123 28v107q-120 -5 -295 -53
l-20 -9q0 8 2 16t2 9q0 10 37 106v-1q3 0 28 92q0 8 4 16q42 -3 61.5 -4t36.5 -2.5t42 -1.5q20 0 102 8l-4 983q-96 60 -188 94zM782 2540v-1078h17q29 0 94 13v983q110 28 262 28q208 0 331.5 -59.5t196.5 -194.5q-146 120 -257.5 164.5t-270.5 44.5q-115 0 -213 -24v-942
h21q405 74 591.5 231t186.5 424q0 136 -80.5 248.5t-219.5 177.5t-306 65q-208 0 -353 -81zM1749 1339q43 -138 121.5 -298t182.5 -315t212 -275q182 -201 434 -357q-253 -68 -448.5 -152.5t-411.5 -220.5l-16 -12l-41 33q381 248 815 369q-218 144 -371 314.5t-317 446.5
q-88 155 -119 221.5t-98 241.5l-17 33q139 54 216.5 94.5t144.5 98.5q254 204 254 532q0 183 -160 414q205 -181 205 -492q0 -209 -154 -386t-432 -290z" />
    <glyph glyph-name="S" unicode="S" horiz-adv-x="2273" 
d="M1958 2707q-111 -152 -164 -290q-127 -312 -164 -369q-2 0 -8 -12q-8 24 -12 32q-71 228 -121.5 305.5t-181.5 153.5q-141 86 -295 86q-227 0 -371.5 -114.5t-144.5 -298.5q0 -174 123 -286t385 -177l335 -78q252 -61 397.5 -155t233.5 -251q90 -154 90 -356
q0 -222 -113.5 -399.5t-317 -276t-462.5 -98.5q-210 0 -475 70l-229 57q-155 33 -225 33q-135 0 -263 -78l-16 28q100 152 206 366.5t142 346.5l37 -12q27 -207 130.5 -356t275 -226.5t397.5 -77.5q168 0 301 54.5t207 154t74 226.5q0 304 -267 450q-103 60 -221.5 95.5
t-380.5 84.5q-263 53 -404.5 133t-222.5 224q-90 167 -90 364q0 322 230 517.5t610 195.5q223 0 524 -86q142 -37 217 -37q93 0 213 66zM2085 2626l-21 -33q-62 -101 -139 -262q-167 -343 -168 -344l-49 20l176 360l148 283zM1499 2224q-221 234 -471 234q-152 0 -252 -88
t-100 -224q0 -86 42.5 -150t158.5 -153l16 -12l-8 -12q-267 114 -267 340q0 156 113 254t293 98q171 0 300.5 -73.5t186.5 -205.5zM1958 1430q274 -207 274 -566q0 -249 -135.5 -458t-370 -330t-514.5 -121q-200 0 -389 41l-319 82q-111 24 -238 24q-114 0 -209 -45l-24 62
q100 45 213 45q111 0 270 -37l307 -74q180 -41 389 -41q256 0 479 116t353.5 313t130.5 427q0 320 -217 549v13zM532 856q40 -190 134 -310t264 -202v-16q-196 58 -301.5 178.5t-149.5 337.5zM287 1503l65 -37q40 -70 118.5 -109t270.5 -87l320 -82q235 -58 344 -98
t163 -89.5t87 -132.5l-17 -8q-87 106 -189.5 152t-408.5 118q-336 79 -478 129t-206 117q-56 61 -69 127z" />
    <glyph glyph-name="T" unicode="T" horiz-adv-x="2372" 
d="M2314 2732l-160 -291l-135 -327l-20 16l-4 24q-59 230 -166.5 318t-329.5 88q-54 0 -176 -8l-25 -4v-2167l234 -217h-914l283 233v1991h-131q-220 0 -306.5 -77.5t-103.5 -287.5h-53q26 241 125 329.5t342 88.5h127v99q-117 12 -196 12q-173 0 -280 -45.5t-158.5 -147.5
t-57.5 -270h-25q-52 173 -105 296t-161 327l-12 20h2408zM2441 2605q-82 -103 -142.5 -225t-148.5 -361l-8 -20l-45 41l8 16q160 445 295 586zM1905 2294q-149 98 -357 98q-57 0 -98 -4l8 -2011l316 -377h-1020l-45 53h954l-266 307v2085h110q195 0 275.5 -30t122.5 -121z
" />
    <glyph glyph-name="U" unicode="U" horiz-adv-x="2486" 
d="M2376 2732l-357 -287v-1294q0 -317 -15.5 -457t-61.5 -239q-152 -328 -705 -328q-293 0 -496.5 87t-289.5 249q-63 116 -89 273.5t-26 422.5v1327l-270 246h946l-275 -266v-1618q0 -201 54.5 -320t174 -172t320.5 -53q175 0 300.5 64t170.5 174q78 205 78 610v1294
l-311 287h852zM2445 2593l-274 -221v-1246q0 -521 -53 -696q-49 -150 -160 -257t-276.5 -162.5t-370.5 -55.5q-232 0 -429 65t-313 181l17 -8l69 -41q116 -66 279.5 -105t322.5 -39q667 0 799 438q62 212 62 664v1282l295 246zM1094 2626l-197 -201v-1622
q0 -144 47.5 -232.5t185.5 -205.5l5 -21q-166 67 -230.5 198t-64.5 404v1499l225 221z" />
    <glyph glyph-name="V" unicode="V" horiz-adv-x="2540" 
d="M2753 3363l20 -21q-178 -172 -302.5 -346.5t-244 -428t-276.5 -666.5l-582 -1528l234 -209h-922l266 217l-733 2085l-307 266h991l-283 -283l664 -1880l74 185l-590 1667l205 200l37 -36l-177 -177l553 -1581l426 1131q189 504 189 704q0 207 -152 353l41 8
q355 68 610 188q169 80 259 152zM2863 3240l16 -45q-243 -194 -479 -647q-91 -173 -138.5 -283.5t-168.5 -429.5l-565 -1470l311 -365h-1032l-45 53h958l-250 295l680 1782q135 353 337 667t376 443z" />
    <glyph glyph-name="W" unicode="W" horiz-adv-x="3236" 
d="M3461 3416q-130 -141 -196 -232t-152 -239q-108 -191 -193 -430.5t-213 -712.5l-348 -1261l41 -156l246 -221h-909l262 221l-357 1282l-344 -1253l344 -414h-1019l-41 53h950l-299 348l381 1368l-70 238l-409 -1499l32 -123l234 -221h-914l275 221l-586 2093l-299 254
h979l-274 -254l458 -1647l70 242l-385 1376l180 160l45 -33l-164 -143l349 -1262l430 1561h188l516 -1884l66 225l-459 1659h57l426 -1561l189 676q176 631 176 828q0 118 -44.5 195.5t-152.5 144.5q227 69 497 198.5t404 231.5zM3580 3265q-306 -337 -512 -873
q-52 -136 -83 -235t-118 -416l-352 -1295l381 -446h-1024l-49 53h954l-323 373l364 1343q71 257 135.5 456t125.5 340t140 282q80 146 138.5 229t177.5 221z" />
    <glyph glyph-name="X" unicode="X" horiz-adv-x="2859" 
d="M2552 2732l-438 -291l-639 -815l729 -1200l348 -262h-1032l254 246l-455 745l-565 -729l327 -426h-1093l-29 53h1016l-283 373l598 778l-57 86l-651 -827l241 -299h-917l467 299l774 983l-623 1016l-381 270h1057l-262 -229l446 -729l70 94l-373 594l222 213l36 -33
l-192 -180l340 -553l434 553l-250 270h881zM2626 2580l-394 -233l-565 -733l688 -1139l492 -475h-1241l-37 53h1147l-406 393l-704 1168l589 770l398 233z" />
    <glyph glyph-name="Y" unicode="Y" horiz-adv-x="2626" 
d="M2879 3437l13 -17l-21 -24q-255 -264 -401 -463q-59 -80 -189 -291q-70 -114 -95.5 -156.5l-31.5 -52.5l-745 -1188v-815l291 -266h-975l291 266v815l-479 733l-107 168q-142 224 -237 331t-263 235l-24 20h1012l-250 -258l667 -1008l62 103l-590 905l209 197l41 -29
l-185 -168l553 -856l451 709q114 184 153 273.5t39 172.5q0 140 -167 303q141 33 340 94q343 104 614 250zM2970 3314v-82l-21 -21q-130 -124 -182 -183t-141 -185q-142 -196 -324 -488l-725 -1138v-787l356 -430h-1253l-21 53h1168l-303 377v799l852 1347q187 306 389 533
q125 136 205 205z" />
    <glyph glyph-name="Z" unicode="Z" horiz-adv-x="2626" 
d="M2265 2732l-1601 -2400h122l1573 2355l37 -49l-1540 -2306l438 4q178 0 325.5 68t227.5 182q82 118 144 250q166 -438 356 -672h-2277l1482 2228h-41q-69 4 -258 4q-275 0 -398.5 -34.5t-195.5 -133.5q-69 -99 -106 -233l-41 45q29 123 100 216t170 136q128 53 467 53
q226 0 307 -4l29 -4l78 115q-173 12 -274 12q-278 0 -420.5 -13t-227.5 -48t-163 -107q-106 -95 -172 -278l-17 32q-108 251 -283 557l-12 25h2171zM2560 180l-106 -180h-2282l-41 53h2294l69 127q-127 154 -207 295.5t-153 339.5l70 -24q60 -181 129 -300.5t211 -289.5z
" />
    <glyph glyph-name="bracketleft" unicode="[" horiz-adv-x="1790" 
d="M410 3056h921v-193h-475v-2859h115v2749h475v192l45 -49v-197h-463v-2695h303v-197h-921v3249zM1446 -106l45 -54v-196h-979l-37 57h971v193z" />
    <glyph glyph-name="backslash" unicode="\" horiz-adv-x="2118" 
d="M-33 3072l1950 -3269h-188l-1950 3269h188zM1864 -315h209l-1983 3330l86 -41l1995 -3343h-221z" />
    <glyph glyph-name="bracketright" unicode="]" horiz-adv-x="1790" 
d="M299 2863v193h922v-3249h-922v197h475v2695h-373l-36 54h409v110h-475zM1335 2945l45 -49v-3252h-979l-36 57h970v3244z" />
    <glyph glyph-name="asciicircum" unicode="^" 
d="M2159 1155h-201l-750 1163l-782 -1163h-537l1155 1712h29z" />
    <glyph glyph-name="underscore" unicode="_" 
d="M-37 -369h2114v-233h-2114v233z" />
    <glyph glyph-name="quoteleft" unicode="&#x2018;" horiz-adv-x="901" 
d="M328 1704l-37 41q165 109 327 164l41 12l-8 -4q-143 149 -143 340q0 96 55.5 178.5t198.5 198.5l20 16l45 -45l-24 -16q-126 -98 -178 -174t-52 -158q0 -100 40.5 -179.5t140.5 -176.5q-151 -47 -221.5 -80.5t-204.5 -116.5zM131 1782q-61 137 -61 291t69 284.5
t201 229.5t319 157l17 -28l-21 -17q-76 -65 -119.5 -125t-64 -129t-20.5 -159q0 -171 106 -295q-17 -9 -24 -11.5t-13 -5.5q-221 -79 -389 -192z" />
    <glyph glyph-name="a" unicode="a" horiz-adv-x="3101" 
d="M1933 2732l-204 -238l323 -872l82 45l-295 787l209 245l53 -20l-200 -238l278 -745l94 78q26 17 78 69q48 -218 160 -409q-41 4 -86 4q-185 0 -279 -62l365 -979l299 -233h-1008l275 233l-222 582q-213 -215 -339 -422l-46 12q121 202 353 439l16 20l-37 90
q-102 -84 -217 -219t-180 -244l-37 62q-101 160 -266 377l-17 24q-155 -352 -155 -573q0 -116 42 -197.5t208 -290.5q7 -7 18 -21.5t27 -35.5h-1082l-41 53h1020l-37 45q-130 158 -171.5 246t-41.5 205q0 200 168 614l-90 90q-25 -63 -65 -188l-66 -201q-53 -163 -53 -274
q0 -77 15.5 -131.5t56 -111t129.5 -146.5q5 -10 32 -37h-999q155 81 251 163t179 201q174 272 279 574q9 23 73 233l9 25q-105 90 -304 110q115 180 168 345l123 -119q80 -64 111 -86l37 86l-25 20q-86 73 -86 74v0q-26 26 -82 70l-16 12l33 45q110 -74 200 -164l275 750
l-213 229h921zM1438 2089l-217 -582l20 -24l82 -90q72 -84 168 -226l20 -28q71 89 201 213zM1348 2318l-316 -839q177 -185 262 -308l111 -155l70 86q-126 198 -324 389l254 676zM2527 1749q42 -180 221 -496q-24 4 -53 4q-11 4 -160 17q-146 8 -159 8h-41l331 -885
l447 -397h-1155l-41 53h1061l-357 320l-356 942q62 16 156 16t205 -12l32 -4q-92 170 -129 261.5t-63 209.5z" />
    <glyph glyph-name="b" unicode="b" horiz-adv-x="2650" 
d="M135 2458q471 315 1069 315q282 0 504 -88.5t344.5 -246.5t122.5 -357q0 -197 -121.5 -337.5t-349.5 -207.5v-25q44 -8 119 -32q145 34 253 118.5t165 209.5t57 274q0 284 -234 499v13q162 -122 222.5 -228t60.5 -276q0 -243 -107.5 -395.5t-343.5 -243.5
q195 -89 304.5 -255.5t109.5 -375.5q0 -196 -97 -344.5t-277 -229.5t-420 -81h-1430l274 237v865q-123 0 -274 -25l-16 57q129 14 290 21v106h-49q-162 -5 -237 -12q-2 0 -18 -2t-27 -2l86 193l32 -5q50 -4 119 -4q22 0 49 -2t29 -2h16v750zM762 2490v-901l65 -4l33 4v815
q173 82 336 82q191 0 299 -68.5t184 -234.5l-57 33q-146 225 -426 225q-99 0 -152 -15.5t-131 -70.5v-766q45 -4 86 -4q344 0 521 94q107 55 172 170.5t65 251.5q0 232 -156.5 374t-408.5 142q-219 0 -430 -127zM762 1421v-1102h98v984q98 8 209 8q224 0 356.5 -26
t213.5 -88.5t143 -180.5h-25q-64 91 -149 144t-210 75t-325 22q-82 0 -160 -4v-934h66q240 0 368.5 18.5t229.5 68.5q258 115 258 487q0 168 -76 297t-203 174q-193 66 -626 66q-38 0 -79.5 -3.5t-88.5 -5.5zM2257 1282q98 -72 157.5 -205t59.5 -278q0 -251 -109 -430.5
t-318 -274t-495 -94.5h-1359l-33 53h1261q280 0 434 35t275 121q291 203 291 586q0 139 -43.5 248.5t-141.5 222.5z" />
    <glyph glyph-name="c" unicode="c" horiz-adv-x="2384" 
d="M2183 2671l-24 -41q-171 -295 -312 -627l-16 -45l-25 12q-33 204 -119 352.5t-216 228t-287 79.5q-131 0 -258 -75t-201 -196q-61 -103 -100 -231.5t-57.5 -290.5t-18.5 -367q0 -376 87.5 -648.5t255 -416t398.5 -143.5q188 0 325 82.5t218.5 244.5t103.5 394q7 82 62 82
q82 0 82 -131q0 -97 -32.5 -231t-78.5 -220q-62 -123 -170 -210.5t-252 -133t-319 -45.5q-257 0 -468 93.5t-360 270.5t-228 429t-79 559q0 378 145 688t399 487t562 177q153 0 233.5 -18t278.5 -93q149 -57 238 -57q110 0 200 57zM1602 2322q-109 88 -179 118t-166 30
q-168 0 -284.5 -112t-176 -334t-59.5 -541q0 -222 31 -412.5t91 -338t145.5 -245t195.5 -143.5v-20q-120 26 -214.5 117.5t-164 245t-105.5 358.5t-36 438q0 504 146.5 770t422.5 266q112 0 187 -37t166 -135v-25zM2253 950q-15 -239 -66.5 -402t-154.5 -290
q-126 -153 -320 -238.5t-422 -85.5q-331 0 -618 205v17q260 -168 614 -168q214 0 397 82t304 233q98 119 142 256t62 371l4 45zM2327 2572l-21 -37q-223 -382 -348 -680l-53 29l196 397l180 320z" />
    <glyph glyph-name="d" unicode="d" horiz-adv-x="2499" 
d="M143 2732h787q372 0 601 -80t382 -264q287 -335 287 -909q0 -468 -156.5 -776t-458.5 -437q-140 -60 -275 -81t-376 -21h-852l274 209v2126zM750 2560v-2245h110v2114q109 16 189 16q163 0 259.5 -33.5t190.5 -121.5q-218 102 -455 102q-20 0 -56.5 -2.5t-78.5 -5.5
v-2069h33q178 0 282 31t193 105q169 138 256.5 404t87.5 632q0 351 -95.5 602.5t-268.5 355.5q-189 115 -553 115h-94zM205 0l-29 53h733q467 0 721 107q701 286 701 1282q0 295 -46 476.5t-163 354.5q-47 65 -62 82l-82 86l-20 29q79 -49 119.5 -88.5t97.5 -120.5
q74 -110 119.5 -228t65.5 -255t20 -324q0 -521 -182.5 -866t-526.5 -477q-292 -111 -762 -111h-704z" />
    <glyph glyph-name="e" unicode="e" horiz-adv-x="2548" 
d="M2249 2732l-33 -41q-125 -152 -187.5 -262t-136.5 -311q-4 10 -15.5 36t-12.5 29q-76 169 -150 247t-191 106t-347 28q-197 0 -361 -8v-922h127v815q135 13 291 13q175 0 279.5 -22.5t175.5 -78.5t135 -161q-21 12 -41 32q-106 82 -111 82q-74 56 -155 74q-93 16 -259 16
q-69 0 -221 -8h-41v-762h365l258 357v-861l-258 332h-545v-1122h127v1028h434l54 -53h-435v-975h29q290 0 471 33q227 44 348 254l107 180l24 45q50 -222 127 -354t258 -305h-2240l303 229v893q-168 -15 -303 -103l-29 41q113 88 332 115v94q-13 0 -26 2t-15 2
q-211 0 -381 -151q49 170 145.5 243t276.5 76v856l-303 242h2130zM2347 2593l-16 -21q-165 -225 -218 -314t-106 -235l-37 41q134 305 348 570zM1757 1925v-885l-49 25v885zM2589 180l-107 -180h-2183l-33 53h2188l69 127q-155 145 -247.5 275.5t-157.5 294.5l65 -25
q65 -154 137.5 -254t235.5 -258z" />
    <glyph glyph-name="f" unicode="f" horiz-adv-x="2257" 
d="M127 2732h2077q-124 -161 -174 -250.5t-142 -310.5l-12 -41q-87 177 -168 268t-189 126.5t-290 35.5h-361h-73v-930h123v824l57 4q78 4 229 4q251 0 370.5 -46.5t174.5 -166.5q-92 94 -209.5 126.5t-355.5 32.5q-111 0 -217 -8v-770h303l319 336v-836l-336 332h-458
v-1011l258 -258h-983l327 258v864q-156 -5 -270 -119l-37 41q112 131 291 131h16v94q-14 0 -33 2t-28 2q-187 0 -320 -151l-16 28q49 137 142 204.5t255 82.5v844zM2355 2609q-288 -334 -360 -614l-41 28q34 144 131 310t233 309zM1737 1896v-864l-54 29v864zM1376 1290
h-409v-856l352 -434h-1159l-49 53h1097l-290 361v929h401z" />
    <glyph glyph-name="g" unicode="g" horiz-adv-x="2793" 
d="M2343 2662l-373 -737q-36 312 -198 479.5t-424 167.5q-249 0 -428.5 -131t-273 -381.5t-93.5 -597.5q0 -397 101.5 -654t311 -381t533.5 -124h324v1036h-504q-165 0 -235 18t-138 77v53q73 -55 144.5 -72.5t232.5 -17.5h500v110h-647q-135 0 -217 58t-82 159
q0 84 50.5 142.5t121.5 58.5q52 0 91.5 -37t39.5 -90q0 -34 -20.5 -65t-45.5 -37l-49 -8q-21 -9 -21 -17q0 -29 62 -29h1388l-274 -274v-983l258 -221h-1225q-198 0 -278 17t-209 81q-247 117 -418 344q-254 346 -254 852q0 282 89 519t250 408t387 265t491 94
q166 0 422 -73q138 -41 184 -50q85 -24 168 -24q128 0 258 65zM2462 2535l-340 -671l-49 20l344 676zM1823 2232l-37 25q-129 93 -219.5 128.5t-198.5 35.5q-200 0 -357.5 -132.5t-207.5 -342.5q-53 -223 -53 -508q0 -282 33.5 -460t113 -306t225.5 -246v-20
q-221 132 -311 331q-123 285 -123 738q0 527 217 786q181 213 438 213q165 0 275.5 -54t204.5 -179v-9zM2585 1528l-209 -209v-938l336 -381h-1512q-93 0 -147.5 9.5t-104 34t-112.5 71.5h45q141 -58 372 -58h1344l-275 303v979l230 234z" />
    <glyph glyph-name="h" unicode="h" horiz-adv-x="2572" 
d="M127 2732h942l-274 -266v-864q35 -8 110 -13v856l217 213l41 -32l-209 -205v-836l70 -4q123 -12 299 -12q221 0 356 16v922l-245 225h925l-278 -266v-2085l246 -217h-922l274 233v848q-156 -37 -348 -37t-348 17h-29v-844l332 -381h-1036l-49 53h975l-271 299v922l58 -4
q263 -21 352 -21q217 0 364 49v74q-207 -29 -467 -29q-76 0 -168 9l-249 20v-991l258 -217h-926l270 233v877q-174 -6 -270 -135l-41 20q114 145 311 164v74h-16q-212 0 -340 -172l-29 20q67 163 151.5 238t233.5 102v901zM2441 2617l-200 -196v-2040l331 -381h-1040l-49 53
h975l-271 303v2085l221 217z" />
    <glyph glyph-name="i" unicode="i" horiz-adv-x="1253" 
d="M82 2732h950l-270 -274v-2081l254 -213h-934l278 229v2089zM1122 2617l-204 -200v-2040l335 -377h-1040l-49 53h971l-275 303v2077l225 225z" />
    <glyph glyph-name="j" unicode="j" horiz-adv-x="2101" 
d="M1913 2728l-271 -270v-1549q0 -148 103 -204q-16 -171 -126.5 -306t-294 -209.5t-406.5 -74.5q-631 0 -812 491l-28 78q-18 58 -48.5 79.5t-111.5 35.5l598 442q-33 -210 -33 -397q0 -274 110 -432t300 -158q170 0 259 148.5t89 424.5v1655l-270 246h942zM1995 2617
l-197 -200v-1540q0 -78 30 -127.5t109 -98.5q-34 -200 -177.5 -362.5t-363 -256t-466.5 -93.5q-375 0 -623 229v16q156 -113 285 -156.5t326 -43.5q227 0 434 85t346 234t178 328q-91 76 -111 127t-20 209v1474l221 217zM705 1196l-5 -25q-41 -247 -41 -331q0 -387 291 -525
h-32q-312 93 -312 516q0 167 45 365h54z" />
    <glyph glyph-name="k" unicode="k" horiz-adv-x="2773" 
d="M98 2732h934l-274 -266v-1209l106 127v1065l226 217l28 -40l-205 -201v-979l619 741q135 163 135 287q0 76 -75.5 146.5t-182.5 91.5v20h1053v-20q-111 -26 -180.5 -61.5t-192.5 -131.5q-115 -87 -177.5 -149.5t-195.5 -223.5l-278 -331l737 -1434l336 -217h-1036
l262 196l-496 992l-328 -398v-573l328 -381h-1024l-53 53h954l-254 307v619l348 430l-45 90l-409 -495v-623l241 -217h-917l274 233v2097zM2564 2548q-160 -9 -297.5 -89.5t-296.5 -254.5l-348 -389l705 -1434l569 -381h-1274l-57 53h1159l-426 291l-733 1471l372 417
q158 177 298 259.5t305 97.5z" />
    <glyph glyph-name="l" unicode="l" horiz-adv-x="2241" 
d="M82 2732h954l-282 -274v-2139l106 -8v2126l217 217l29 -45l-193 -196v-2102q148 -8 168 -8q216 0 357 61t223.5 194t120.5 351q70 -194 168 -401q82 -164 116 -217t105 -127h-2089l274 225v2089zM2363 180l-86 -180h-2089l-49 53h2114l57 127q-221 271 -348 602l-8 21
l61 -25l17 -33q125 -281 319 -544z" />
    <glyph glyph-name="m" unicode="m" horiz-adv-x="3318" 
d="M3097 2576l-226 -163v-2016l348 -397h-1065l-24 53h967l-279 316v2076l238 164zM831 807v1130l-110 320v-1438q0 -229 25.5 -348t91.5 -180.5t206 -102.5h29l148 -188h-1045l-37 53h983l-94 111h-872l41 20q152 83 229 160.5t106 186t29 296.5v1655l-262 250h1032
l-291 -262l566 -1675l73 172l-512 1487l263 192l40 -33l-249 -176l479 -1397l512 1430l-242 262h1012l-275 -278v-2057l246 -233h-917l278 233v1348l-635 -1745h-192l-17 53h177l667 1860v307l-745 -2056h-139l-549 1614v-963q0 -239 37.5 -361.5t138.5 -224.5l12 -12
q-137 47 -187.5 182.5t-50.5 407.5z" />
    <glyph glyph-name="n" unicode="n" horiz-adv-x="2654" 
d="M2535 2580l-36 -57q-105 -25 -160.5 -73t-79 -137.5t-23.5 -248.5v-2064h-430l-28 53h405v1991q0 282 72 392.5t280 143.5zM467 1745v762l-266 225h1011l-286 -192l970 -1889v242l-831 1614l283 192l32 -37l-245 -168l761 -1495v1041q0 242 -23.5 360.5t-91 186
t-225.5 145.5h910q-165 -86 -248 -167t-114 -196t-31 -313v-1892h-340l-942 1831v-1176q0 -227 48 -351.5t156 -234.5l13 -12q-144 49 -209.5 190t-65.5 400v1282l-106 213v-1155q0 -284 9.5 -425t36.5 -222t85 -152q57 -70 109 -101t169 -67l176 -184h-1085l-29 53h1000
l-103 111h-934q236 84 312 221q55 101 74.5 207t19.5 313v840z" />
    <glyph glyph-name="o" unicode="o" horiz-adv-x="2605" 
d="M1647 2314q-134 77 -216.5 104t-181.5 27q-544 0 -544 -1069q0 -773 335 -1028l-16 -20q-142 98 -226 233.5t-121.5 332t-37.5 490.5q0 1110 606 1110q126 0 233.5 -47t168.5 -133zM2302 1430q0 -305 -75 -553.5t-217.5 -423.5t-343.5 -267t-449 -92q-335 0 -598.5 171.5
t-410.5 479t-147 697.5q0 306 80 559t229.5 430t362 272t471.5 95q245 0 449 -97.5t348.5 -277.5t222.5 -432t78 -561zM1847 1487q0 526 -127 811q-71 147 -211 235t-305 88q-696 0 -696 -1224q0 -1131 684 -1131q344 0 516 357q53 119 82.5 236t43 265.5t13.5 362.5z
M1860 2691q198 -96 341.5 -283.5t220.5 -452.5t77 -579q0 -316 -88 -579t-252.5 -458.5t-389 -300t-491.5 -104.5q-346 0 -660 234v12q258 -184 644 -184q255 0 471.5 100.5t376.5 287.5t245.5 441t85.5 551q0 302 -68.5 555.5t-198.5 441t-314 298.5v20z" />
    <glyph glyph-name="p" unicode="p" horiz-adv-x="2421" 
d="M193 2732h897q367 0 576 -56t349 -190q197 -191 197 -479q0 -175 -85.5 -314t-244 -221.5t-375.5 -99.5q-177 -15 -344 -20h-73h-246v-967l246 -221h-930l278 233v803q-30 0 -145 -17.5t-166 -43.5l-16 37q129 77 237 77h90v99q-28 4 -65 4q-215 0 -340 -103l-21 29
q127 225 394 225h32v979zM844 2523v-1003h106v893h217q173 0 272 -18.5t158.5 -68t110.5 -147.5q-73 104 -183 144t-313 40h-208v-843h28q737 0 737 483q0 376 -323 483q-134 45 -373 45q-119 0 -184 -4zM2109 2515q120 -55 195.5 -204t75.5 -324q0 -578 -533 -730
q-143 -37 -276 -49t-395 -12q-107 0 -172 4v-827l315 -373h-1004l-53 53h942l-254 299v901q160 -12 357 -12q527 0 777.5 180t250.5 561q0 158 -47.5 269.5t-178.5 263.5z" />
    <glyph glyph-name="q" unicode="q" horiz-adv-x="2626" 
d="M1565 2380q-13 4 -29 12q-106 49 -148.5 59.5t-121.5 10.5q-202 0 -326.5 -120.5t-182 -378.5t-57.5 -677q0 -372 98.5 -603t307.5 -355h-21q-94 29 -177 108.5t-140 197.5t-84 267q-33 183 -33 426q0 311 33.5 534t104.5 365t182 209.5t270 67.5q188 0 324 -111v-12z
M1819 328q81 -81 196.5 -131t216.5 -50q100 0 155 12.5t165 61.5l16 -8q-106 -148 -155 -238l-148 -266l-8 -12q-325 54 -574 352q-210 -98 -413 -98q-144 0 -293 49.5t-240 126.5l8 16q271 -135 496 -135q223 0 406 82q-5 8 -13 16q-20 38 -53 70q-124 -45 -191.5 -57.5
t-193.5 -12.5q-310 0 -563 175t-396 484t-143 689q0 298 80.5 544t229.5 420.5t361 268.5t468 94q305 0 547 -167t376 -468t134 -684q0 -233 -58.5 -462.5t-154.5 -372.5q-83 -120 -242 -279zM1712 631q139 284 139 848q0 493 -122 778q-70 163 -219 261.5t-318 98.5
q-332 0 -502 -295.5t-170 -871.5q0 -291 38 -486t126 -358q85 -157 222 -246.5t294 -89.5q87 0 133 10.5t125 47.5q-51 99 -138 160t-177 61q-21 0 -45 -4l139 172q150 -47 356 -209l21 -16l9 9l7 7q1 1 41 57l12 13q-79 79 -151 121t-201 87l29 45q186 -71 328 -184z
M1876 2634q138 -58 251 -171t191 -266t121 -344.5t43 -402.5q0 -634 -373 -1094q115 -101 353 -118v-13q-74 -12 -103 -12q-188 0 -331 131q191 197 294 485.5t103 628.5q0 397 -133 679t-416 484v13zM2720 119q-157 -201 -307 -479l-13 -21l-49 25q75 143 156 262l164 241z
" />
    <glyph glyph-name="r" unicode="r" horiz-adv-x="2601" 
d="M176 2490q205 118 346 174.5t289.5 78.5t384.5 22q281 0 503 -84t347 -235t125 -337q0 -152 -81 -285t-234.5 -232t-356.5 -150q138 -380 377 -744t471 -551l-29 -8q-290 -99 -585 -291l-29 -16l-8 62q-88 519 -234 966q-80 241 -127 348l-8 21q-150 -72 -369 -103
l-16 -4v-749l352 -373h-1032l-33 53h951l-287 307v807l37 4q235 28 385 91l-45 114q-149 -42 -226 -49l-262 -33v-893l226 -237h-881l258 237v672q-28 -6 -71.5 -15.5t-51.5 -13.5q-24 -8 -49 -17.5t-53 -14.5l-17 -4l-16 41q105 38 135 45l123 28v107q-120 -5 -295 -53
l-20 -9q0 8 2 16t2 9q0 10 37 106v-1q3 0 28 92q0 8 4 16q42 -3 61.5 -4t36.5 -2.5t42 -1.5q20 0 102 8l-4 983q-96 60 -188 94zM782 2540v-1078h17q29 0 94 13v983q110 28 262 28q208 0 331.5 -59.5t196.5 -194.5q-146 120 -257.5 164.5t-270.5 44.5q-115 0 -213 -24v-942
h21q405 74 591.5 231t186.5 424q0 136 -80.5 248.5t-219.5 177.5t-306 65q-208 0 -353 -81zM1749 1339q43 -138 121.5 -298t182.5 -315t212 -275q182 -201 434 -357q-253 -68 -448.5 -152.5t-411.5 -220.5l-16 -12l-41 33q381 248 815 369q-218 144 -371 314.5t-317 446.5
q-88 155 -119 221.5t-98 241.5l-17 33q139 54 216.5 94.5t144.5 98.5q254 204 254 532q0 183 -160 414q205 -181 205 -492q0 -209 -154 -386t-432 -290z" />
    <glyph glyph-name="s" unicode="s" horiz-adv-x="2273" 
d="M1958 2707q-111 -152 -164 -290q-127 -312 -164 -369q-2 0 -8 -12q-8 24 -12 32q-71 228 -121.5 305.5t-181.5 153.5q-141 86 -295 86q-227 0 -371.5 -114.5t-144.5 -298.5q0 -174 123 -286t385 -177l335 -78q252 -61 397.5 -155t233.5 -251q90 -154 90 -356
q0 -222 -113.5 -399.5t-317 -276t-462.5 -98.5q-210 0 -475 70l-229 57q-155 33 -225 33q-135 0 -263 -78l-16 28q100 152 206 366.5t142 346.5l37 -12q27 -207 130.5 -356t275 -226.5t397.5 -77.5q168 0 301 54.5t207 154t74 226.5q0 304 -267 450q-103 60 -221.5 95.5
t-380.5 84.5q-263 53 -404.5 133t-222.5 224q-90 167 -90 364q0 322 230 517.5t610 195.5q223 0 524 -86q142 -37 217 -37q93 0 213 66zM2085 2626l-21 -33q-62 -101 -139 -262q-167 -343 -168 -344l-49 20l176 360l148 283zM1499 2224q-221 234 -471 234q-152 0 -252 -88
t-100 -224q0 -86 42.5 -150t158.5 -153l16 -12l-8 -12q-267 114 -267 340q0 156 113 254t293 98q171 0 300.5 -73.5t186.5 -205.5zM1958 1430q274 -207 274 -566q0 -249 -135.5 -458t-370 -330t-514.5 -121q-200 0 -389 41l-319 82q-111 24 -238 24q-114 0 -209 -45l-24 62
q100 45 213 45q111 0 270 -37l307 -74q180 -41 389 -41q256 0 479 116t353.5 313t130.5 427q0 320 -217 549v13zM532 856q40 -190 134 -310t264 -202v-16q-196 58 -301.5 178.5t-149.5 337.5zM287 1503l65 -37q40 -70 118.5 -109t270.5 -87l320 -82q235 -58 344 -98
t163 -89.5t87 -132.5l-17 -8q-87 106 -189.5 152t-408.5 118q-336 79 -478 129t-206 117q-56 61 -69 127z" />
    <glyph glyph-name="t" unicode="t" horiz-adv-x="2372" 
d="M2314 2732l-160 -291l-135 -327l-20 16l-4 24q-59 230 -166.5 318t-329.5 88q-54 0 -176 -8l-25 -4v-2167l234 -217h-914l283 233v1991h-131q-220 0 -306.5 -77.5t-103.5 -287.5h-53q26 241 125 329.5t342 88.5h127v99q-117 12 -196 12q-173 0 -280 -45.5t-158.5 -147.5
t-57.5 -270h-25q-52 173 -105 296t-161 327l-12 20h2408zM2441 2605q-82 -103 -142.5 -225t-148.5 -361l-8 -20l-45 41l8 16q160 445 295 586zM1905 2294q-149 98 -357 98q-57 0 -98 -4l8 -2011l316 -377h-1020l-45 53h954l-266 307v2085h110q195 0 275.5 -30t122.5 -121z
" />
    <glyph glyph-name="u" unicode="u" horiz-adv-x="2486" 
d="M2376 2732l-357 -287v-1294q0 -317 -15.5 -457t-61.5 -239q-152 -328 -705 -328q-293 0 -496.5 87t-289.5 249q-63 116 -89 273.5t-26 422.5v1327l-270 246h946l-275 -266v-1618q0 -201 54.5 -320t174 -172t320.5 -53q175 0 300.5 64t170.5 174q78 205 78 610v1294
l-311 287h852zM2445 2593l-274 -221v-1246q0 -521 -53 -696q-49 -150 -160 -257t-276.5 -162.5t-370.5 -55.5q-232 0 -429 65t-313 181l17 -8l69 -41q116 -66 279.5 -105t322.5 -39q667 0 799 438q62 212 62 664v1282l295 246zM1094 2626l-197 -201v-1622
q0 -144 47.5 -232.5t185.5 -205.5l5 -21q-166 67 -230.5 198t-64.5 404v1499l225 221z" />
    <glyph glyph-name="v" unicode="v" horiz-adv-x="2540" 
d="M2753 3363l20 -21q-178 -172 -302.5 -346.5t-244 -428t-276.5 -666.5l-582 -1528l234 -209h-922l266 217l-733 2085l-307 266h991l-283 -283l664 -1880l74 185l-590 1667l205 200l37 -36l-177 -177l553 -1581l426 1131q189 504 189 704q0 207 -152 353l41 8
q355 68 610 188q169 80 259 152zM2863 3240l16 -45q-243 -194 -479 -647q-91 -173 -138.5 -283.5t-168.5 -429.5l-565 -1470l311 -365h-1032l-45 53h958l-250 295l680 1782q135 353 337 667t376 443z" />
    <glyph glyph-name="w" unicode="w" horiz-adv-x="3236" 
d="M3461 3416q-130 -141 -196 -232t-152 -239q-108 -191 -193 -430.5t-213 -712.5l-348 -1261l41 -156l246 -221h-909l262 221l-357 1282l-344 -1253l344 -414h-1019l-41 53h950l-299 348l381 1368l-70 238l-409 -1499l32 -123l234 -221h-914l275 221l-586 2093l-299 254
h979l-274 -254l458 -1647l70 242l-385 1376l180 160l45 -33l-164 -143l349 -1262l430 1561h188l516 -1884l66 225l-459 1659h57l426 -1561l189 676q176 631 176 828q0 118 -44.5 195.5t-152.5 144.5q227 69 497 198.5t404 231.5zM3580 3265q-306 -337 -512 -873
q-52 -136 -83 -235t-118 -416l-352 -1295l381 -446h-1024l-49 53h954l-323 373l364 1343q71 257 135.5 456t125.5 340t140 282q80 146 138.5 229t177.5 221z" />
    <glyph glyph-name="x" unicode="x" horiz-adv-x="2859" 
d="M2552 2732l-438 -291l-639 -815l729 -1200l348 -262h-1032l254 246l-455 745l-565 -729l327 -426h-1093l-29 53h1016l-283 373l598 778l-57 86l-651 -827l241 -299h-917l467 299l774 983l-623 1016l-381 270h1057l-262 -229l446 -729l70 94l-373 594l222 213l36 -33
l-192 -180l340 -553l434 553l-250 270h881zM2626 2580l-394 -233l-565 -733l688 -1139l492 -475h-1241l-37 53h1147l-406 393l-704 1168l589 770l398 233z" />
    <glyph glyph-name="y" unicode="y" horiz-adv-x="2626" 
d="M2879 3437l13 -17l-21 -24q-255 -264 -401 -463q-59 -80 -189 -291q-70 -114 -95.5 -156.5l-31.5 -52.5l-745 -1188v-815l291 -266h-975l291 266v815l-479 733l-107 168q-142 224 -237 331t-263 235l-24 20h1012l-250 -258l667 -1008l62 103l-590 905l209 197l41 -29
l-185 -168l553 -856l451 709q114 184 153 273.5t39 172.5q0 140 -167 303q141 33 340 94q343 104 614 250zM2970 3314v-82l-21 -21q-130 -124 -182 -183t-141 -185q-142 -196 -324 -488l-725 -1138v-787l356 -430h-1253l-21 53h1168l-303 377v799l852 1347q187 306 389 533
q125 136 205 205z" />
    <glyph glyph-name="z" unicode="z" horiz-adv-x="2626" 
d="M2265 2732l-1601 -2400h122l1573 2355l37 -49l-1540 -2306l438 4q178 0 325.5 68t227.5 182q82 118 144 250q166 -438 356 -672h-2277l1482 2228h-41q-69 4 -258 4q-275 0 -398.5 -34.5t-195.5 -133.5q-69 -99 -106 -233l-41 45q29 123 100 216t170 136q128 53 467 53
q226 0 307 -4l29 -4l78 115q-173 12 -274 12q-278 0 -420.5 -13t-227.5 -48t-163 -107q-106 -95 -172 -278l-17 32q-108 251 -283 557l-12 25h2171zM2560 180l-106 -180h-2282l-41 53h2294l69 127q-127 154 -207 295.5t-153 339.5l70 -24q60 -181 129 -300.5t211 -289.5z
" />
    <glyph glyph-name="braceleft" unicode="{" horiz-adv-x="1802" 
d="M1335 3056v-164q-184 -6 -297 -58t-164 -159.5t-51 -286.5q0 -70 21 -143l57 -172q29 -80 29 -164q0 -348 -484 -426v-17q76 -8 156 -32q438 91 438 421q0 66 -32 164l-54 172q-24 61 -24 140q0 267 117 380.5t399 122.5v168l53 -28v-168q-187 -6 -299 -57.5t-162.5 -159
t-50.5 -287.5q0 -73 21 -139l57 -172q29 -105 29 -164q0 -310 -459 -402q303 -116 303 -413q0 -94 -29 -185l-53 -192q-25 -97 -25 -180q0 -192 69 -317.5t198 -166.5q-156 124 -156 426q0 88 25 185l53 192q29 127 29 176q0 220 -177 357q126 -73 178 -159.5t52 -221.5
q0 -90 -29 -181l-53 -192q-25 -103 -25 -180q0 -284 144 -410q78 -16 196 -16v-168q-16 4 -28 4q-41 4 -222 4q-244 3 -374.5 49.5t-202.5 155.5q-119 183 -119 434q0 88 16 172t74 299q33 135 33 213q0 85 -45 160q-99 12 -148 12q-45 0 -90 -4l-24 49q57 4 114 4
q54 0 95 -4q-54 39 -106.5 53.5t-172.5 20.5v147q377 25 377 279q0 58 -33 176l-65 209q-25 84 -25 184q0 224 83 387.5t224 214.5q139 54 394 54h200v0l15 2q16 2 30 2zM1499 -152v-204q-561 13 -831 82v12q204 -30 622 -37l156 -4v201z" />
    <glyph glyph-name="bar" unicode="|" 
d="M872 2728h304v-3412h-304v3412z" />
    <glyph glyph-name="braceright" unicode="}" horiz-adv-x="1802" 
d="M1524 1561v-148q-204 -9 -292.5 -77.5t-88.5 -209.5q0 -94 33 -208q90 -345 90 -472q0 -197 -77 -351.5t-206 -209.5q-127 -59 -426 -69q-193 -6 -258 -9v164q281 3 398.5 119.5t117.5 388.5q0 90 -29 180l-53 189q-28 114 -28 180q0 290 303 410q-89 39 -160 114
q132 -68 225 -90q85 14 135 17v16q-495 78 -495 426q0 67 32 160l58 172q20 68 20 139q0 151 -61 283q-59 50 -133.5 69t-231.5 25l-28 53q140 -3 209 -17.5t139 -56.5q-40 53 -90 83t-126 43t-202 18v164q23 0 53 -2t37 -2h160q254 -3 377.5 -41t199.5 -140
q140 -174 140 -471q0 -85 -25 -180q-14 -56 -65 -209q-33 -96 -33 -172q0 -255 381 -278zM340 -303q33 4 74 4v0l73 2q75 2 152 2q260 6 387 50.5t203 154.5q119 177 119 426q0 94 -15 173t-76 298q-32 138 -32 213q0 141 90.5 207.5t294.5 75.5v184l53 -57v-181
q-202 -9 -291.5 -76.5t-89.5 -209.5q0 -99 33 -213q90 -328 90 -467q0 -196 -78 -351.5t-205 -214.5q-141 -60 -426 -65l-299 -8zM1327 1622q-59 47 -80.5 82.5t-21.5 93.5q0 54 32 160q67 204 81 265t14 157q0 118 -29 206.5t-115 231.5q197 -179 197 -528q0 -123 -90 -389
q-33 -91 -33 -160q0 -34 45 -119z" />
    <glyph glyph-name="asciitilde" unicode="~" horiz-adv-x="2732" 
d="M2130 1528l74 -45q-96 -187 -248 -304.5t-301 -117.5q-82 0 -234 49q-94 29 -118 41q-242 78 -349 78q-94 0 -158 -35t-157 -137q-15 -24 -33 -41l-74 45q243 426 541 426q113 0 369 -86q221 -78 315 -78q203 0 373 205z" />
    <glyph glyph-name="exclamdown" unicode="&#xa1;" horiz-adv-x="1270" 
d="M492 1343h65v-36q0 -355 127 -754q101 -336 279 -549q-192 -88 -283.5 -187.5t-167.5 -308.5q-52 218 -138.5 331t-262.5 194l20 33q136 213 204 383.5t107 390.5q38 203 50 475v28zM1163 -98l-37 -21q-179 -89 -278 -184t-189 -262l-65 -29q49 166 154.5 280t316.5 232
q-168 235 -270.5 584t-102.5 682v16h58v-20q23 -448 143 -795q44 -122 93 -211.5t157 -243.5zM524 2130q109 0 185.5 -75.5t76.5 -186.5q0 -108 -77 -183t-185 -75q-106 0 -182 76t-76 182q0 107 76 184.5t182 77.5zM852 2044q68 -62 89.5 -111t21.5 -143
q0 -135 -101.5 -237.5t-234.5 -102.5q-101 0 -152.5 23t-109.5 96l12 12q82 -46 124.5 -60t108.5 -14q129 0 216 87t87 216q0 98 -77 218z" />
    <glyph glyph-name="cent" unicode="&#xa2;" horiz-adv-x="2404" 
d="M1081 2675h152v-267q52 0 123 -16v213l49 -41v-184q56 -16 164 -62q114 -49 172 -49q75 0 123 53l20 -12q-174 -276 -262 -553h-20q-4 128 -53 237.5t-131.5 179t-184.5 87.5v-1602h29q57 0 94 13v1462q48 -9 119 -90v-25l-70 37v-1372q101 37 178 149t92 244l8 74
q13 66 62 66q70 0 70 -99q0 -177 -89 -325t-227 -207q-96 -43 -266 -62v-323h-152v205l-32 12q-142 49 -226 114l-12 33q123 -77 270 -110v77q-208 33 -358.5 155.5t-231.5 322.5t-81 456q0 240 86.5 445.5t239 337t345.5 159.5v267zM1081 2093q-85 -58 -132.5 -207.5
t-47.5 -353.5q0 -196 27 -340t96 -320l16 -36v-17q-109 162 -148.5 307.5t-39.5 376.5q0 259 54.5 416.5t174.5 234.5v103q-331 -105 -331 -750q0 -430 147 -647q61 -92 184 -160v1393zM1999 2232l-131 -241l-135 -295l-50 28q59 136 132 279q91 189 131 262zM1954 1122v-16
q0 -179 -66 -325.5t-190.5 -244.5t-292.5 -135v-348h-217l-41 49h209v349q157 22 279.5 111.5t191.5 229.5t69 306v57z" />
    <glyph glyph-name="sterling" unicode="&#xa3;" horiz-adv-x="2458" 
d="M676 442l-29 -32q-177 118 -299 118q-62 0 -102.5 -32t-40.5 -78q0 -38 33 -94l-33 -13q-41 51 -41 111q0 64 52.5 105.5t135.5 41.5q76 0 167.5 -35.5t156.5 -91.5zM2310 1077q53 -193 53 -389q0 -286 -158.5 -436t-459.5 -150q-146 0 -313 45.5t-314 126.5
q-69 37 -200 132q-141 -146 -274 -212.5t-284 -66.5q-166 0 -283.5 98t-117.5 234q0 170 148 277.5t380 107.5q142 0 336 -70l33 -12q0 21 2 42t2 32q0 209 -151 401h-476l-81 233h450q-143 243 -143 525q0 174 63 317t182 247t280 159t359 55q234 0 421 -79.5t312 -233
t181 -371.5l-500 -107q4 21 4 37q0 270 -131.5 428t-355.5 158q-196 0 -319.5 -96.5t-123.5 -251.5q0 -168 115 -455l135 -332h508l82 -233h-532q8 -41 8 -94q0 -259 -82 -447l90 -45q78 156 78 324l4 172h565l-110 323l65 -32l115 -344h-582v-50q0 -219 -86 -417
q232 -140 496 -140q200 0 317 108.5t117 289.5q0 84 -29 192h205zM754 516q-210 139 -381 139q-137 0 -214 -58t-77 -159q0 -77 70.5 -126.5t179.5 -49.5q134 0 247.5 67.5t174.5 186.5zM2482 983l4 -29q25 -187 25 -290q0 -341 -204 -523t-583 -182q-194 0 -347.5 47.5
t-418.5 190.5l-28 12q-272 -229 -520 -229q-292 0 -410 266h12q164 -217 402 -217q126 0 270 70.5t234 179.5q456 -267 839 -267q335 0 518 170t183 482q0 152 -33 348zM283 1094l-21 53h475l17 -53h-471zM1683 2281q-172 185 -376 185q-303 0 -303 -250q0 -137 90 -365
q29 -68 66.5 -163t39.5 -99q3 -9 21 -65l-37 -13q-124 285 -179 453t-55 260q0 133 94 214t246 81q296 0 406 -238h-13zM1806 1847v54l553 106q-41 340 -417 627q156 -55 307 -254q121 -156 176 -410z" />
    <glyph glyph-name="fraction" unicode="&#x2044;" horiz-adv-x="508" 
d="M1155 2773l-1585 -2621h-188l1585 2621h188zM-582 33h213l1618 2683l37 -41l-1626 -2695h-221z" />
    <glyph glyph-name="yen" unicode="&#xa5;" horiz-adv-x="2458" 
d="M2548 2732l-467 -266l-525 -869h123l500 795l426 258l29 -57l-430 -254l-463 -742h102l86 -233h-516l-82 -139v-115h115v115l37 53h573l-86 254l62 -29l102 -278h-618l-13 -21v-94h340l86 -225h-598v-459l291 -246h-971l279 246v315h-398l-16 50h414v94h-496l-78 225h574
v115h-414l-16 53h409l-57 86h-418l-94 233h365l-480 746q-60 95 -181 213.5t-220 175.5h1007l-241 -266l667 -1000l58 103l-590 897l180 196l37 -32l-151 -164l557 -844l532 844l-258 266h926zM2134 741h-631v-315l340 -426h-1102l-20 53h1024l-299 373v365h627l-86 253
l49 -36z" />
    <glyph glyph-name="florin" unicode="&#x192;" horiz-adv-x="2458" 
d="M1642 1970l87 -233h-537l-258 -1348q-46 -232 -53 -262q-27 -141 -111 -303q-78 -138 -205 -234q-195 -143 -450 -143q-204 0 -400 91t-328.5 243t-160.5 325q83 29 242 119l225 131q-17 -139 -17 -184q0 -224 115 -374t287 -150q124 0 211.5 72.5t151 235.5t116.5 437
l262 1344h-368l-78 233h491q67 302 209.5 535t339 359t418.5 126q152 0 295.5 -58t246.5 -159t146 -229q-176 -74 -352 -213q-62 495 -381 495q-136 0 -248.5 -101t-189.5 -291.5t-115 -463.5h127q38 265 110 451q53 145 142.5 224t197.5 79q88 0 169.5 -71.5t117.5 -178.5
l-24 25l-66 73q-36 44 -96 73.5t-109 29.5q-179 0 -282 -275q-83 -226 -107 -430h229zM1806 1937l119 -344h-590l-241 -1245q-56 -283 -86 -383.5t-99 -222.5q-100 -167 -237 -258q-221 -152 -553 -152q-111 0 -242 32.5t-205 78.5l13 25q128 -56 216 -75.5t218 -19.5
q531 0 753 406q65 124 92 216.5t80 360.5l250 1295h561l-110 319zM2519 2732q139 -94 229 -258q-360 -140 -507 -283l-17 45q167 155 459 258q-63 123 -164 213v25zM-123 299q-24 -94 -24 -184q0 -127 57.5 -243.5t142.5 -162.5v-28q-254 130 -254 434q0 109 37 192z
M483 1651h275v-58h-258z" />
    <glyph glyph-name="section" unicode="&#xa7;" horiz-adv-x="2236" 
d="M1843 3052l21 -9q-92 -122 -140 -241q-98 -234 -122 -283q-11 -9 -25 -33q-7 22 -10 33.5t-6 20.5q-65 218 -182.5 315.5t-317.5 97.5q-191 0 -317 -101t-126 -259q0 -99 40.5 -166t140.5 -133q-53 56 -71.5 100.5t-18.5 116.5q0 154 111.5 249t289.5 95q256 0 356 -164
l-16 -8q-153 123 -332 123q-102 0 -183.5 -39t-127 -108.5t-45.5 -159.5q0 -103 77 -187t210 -125q388 -115 553 -200q348 -166 348 -525q0 -175 -112.5 -308t-321.5 -204q327 -179 327 -524q0 -196 -101.5 -347t-287 -234t-426.5 -83q-198 0 -389 58l-164 49
q-94 29 -156 29q-108 0 -225 -66l-12 25q202 295 295 589l33 -8q47 -418 434 -516q-139 74 -209 175t-107 280l54 12q33 -150 101 -260.5t164 -168.5t210 -58q228 0 374 119t146 303q0 96 -117 168.5t-432 171.5q-545 169 -659 294q-48 58 -62 132l66 -41q31 -70 108.5 -117
t259.5 -109l312 -106q351 -115 475 -209q-62 97 -119 144t-178.5 94t-394.5 131q-355 109 -495 244t-140 370q0 187 129.5 318.5t341.5 164.5q-115 44 -195 118t-121 176.5t-41 225.5q0 286 208.5 444.5t590.5 158.5q168 0 389 -70q103 -33 156 -33q86 0 184 58zM889 1896
q-220 -30 -319 -112t-99 -232q0 -107 59.5 -182t190.5 -133q-152 116 -152 279q0 265 377 290l180 -37l25 -32q-130 20 -201 20q-139 0 -231 -71t-92 -179q0 -104 49.5 -175.5t164.5 -129.5t322 -117l107 -28q184 28 288.5 119t104.5 225q0 209 -233 319q-118 54 -406 135
q-13 5 -59.5 19t-75.5 22zM1774 885q270 -172 270 -471q0 -237 -124.5 -422t-348.5 -287t-514 -102q-164 0 -303 37l-230 61q-88 20 -172 20q-86 0 -155 -45l-25 58q80 45 184 45q83 0 185 -29l225 -57q139 -37 291 -37q265 0 477.5 96.5t332.5 270.5t120 391
q0 269 -226 463l-53 32q187 114 288 262t101 308q0 275 -254 458v9q311 -171 311 -467q0 -360 -380 -594zM2007 2978q-21 -33 -135 -250q-103 -197 -152 -320l-49 21q43 124 160 336q8 18 36.5 72t78.5 153l8 16z" />
    <glyph glyph-name="currency" unicode="&#x20ac;" horiz-adv-x="2404" 
d="M1552 1634l-32 21q-186 106 -353 106q-389 0 -389 -487q0 -345 189 -455l-17 -20q-129 67 -181 175t-52 308q0 533 446 533q124 0 228.5 -49t160.5 -132zM659 696l-327 -331l-176 176l307 311q-172 201 -172 487q0 283 143 476l-295 294l176 181l308 -312q72 40 102 54
l-205 204l66 17l196 -201q182 57 344 57q262 0 471 -127l291 291l176 -176l-290 -291q147 -220 147 -479q0 -290 -156 -491l303 -299l-180 -177l-192 193q-136 -86 -227 -110.5t-273 -24.5q-136 0 -230.5 23.5t-232.5 90.5l-266 -266l-66 17l304 299l12 -13l37 -12
q220 -82 430 -82q148 0 239 24t228 99l-78 78q-210 -103 -438 -103q-248 0 -476 123zM1614 1380q0 283 -120 420t-368 137q-540 0 -540 -618q0 -578 528 -578q259 0 393 185q107 162 107 454zM1958 807l299 -299l-180 -180h-66l176 176l-299 299q101 128 140.5 244.5
t39.5 279.5q0 255 -53 340l-78 119l-8 24l258 258l-176 177h66l184 -185l-262 -262q123 -167 123 -467q0 -171 -29.5 -267.5t-134.5 -256.5z" />
    <glyph glyph-name="quotesingle" unicode="'" horiz-adv-x="786" 
d="M487 2732l-135 -807h-155l-62 807h352zM324 1774l-70 41h192l156 835l49 -24l-155 -852h-172z" />
    <glyph glyph-name="quotedblleft" unicode="&#x201c;" horiz-adv-x="1696" 
d="M328 1704l-37 41q165 109 327 164l41 12l-8 -4q-143 149 -143 340q0 96 55.5 178.5t198.5 198.5l20 16l45 -45l-24 -16q-126 -98 -178 -174t-52 -158q0 -100 40.5 -179.5t140.5 -176.5q-151 -47 -221.5 -80.5t-204.5 -116.5zM131 1782q-61 137 -61 291t69 284.5
t201 229.5t319 157l17 -28l-21 -17q-76 -65 -119.5 -125t-64 -129t-20.5 -159q0 -171 106 -295q-17 -9 -24 -11.5t-13 -5.5q-221 -79 -389 -192zM1122 1704l-41 41q172 109 332 164l37 12l-8 -4q-144 157 -144 340q0 94 58 178t200 199l21 16l41 -45l-21 -16
q-127 -99 -180 -174t-53 -158q0 -99 41.5 -178t142.5 -178q-151 -47 -226 -82.5t-200 -114.5zM922 1782q-36 86 -47 140.5t-11 150.5q0 232 153.5 407t436.5 264l16 -28l-20 -17q-111 -92 -158 -185.5t-47 -227.5q0 -176 107 -295q-16 -8 -23.5 -11t-13.5 -6
q-230 -82 -393 -192z" />
    <glyph glyph-name="guillemotleft" unicode="&#xab;" horiz-adv-x="1237" 
d="M483 1352l336 557h172l-217 -557l217 -549h-188zM881 1274l221 541l41 -54l-197 -479l250 -631h-258l-61 49h233zM70 1352l331 557h172l-217 -557l217 -549h-188zM467 1274l315 -623h-258l-61 49h229z" />
    <glyph glyph-name="guilsinglleft" unicode="&#x2039;" horiz-adv-x="823" 
d="M70 1352l331 557h172l-217 -557l217 -549h-188zM467 1274l221 541l41 -54l-197 -479l250 -631h-258l-61 49h229z" />
    <glyph glyph-name="guilsinglright" unicode="&#x203a;" horiz-adv-x="844" 
d="M602 1339l-323 -544h-189l217 577l-217 533h189zM766 1303l-385 -656h-201l-24 58h192l357 598l-316 557l94 -70z" />
    <glyph glyph-name="fi" unicode="&#xfb01;" horiz-adv-x="3502" 
d="M127 2732h2077q-124 -161 -174 -250.5t-142 -310.5l-12 -41q-87 177 -168 268t-189 126.5t-290 35.5h-361h-73v-930h123v824l57 4q78 4 229 4q251 0 370.5 -46.5t174.5 -166.5q-92 94 -209.5 126.5t-355.5 32.5q-111 0 -217 -8v-770h303l319 336v-836l-336 332h-458
v-1011l258 -258h-983l327 258v864q-156 -5 -270 -119l-37 41q112 131 291 131h16v94q-14 0 -33 2t-28 2q-187 0 -320 -151l-16 28q49 137 142 204.5t255 82.5v844zM2355 2609q-288 -334 -360 -614l-41 28q34 144 131 310t233 309zM1737 1896v-864l-54 29v864zM1376 1290
h-409v-856l352 -434h-1159l-49 53h1097l-290 361v929h401zM2253 2732h950l-270 -274v-2081l254 -213h-934l278 229v2089zM3293 2617l-205 -200v-2040l336 -377h-1040l-49 53h970l-274 303v2077l225 225z" />
    <glyph glyph-name="fl" unicode="&#xfb02;" horiz-adv-x="4596" 
d="M127 2732h2077q-124 -161 -174 -250.5t-142 -310.5l-12 -41q-87 177 -168 268t-189 126.5t-290 35.5h-361h-73v-930h123v824l57 4q78 4 229 4q251 0 370.5 -46.5t174.5 -166.5q-92 94 -209.5 126.5t-355.5 32.5q-111 0 -217 -8v-770h303l319 336v-836l-336 332h-458
v-1011l258 -258h-983l327 258v864q-156 -5 -270 -119l-37 41q112 131 291 131h16v94q-14 0 -33 2t-28 2q-187 0 -320 -151l-16 28q49 137 142 204.5t255 82.5v844zM2355 2609q-288 -334 -360 -614l-41 28q34 144 131 310t233 309zM1737 1896v-864l-54 29v864zM1376 1290
h-409v-856l352 -434h-1159l-49 53h1097l-290 361v929h401zM2281 2732h955l-283 -274v-2139l107 -8v2126l217 217l28 -45l-192 -196v-2102q148 -8 168 -8q216 0 357 61t224 194t119 351q75 -205 168 -401q90 -176 121.5 -224.5t99.5 -119.5h-2089l275 225v2089zM4563 180
l-86 -180h-2089l-49 53h2113l58 127q-221 271 -348 602l-9 21l62 -25l16 -33q125 -283 320 -544z" />
    <glyph glyph-name="emdash" unicode="&#x2013;" horiz-adv-x="2105" 
d="M1819 1544l86 -237h-1823l-82 237h1819zM2105 1163h-1892l-41 54h1860l-95 274l66 -45z" />
    <glyph glyph-name="dagger" unicode="&#x2020;" horiz-adv-x="2408" 
d="M651 3056h951l-267 -271v-692h119v668l225 221l37 -41l-205 -201v-647h295l324 336v-836l-340 332h-455v-1831l254 -270h-979l324 270v1659h-393l-275 -274l-49 37l311 290h406v119h-459l-336 -332v836l320 -336h475v705zM2273 2359v-864l-53 29v864zM1917 1753h-414
v-1675l352 -434h-1130l-49 53h1069l-291 360v1749h401z" />
    <glyph glyph-name="daggerdbl" unicode="&#x2021;" horiz-adv-x="2408" 
d="M1454 1409v619h401l62 -54h-414v-565h303l324 324v-836l-340 344h-455v-1147l254 -270h-979l324 270v979h-393l-275 -291l-49 41l311 303h406v115h-459l-336 -344v836l320 -324h475v565h-393l-275 -278l-49 41l311 291h406v114h-459l-336 -332v836l320 -336h475v488
l-283 258h951l-267 -271v-475h119v451l225 221l37 -41l-205 -201v-430h295l324 336v-836l-340 332h-455v-733h119zM2273 2576v-864l-53 33v864zM2273 1638v-839l-53 32v836zM1917 1073h-414v-995l352 -434h-1130l-49 53h1069l-291 360v1069h401z" />
    <glyph glyph-name="periodcentered" unicode="&#xb7;" horiz-adv-x="1094" 
d="M459 1593q108 0 185 -75t77 -183q0 -106 -78 -184t-184 -78t-182 77.5t-76 184.5q0 108 75 183t183 75zM786 1511q66 -62 88.5 -113.5t22.5 -144.5q0 -135 -100.5 -237.5t-235.5 -102.5q-98 0 -150.5 24t-111.5 95l12 17q77 -47 122.5 -62.5t111.5 -15.5q129 0 216 89
t87 218q0 106 -78 217z" />
    <glyph glyph-name="paragraph" unicode="&#xb6;" horiz-adv-x="2601" 
d="M995 -205v1721h-37q-225 3 -339.5 33t-233.5 114v53q124 -79 221.5 -104.5t298.5 -34.5l90 -4v106q-303 3 -469 57.5t-276 188.5q-156 192 -156 479q0 265 152.5 436.5t412.5 198.5q104 11 279 17q25 4 57 4h1508q-19 -25 -25 -37q-133 -171 -135 -176q-30 -53 -52 -89.5
t-55 -95.5q-2 -9 -13 -29t-15 -28l-21 16q-48 138 -127 202.5t-205 64.5q-11 0 -40 -13v-3080h-222v2921h-213v-3085h-315l-45 54h307v3088h266v106h-364v-3084h-234zM2654 2957q-130 -120 -270 -385l-25 -53l-45 37l4 12q164 327 299 430zM2134 2650q-59 70 -127 70
q-25 0 -41 -4v-3085h-315l-45 54h307v3088h49q132 0 172 -123z" />
    <glyph glyph-name="bullet" unicode="&#x2022;" horiz-adv-x="2732" 
d="M1368 1962q113 0 216 -44t179.5 -121t121 -183t44.5 -221q0 -154 -76 -287t-204.5 -210t-280.5 -77t-282.5 76.5t-206.5 209t-76 288.5q0 153 76 285t206.5 208t282.5 76z" />
    <glyph glyph-name="quotesinglbase" unicode="&#x201a;" horiz-adv-x="1073" 
d="M618 610q58 -137 58 -291q0 -231 -154 -406t-436 -265l-16 24l20 21q74 60 118.5 120.5t65.5 132t21 160.5q0 171 -107 295q38 11 38 13h-1q222 82 393 196zM815 549q33 -117 33 -221q0 -136 -45 -266t-132.5 -238t-199.5 -176q-125 -81 -283 -140l-28 54l37 16
q307 120 434 287q164 213 164 450q0 97 -37 263z" />
    <glyph glyph-name="quotedblbase" unicode="&#x201e;" horiz-adv-x="1679" 
d="M1397 610q61 -147 61 -291q0 -152 -70 -283t-202.5 -230.5t-321.5 -161.5l-16 28l20 21q112 94 160.5 188t48.5 225q0 165 -110 295q7 2 13 4.5t16 5.5t12 3q237 89 389 196zM1593 549q33 -112 33 -221q0 -208 -100.5 -390t-272.5 -290q-131 -81 -286 -140l-29 54l37 12
q311 123 438 291q72 98 116 219.5t44 226.5q0 103 -33 267zM618 610q58 -137 58 -291q0 -231 -153.5 -406.5t-436.5 -268.5l-16 28l20 21q113 92 159 185.5t46 227.5q0 171 -107 295q38 11 38 13h-1q237 90 393 196zM815 549q33 -112 33 -221q0 -136 -45 -266t-132.5 -238
t-199.5 -176q-125 -81 -283 -140l-28 54l37 12q317 129 434 291q74 96 119 218.5t45 227.5q0 101 -37 267z" />
    <glyph glyph-name="quotedblright" unicode="&#x201d;" horiz-adv-x="1679" 
d="M1397 2748q61 -147 61 -290q0 -153 -70 -284t-202.5 -230.5t-321.5 -161.5l-16 28l20 21q112 94 160.5 188t48.5 226q0 165 -110 295q12 2 24.5 7t16.5 5q237 89 389 196zM1593 2687q33 -112 33 -221q0 -208 -100.5 -390t-272.5 -290q-131 -82 -286 -139l-29 53l37 12
q311 123 438 291q72 98 116 219.5t44 226.5q0 103 -33 267zM618 2748q58 -137 58 -290q0 -232 -153.5 -407.5t-436.5 -268.5l-16 28l20 21q113 92 159 185.5t46 228.5q0 171 -107 295q11 2 22.5 7t14.5 5q237 90 393 196zM815 2687q33 -112 33 -221q0 -136 -45 -266
t-132.5 -238t-199.5 -176q-125 -81 -283 -139l-28 53l37 12q317 129 434 291q74 96 119 218.5t45 227.5q0 101 -37 267z" />
    <glyph glyph-name="guillemotright" unicode="&#xbb;" horiz-adv-x="1253" 
d="M602 1339l-323 -544h-189l217 577l-217 533h189zM180 647l-24 58h192l62 106l28 -74l-57 -90h-201zM1012 1339l-328 -544h-188l217 577l-217 533h188zM1176 1303l-385 -656h-205l-21 58h189l356 598l-315 557l94 -70z" />
    <glyph glyph-name="ellipsis" unicode="&#x2026;" horiz-adv-x="3277" 
d="M455 651q108 0 185 -75t77 -183q0 -106 -78 -184t-184 -78t-182 77.5t-76 184.5q0 108 75 183t183 75zM782 569q68 -65 89.5 -114.5t21.5 -143.5q0 -135 -100.5 -237.5t-235.5 -102.5q-98 0 -150.5 24t-111.5 95l12 16q127 -77 234 -77q129 0 216 89t87 218
q0 104 -78 217zM1548 651q110 0 184 -74t74 -184q0 -108 -75 -185t-183 -77q-106 0 -182 77.5t-76 184.5q0 108 75 183t183 75zM1876 569q68 -65 89.5 -114.5t21.5 -143.5q0 -135 -102.5 -237.5t-237.5 -102.5q-96 0 -147.5 23.5t-110.5 95.5l12 16q126 -77 233 -77
q129 0 216 89t87 218q0 98 -77 217zM2642 651q108 0 183 -75t75 -183q0 -107 -76 -184.5t-182 -77.5q-70 0 -130.5 35.5t-96 96t-35.5 130.5q0 108 77 183t185 75zM2966 569q68 -65 89 -115t21 -143q0 -135 -100.5 -237.5t-235.5 -102.5q-97 0 -148 23.5t-114 95.5l12 16
q131 -77 238 -77q127 0 215 89t88 218q0 100 -82 217z" />
    <glyph glyph-name="perthousand" unicode="&#x2030;" horiz-adv-x="3846" 
d="M2036 2728l-1430 -2581h-176l1425 2581h181zM2114 2683l32 -57l-1441 -2630h-193l-33 57h197zM750 2503q-54 37 -99 37q-73 0 -113 -36t-57.5 -122.5t-17.5 -243.5q0 -195 31.5 -311.5t103.5 -196.5h-25q-92 71 -125.5 180.5t-33.5 335.5q0 254 45.5 346.5t167.5 92.5
q85 0 135 -82h-12zM1114 2118q0 -328 -131.5 -502t-380.5 -174q-164 0 -284.5 83.5t-184 241.5t-63.5 375q0 306 139.5 489t376.5 183q149 0 270 -90t189.5 -249.5t68.5 -356.5zM864 2114q0 536 -274 536q-142 0 -204 -120.5t-62 -403.5q0 -259 73 -402t205 -143
q126 0 194 139.5t68 393.5zM950 2716h29q141 -88 220 -257.5t79 -377.5q0 -207 -68 -372.5t-188 -259t-268 -93.5q-117 0 -185 45h29q64 -17 107 -17q146 0 266 89.5t189 249t69 354.5q0 199 -68 353t-211 286zM1982 1069q-51 37 -98 37q-170 0 -176 -217l-8 -184v-50
q0 -321 131 -458h-25q-92 77 -125.5 185t-33.5 331q0 176 19 268t65 131t129 39q85 0 135 -82h-13zM2347 684q0 -328 -132 -502t-380 -174t-390 187t-142 514q0 305 139.5 488t376.5 183q149 0 270 -90t189.5 -249.5t68.5 -356.5zM2097 680q0 537 -274 537
q-144 0 -205.5 -121.5t-61.5 -403.5q0 -259 73 -402t206 -143q124 0 193 140.5t69 392.5zM2183 1282h29q142 -92 220.5 -257.5t78.5 -373.5q0 -210 -67.5 -375t-187.5 -259.5t-269 -94.5q-78 0 -107.5 7.5t-77.5 41.5h29q56 -20 111 -20q145 0 265 90t187.5 248t67.5 354
q0 198 -67.5 350t-211.5 289zM3265 1069q-52 37 -99 37q-170 0 -176 -217l-8 -184v-50q0 -321 131 -458h-25q-93 77 -126 184t-33 332q0 176 19 268t65 131t129 39q80 0 135 -82h-12zM3629 684q0 -328 -132 -502t-380 -174t-390 187t-142 514q0 305 139.5 488t376.5 183
q149 0 270 -90t189.5 -249.5t68.5 -356.5zM3379 680q0 537 -274 537q-144 0 -205 -120t-61 -405q0 -259 73 -402t205 -143q124 0 193 140.5t69 392.5zM3465 1282h29q142 -92 220.5 -257.5t78.5 -373.5q0 -210 -67.5 -375t-188.5 -259.5t-272 -94.5q-76 0 -106.5 7.5
t-74.5 41.5h29q56 -20 111 -20q145 0 265 90t187.5 248t67.5 354q0 198 -67.5 350t-211.5 289z" />
    <glyph glyph-name="questiondown" unicode="&#xbf;" horiz-adv-x="1778" 
d="M1147 1573q77 -65 108 -131t31 -168q0 -136 -56.5 -285t-148.5 -256q-66 -77 -221 -237l-82 -90q-84 -90 -117.5 -156t-33.5 -148q0 -70 17 -123.5t65 -146.5l-70 57q-41 68 -53.5 106.5t-12.5 106.5q0 113 54.5 207t195.5 232q149 145 228.5 247.5t128.5 219.5
q57 151 57 307q0 182 -152 270l17 17q59 104 70.5 135.5t11.5 77.5q0 98 -78 217l16 12q66 -59 90.5 -107.5t24.5 -121.5q0 -77 -90 -242zM1405 537q88 -103 117.5 -178t29.5 -195q0 -166 -91 -297.5t-256 -204t-374 -72.5q-327 0 -546 178t-219 445q0 187 91 324.5
t314 289.5l213 144q109 72 185.5 180t76.5 192q0 3 -2 7t-2 6l-4 69v9q0 73 66 73q46 0 82 -65.5t36 -147.5q0 -272 -303 -581q-137 -142 -209 -235.5t-101.5 -172t-29.5 -174.5q0 -172 100.5 -276.5t264.5 -104.5q138 0 239 88t101 211q0 127 -164 225l127 74
q122 74 258 189zM795 2130q107 0 184.5 -76t77.5 -182t-78 -184t-184 -78t-182 77.5t-76 184.5q0 106 76 182t182 76zM897 1450q-106 9 -157 32.5t-105 86.5l12 16q80 -46 117 -58t117 -20zM1556 528q181 -155 181 -426q0 -184 -117 -339.5t-320.5 -245.5t-443.5 -90
q-202 0 -388 84t-321 239l13 25q296 -291 696 -291q353 0 588 190t235 478q0 104 -28 167l-86 189z" />
    <glyph glyph-name="grave" unicode="`" 
d="M791 3527l274 -385h-234l-458 385h418zM1331 3006h-336l-57 50h279l-250 348l86 -17z" />
    <glyph glyph-name="acute" unicode="&#xb4;" 
d="M1589 3527l-487 -398h-213l295 398h405zM975 2961l-45 58h246l491 397l37 -49l-500 -406h-229z" />
    <glyph glyph-name="circumflex" unicode="&#x2c6;" 
d="M909 3277l-237 -283h-176l-37 41h192l230 270l-50 62l-204 -234h-209l336 402h258l344 -402h-320zM1630 2994h-467l-33 41h398l-348 406l77 -17z" />
    <glyph glyph-name="tilde" unicode="&#x2dc;" 
d="M1528 3527q4 -25 4 -54q0 -144 -91 -246t-220 -102q-135 0 -373 119q-138 66 -189 66q-62 0 -102 -42t-49 -114h-143v16q0 161 107 275t257 114q90 0 153 -24.5t224 -122.5q97 -57 151 -57q56 0 91.5 41t35.5 106v25h144zM1642 3469l41 -37v-16q0 -169 -108 -291.5
t-260 -122.5q-101 0 -225 62l24 24q120 -41 193 -41q145 0 230.5 103.5t100.5 294.5zM672 3215v-61q-40 -57 -58 -148h-159l-29 46h156q24 116 90 163z" />
    <glyph glyph-name="macron" unicode="&#xaf;" 
d="M1692 3391v-196h-1495v196h1495zM1806 3281l45 -45v-205h-1552l-37 57h1544v193z" />
    <glyph glyph-name="breve" unicode="&#x2d8;" 
d="M377 3580h143q22 -128 126 -187t308 -59q397 0 426 246h131q5 -12 5 -25q0 -130 -73.5 -230t-207.5 -156t-305 -56q-233 0 -393 127.5t-160 314.5v25zM610 3092l21 29q183 -106 401 -106q158 0 297.5 64.5t214.5 172.5q63 101 86 258l45 -28q-21 -237 -196 -376.5
t-447 -139.5q-260 0 -422 126z" />
    <glyph glyph-name="dotaccent" unicode="&#x2d9;" 
d="M1257 3445q111 -52 111 -197q0 -68 -32.5 -127.5t-88.5 -93t-125 -33.5q-119 0 -188 94v13q90 -66 160 -66q96 0 166.5 66.5t70.5 158.5t-74 185zM1008 3527q80 0 136 -56t56 -137q0 -78 -57 -133t-135 -55q-82 0 -139.5 55.5t-57.5 132.5q0 80 56.5 136.5t140.5 56.5z
" />
    <glyph glyph-name="dieresis" unicode="&#xa8;" 
d="M1290 3527q84 0 140.5 -55.5t56.5 -137.5q0 -78 -57.5 -133t-139.5 -55q-78 0 -135 56t-57 132q0 79 56 136t136 57zM1540 3445q111 -49 111 -197q0 -106 -73 -180t-177 -74q-120 0 -189 94v13q90 -66 164 -66q95 0 166.5 67.5t71.5 157.5q0 84 -74 185zM848 3445
q110 -52 110 -197q0 -108 -70.5 -181t-174.5 -73q-120 0 -189 94v13q90 -66 160 -66q95 0 166.5 67.5t71.5 157.5t-74 185zM598 3527q81 0 137 -56t56 -137q0 -78 -57 -133t-136 -55q-82 0 -139.5 55.5t-57.5 132.5q0 80 56.5 136.5t140.5 56.5z" />
    <glyph glyph-name="ring" unicode="&#x2da;" 
d="M1212 3576q84 -43 134.5 -124t50.5 -175q0 -144 -99 -248t-237 -104q-169 0 -275 118l17 13q111 -95 233 -95q129 0 222.5 93.5t93.5 222.5q0 171 -160 282zM938 3637q120 0 203.5 -83.5t83.5 -202.5q0 -120 -83.5 -203.5t-203.5 -83.5q-119 0 -203 84t-84 203
q0 116 84 201t203 85zM938 3478q-54 0 -92.5 -37.5t-38.5 -89.5q0 -55 39.5 -93.5t91.5 -38.5q55 0 93 38t38 94q0 53 -37 90t-94 37z" />
    <glyph glyph-name="cedilla" unicode="&#xb8;" 
d="M1102 -147q4 0 11 2t9 2q83 0 134 -68t51 -182q0 -175 -107.5 -290.5t-273.5 -115.5q-197 0 -312 197l17 12q104 66 196 139q6 -188 123 -188q56 0 100 77t44 181q0 135 -115 135q-60 0 -98 -61l-37 33q72 192 94 303h205zM1221 -37l45 -45l-21 -70l-49 25zM1315 -201
q135 -108 135 -311q0 -160 -117 -283t-272 -123q-173 0 -262 91v16q111 -66 233 -66q139 0 250 128.5t111 285.5q0 134 -99 250zM950 -360q13 65 90 65v-20q-39 -21 -61 -78zM958 -545l46 -24l-33 -25z" />
    <glyph glyph-name="hungarumlaut" unicode="&#x2dd;" 
d="M1176 3527l-451 -398h-213l258 398h406zM614 2961l-53 58h246l143 123l41 -50l-151 -131h-226zM1737 3527l-455 -398h-213l258 398h410zM1171 2961l-49 58h246l455 397l41 -49l-467 -406h-226z" />
    <glyph glyph-name="ogonek" unicode="&#x2db;" 
d="M1229 37q-157 -95 -277.5 -244.5t-120.5 -251.5q0 -32 24.5 -52.5t62.5 -20.5q118 0 266 200h24q-33 -114 -45 -299v-24q-172 -78 -307 -78q-104 0 -177 78.5t-73 191.5q0 234 357 500h266zM1307 -102l-25 -17q-217 -161 -274 -319l-54 -17q51 192 336 389zM1331 -463
l-41 -299q-126 -69 -246 -69q-111 0 -204 53v16q94 -29 172 -29q132 0 237 86l41 287z" />
    <glyph glyph-name="caron" unicode="&#x2c7;" 
d="M1028 3301l205 234h209l-336 -402h-258l-344 402h319zM1548 3400l-348 -414h-172l-45 49h193l331 410z" />
    <glyph glyph-name="endash" unicode="&#x2014;" horiz-adv-x="2925" 
d="M2515 1544l86 -237h-2396l-82 237h2392zM2802 1163h-2466l-41 54h2433l-94 274l65 -45z" />
    <glyph glyph-name="AE" unicode="&#xc6;" horiz-adv-x="4125" 
d="M3801 2732q-229 -289 -344 -598q-12 18 -12 33q-66 168 -124.5 245t-146 106.5t-245.5 29.5h-570v-889h127v786q90 4 217 4q228 0 350 -16.5t190.5 -60t119.5 -131.5q-6 4 -16 8.5t-13 7.5q-128 89 -241 112t-431 23q-69 0 -122 -4v-729h401l258 360v-917l-279 373h-561
v-1135h127v1032h434l54 -53h-434v-979q143 0 253 -4h58q242 0 396.5 45.5t243 146.5t126.5 271q97 -294 209 -467l77 -107l37 -61h-2289l336 291v450l-238 -295l-20 58l258 319v184l-336 -430q-103 117 -189 230q-94 119 -188 209l-197 -303q-139 -231 -139 -398
q0 -114 46 -189t237 -270l20 -20h-1204l-29 53h1135l-111 111h-1102q177 67 398 274q157 151 377 484q88 128 110 163l201 308q-106 59 -185 77l-61 13l-25 8l205 295l66 -74l135 -127l49 74l-90 98l-94 115l24 53l201 -209l488 746l-308 270h2380zM1237 1212q-44 49 -86 82
l-176 -270q-201 -298 -201 -496q0 -213 234 -327q-123 109 -123 250q0 239 196 528zM1987 2249l-504 -750l286 -315l218 250v815zM1987 2535l-717 -1065l381 -417l82 90l-320 352l574 856v184zM3871 2642l20 -41q-170 -193 -319 -520l-8 -21l-29 33q136 342 336 549z
M3342 1954v-942l-53 28v938zM4166 172l-103 -172h-2285l-25 53h2286l57 103l-8 12q-255 328 -316 594l62 -21l82 -188l131 -225z" />
    <glyph glyph-name="ordfeminine" unicode="&#xaa;" horiz-adv-x="1602" 
d="M274 2372q-66 123 -155 225q93 19 196 65q198 82 373 82q274 0 395 -102t121 -332v-725l99 -139h-324q-162 -156 -361 -156q-106 0 -233 66q100 -37 180 -37q118 0 202.5 39.5t174.5 132.5v168q-80 -91 -142.5 -138t-131 -69t-156.5 -22q-180 0 -297 106.5t-117 269.5
q0 127 59 200t200 112t405 61q112 9 160.5 52t48.5 136q0 77 -33 136q-71 20 -139 20q-139 0 -225 -53.5t-173 -192.5l-41 29q88 139 176 192.5t226 53.5q93 0 164 -33q-82 98 -271 98q-126 0 -211.5 -55t-169.5 -190zM958 2154q-58 -49 -105.5 -64.5t-168.5 -29.5
q-311 -29 -311 -262q0 -108 73 -176q-20 56 -20 102q0 232 311 263q146 15 221 53v114zM954 1978q-81 -22 -176 -32q-311 -25 -311 -267q0 -29 12 -77q58 -25 107 -25q163 0 264 110t104 291zM1507 1298h-409l-58 41h410l-135 193v725q0 126 -24 188.5t-99 134.5
q100 -60 138 -138.5t38 -225.5v-725zM1389 1200v-168h-1291v168h1291zM1503 1090l45 -46v-176h-1347l-37 58h1339v164z" />
    <glyph glyph-name="Lslash" horiz-adv-x="2241" 
d="M1036 2732l-282 -283v-634l106 86v528l217 217l25 -45l-189 -197v-467l410 324v-213l-569 -438v-1291l24 -4h82v1241l565 439v217l50 -29v-209l-562 -438v-1221q91 -8 185 -8q210 0 343 58t214.5 190t126.5 358q97 -276 229 -512q67 -115 156 -237h-2081l270 221v745
l-209 -167l-24 41l233 188v139l-295 -233v209l295 229v934l-270 262h950zM2011 782q148 -344 352 -602l-90 -180h-2085l-45 53h2110l57 127l-24 29q-234 296 -332 598z" />
    <glyph glyph-name="Oslash" unicode="&#xd8;" horiz-adv-x="2560" 
d="M2032 2753l-148 -259q114 -95 204 -270.5t139.5 -400t49.5 -455.5q0 -361 -131.5 -643t-370.5 -438t-542 -156q-364 0 -635 205l-127 -209h-192l192 311q-119 116 -203 272t-127 343.5t-43 400.5q0 295 79 538t228 413.5t358.5 261t469.5 90.5q127 0 273 -44t247 -112
l90 152h189zM1786 2011l-881 -1470q64 -96 152 -168l-21 -21q-126 87 -188 189l921 1556q-11 44 -49 135l-999 -1691q171 -242 487 -242q627 0 627 1131q0 308 -49 581zM1577 2314q-118 99 -307 99q-106 0 -205 -46t-152 -118q-89 -124 -140.5 -356.5t-51.5 -516.5
q0 -270 37 -450zM1630 2392q-70 90 -187.5 143.5t-242.5 53.5q-329 0 -496 -299t-167 -881q0 -489 98 -696l82 139l-8 29q-45 256 -45 491q0 194 23 365t69 310.5t108 229.5q55 81 160 136q107 49 225 49q191 0 348 -123zM2138 2716l41 -45l-106 -177q397 -391 397 -1110
q0 -305 -87.5 -566t-247.5 -448.5t-382 -291t-479 -103.5q-303 0 -590 193l-127 -217h-381l37 57h315l119 205q206 -114 327 -149t300 -35q324 0 585.5 175t409.5 482.5t148 689.5q0 238 -47.5 449t-139.5 383t-219 286z" />
    <glyph glyph-name="OE" unicode="&#x152;" horiz-adv-x="3903" 
d="M3838 0h-2339q-59 0 -133 -16.5t-92 -16.5q-350 0 -639 230v8q257 -180 647 -180q82 0 180 16l58 12l2289 4l70 123q-155 145 -248 274.5t-158 295.5l66 -25q65 -153 137 -253t232 -259l32 -33zM1630 2277q-130 74 -209 100.5t-176 26.5q-528 0 -528 -1036
q0 -759 327 -999l-16 -29q-205 144 -289 376.5t-84 655.5q0 1082 586 1082q265 0 389 -177zM1561 164q-74 -28 -119 -34.5t-164 -6.5q-268 0 -487.5 91t-375.5 263.5t-238.5 416t-82.5 540.5q0 298 77 541.5t223.5 416.5t352.5 264.5t457 91.5q156 0 283 -32h2117l-32 -41
q-124 -150 -187.5 -262.5t-136.5 -311.5q-5 13 -14 33t-15 33q-77 167 -150.5 245.5t-191 107t-346.5 28.5q-54 0 -172 -3q-119 -3 -188 -5v-906h127v799q135 12 291 12q173 0 277.5 -22t174.5 -76t137 -164q-13 8 -24 17.5t-16 11.5q-97 72 -111 86q-71 54 -156 74
q-92 16 -254 16q-73 0 -225 -8h-41v-746h365l258 357v-861l-258 332h-545v-1122h127v1028h434l53 -49h-434v-979h29q293 0 467 33q231 44 352 254l131 225q34 -157 76.5 -264t113 -204.5t191.5 -219.5h-2150zM1774 860l4 12q28 120 28 390v274q0 295 -21.5 451t-80.5 274
q-168 315 -500 315q-676 0 -676 -1187q0 -1098 664 -1098q139 0 255.5 66.5t199 194t127.5 308.5zM3699 2593l-13 -21q-113 -153 -167 -233t-84 -141t-72 -175l-37 41q134 313 348 570zM3113 1925v-885l-49 25v885z" />
    <glyph glyph-name="ordmasculine" unicode="&#xba;" horiz-adv-x="1659" 
d="M1413 2081q0 -199 -77 -345.5t-221 -224t-341 -77.5q-195 0 -350 83.5t-240.5 233.5t-85.5 338q0 299 182 477t490 178q191 0 336.5 -82.5t226 -233t80.5 -347.5zM573 1606q90 -50 189 -50q360 0 360 553q0 211 -61 345q-92 40 -168 40q-385 0 -385 -548q0 -210 65 -340z
M549 1618q-82 140 -82 369q0 548 385 548q110 0 197 -61q-104 143 -279 143q-385 0 -385 -553q0 -329 164 -446zM344 1450l12 16q175 -143 418 -143q219 0 390.5 91t265.5 255.5t94 374.5q0 105 -23.5 209.5t-63.5 177.5t-85 88l12 16q201 -175 201 -495
q0 -173 -51.5 -313.5t-150 -240t-236.5 -152t-312 -52.5q-274 0 -471 168zM1417 1200v-168h-1290v168h1290zM1532 1090l45 -46v-176h-1348l-36 58h1339v164z" />
    <glyph glyph-name="ae" unicode="&#xe6;" horiz-adv-x="4125" 
d="M3801 2732q-229 -289 -344 -598q-12 18 -12 33q-66 168 -124.5 245t-146 106.5t-245.5 29.5h-570v-889h127v786q90 4 217 4q228 0 350 -16.5t190.5 -60t119.5 -131.5q-6 4 -16 8.5t-13 7.5q-128 89 -241 112t-431 23q-69 0 -122 -4v-729h401l258 360v-917l-279 373h-561
v-1135h127v1032h434l54 -53h-434v-979q143 0 253 -4h58q242 0 396.5 45.5t243 146.5t126.5 271q97 -294 209 -467l77 -107l37 -61h-2289l336 291v450l-238 -295l-20 58l258 319v184l-336 -430q-103 117 -189 230q-94 119 -188 209l-197 -303q-139 -231 -139 -398
q0 -114 46 -189t237 -270l20 -20h-1204l-29 53h1135l-111 111h-1102q177 67 398 274q157 151 377 484q88 128 110 163l201 308q-106 59 -185 77l-61 13l-25 8l205 295l66 -74l135 -127l49 74l-90 98l-94 115l24 53l201 -209l488 746l-308 270h2380zM1237 1212q-44 49 -86 82
l-176 -270q-201 -298 -201 -496q0 -213 234 -327q-123 109 -123 250q0 239 196 528zM1987 2249l-504 -750l286 -315l218 250v815zM1987 2535l-717 -1065l381 -417l82 90l-320 352l574 856v184zM3871 2642l20 -41q-170 -193 -319 -520l-8 -21l-29 33q136 342 336 549z
M3342 1954v-942l-53 28v938zM4166 172l-103 -172h-2285l-25 53h2286l57 103l-8 12q-255 328 -316 594l62 -21l82 -188l131 -225z" />
    <glyph glyph-name="dotlessi" unicode="&#x131;" horiz-adv-x="1253" 
d="M82 2732h950l-270 -274v-2081l254 -213h-934l278 229v2089zM1122 2617l-204 -200v-2040l335 -377h-1040l-49 53h971l-275 303v2077l225 225z" />
    <glyph glyph-name="lslash" horiz-adv-x="2241" 
d="M1036 2732l-282 -283v-634l106 86v528l217 217l25 -45l-189 -197v-467l410 324v-213l-569 -438v-1291l24 -4h82v1241l565 439v217l50 -29v-209l-562 -438v-1221q91 -8 185 -8q210 0 343 58t214.5 190t126.5 358q97 -276 229 -512q67 -115 156 -237h-2081l270 221v745
l-209 -167l-24 41l233 188v139l-295 -233v209l295 229v934l-270 262h950zM2011 782q148 -344 352 -602l-90 -180h-2085l-45 53h2110l57 127l-24 29q-234 296 -332 598z" />
    <glyph glyph-name="oslash" unicode="&#xf8;" horiz-adv-x="2560" 
d="M2032 2753l-148 -259q114 -95 204 -270.5t139.5 -400t49.5 -455.5q0 -361 -131.5 -643t-370.5 -438t-542 -156q-364 0 -635 205l-127 -209h-192l192 311q-119 116 -203 272t-127 343.5t-43 400.5q0 295 79 538t228 413.5t358.5 261t469.5 90.5q127 0 273 -44t247 -112
l90 152h189zM1786 2011l-881 -1470q64 -96 152 -168l-21 -21q-126 87 -188 189l921 1556q-11 44 -49 135l-999 -1691q171 -242 487 -242q627 0 627 1131q0 308 -49 581zM1577 2314q-118 99 -307 99q-106 0 -205 -46t-152 -118q-89 -124 -140.5 -356.5t-51.5 -516.5
q0 -270 37 -450zM1630 2392q-70 90 -187.5 143.5t-242.5 53.5q-329 0 -496 -299t-167 -881q0 -489 98 -696l82 139l-8 29q-45 256 -45 491q0 194 23 365t69 310.5t108 229.5q55 81 160 136q107 49 225 49q191 0 348 -123zM2138 2716l41 -45l-106 -177q397 -391 397 -1110
q0 -305 -87.5 -566t-247.5 -448.5t-382 -291t-479 -103.5q-303 0 -590 193l-127 -217h-381l37 57h315l119 205q206 -114 327 -149t300 -35q324 0 585.5 175t409.5 482.5t148 689.5q0 238 -47.5 449t-139.5 383t-219 286z" />
    <glyph glyph-name="oe" unicode="&#x153;" horiz-adv-x="3903" 
d="M3838 0h-2339q-59 0 -133 -16.5t-92 -16.5q-350 0 -639 230v8q257 -180 647 -180q82 0 180 16l58 12l2289 4l70 123q-155 145 -248 274.5t-158 295.5l66 -25q65 -153 137 -253t232 -259l32 -33zM1630 2277q-130 74 -209 100.5t-176 26.5q-528 0 -528 -1036
q0 -759 327 -999l-16 -29q-205 144 -289 376.5t-84 655.5q0 1082 586 1082q265 0 389 -177zM1561 164q-74 -28 -119 -34.5t-164 -6.5q-268 0 -487.5 91t-375.5 263.5t-238.5 416t-82.5 540.5q0 298 77 541.5t223.5 416.5t352.5 264.5t457 91.5q156 0 283 -32h2117l-32 -41
q-124 -150 -187.5 -262.5t-136.5 -311.5q-5 13 -14 33t-15 33q-77 167 -150.5 245.5t-191 107t-346.5 28.5q-54 0 -172 -3q-119 -3 -188 -5v-906h127v799q135 12 291 12q173 0 277.5 -22t174.5 -76t137 -164q-13 8 -24 17.5t-16 11.5q-97 72 -111 86q-71 54 -156 74
q-92 16 -254 16q-73 0 -225 -8h-41v-746h365l258 357v-861l-258 332h-545v-1122h127v1028h434l53 -49h-434v-979h29q293 0 467 33q231 44 352 254l131 225q34 -157 76.5 -264t113 -204.5t191.5 -219.5h-2150zM1774 860l4 12q28 120 28 390v274q0 295 -21.5 451t-80.5 274
q-168 315 -500 315q-676 0 -676 -1187q0 -1098 664 -1098q139 0 255.5 66.5t199 194t127.5 308.5zM3699 2593l-13 -21q-113 -153 -167 -233t-84 -141t-72 -175l-37 41q134 313 348 570zM3113 1925v-885l-49 25v885z" />
    <glyph glyph-name="germandbls" unicode="&#xdf;" horiz-adv-x="2556" 
d="M913 1671q0 -10 -20 -37.5t-33 -44.5v815q173 82 336 82q191 0 299 -68.5t184 -234.5l-57 33q-146 225 -426 225q-99 0 -152 -15.5t-131 -70.5v-684zM913 418l-53 -78v963q98 8 209 8q224 0 356.5 -26t213.5 -88.5t143 -180.5h-25q-64 91 -149 144t-210 75t-325 22
q-82 0 -160 -4v-835zM860 164l119 155q240 0 368.5 18.5t229.5 68.5q258 115 258 487q0 168 -76 297t-203 174q-193 66 -675 66l118 155q344 0 521 94q107 55 172 170.5t65 251.5q0 232 -156.5 374t-408.5 142q-219 0 -430 -127v-2326h-676l274 237v2102q59 68 260 169
t584 101q282 0 504 -88.5t344.5 -246.5t122.5 -357q0 -197 -121.5 -337.5t-349.5 -207.5v-25q44 -8 119 -32q145 34 253 118.5t165 209.5t57 274q0 284 -234 499v13q162 -122 222.5 -228t60.5 -276q0 -243 -107.5 -395.5t-343.5 -243.5q195 -89 304.5 -255.5t109.5 -375.5
q0 -196 -97 -344.5t-277 -229.5t-420 -81h-656zM1552 0h-659l-33 53h561q280 0 434 35t275 121q291 203 291 586q0 139 -43.5 248.5t-141.5 222.5l21 16q98 -72 157.5 -205t59.5 -278q0 -251 -109 -430.5t-318 -274t-495 -94.5zM848 152l-53 -152h-602l-33 53h602z" />
    <glyph glyph-name="Aacute" unicode="&#xc1;" horiz-adv-x="3101" 
d="M1933 2732l-204 -238l323 -872l82 45l-295 787l209 245l53 -20l-200 -238l278 -745l94 78q26 17 78 69q48 -218 160 -409q-41 4 -86 4q-185 0 -279 -62l365 -979l299 -233h-1008l275 233l-222 582q-213 -215 -339 -422l-46 12q121 202 353 439l16 20l-37 90
q-102 -84 -217 -219t-180 -244l-37 62q-101 160 -266 377l-17 24q-155 -352 -155 -573q0 -116 42 -197.5t208 -290.5q7 -7 18 -21.5t27 -35.5h-1082l-41 53h1020l-37 45q-130 158 -171.5 246t-41.5 205q0 200 168 614l-90 90q-25 -63 -65 -188l-66 -201q-53 -163 -53 -274
q0 -77 15.5 -131.5t56 -111t129.5 -146.5q5 -10 32 -37h-999q155 81 251 163t179 201q174 272 279 574q9 23 73 233l9 25q-105 90 -304 110q115 180 168 345l123 -119q80 -64 111 -86l37 86l-25 20q-86 73 -86 74v0q-26 26 -82 70l-16 12l33 45q110 -74 200 -164l275 750
l-213 229h921zM1438 2089l-217 -582l20 -24l82 -90q72 -84 168 -226l20 -28q71 89 201 213zM1348 2318l-316 -839q177 -185 262 -308l111 -155l70 86q-126 198 -324 389l254 676zM2527 1749q42 -180 221 -496q-24 4 -53 4q-11 4 -160 17q-146 8 -159 8h-41l331 -885
l447 -397h-1155l-41 53h1061l-357 320l-356 942q62 16 156 16t205 -12l32 -4q-92 170 -129 261.5t-63 209.5zM1847 3527l-487 -398h-213l295 398h405zM1233 2961l-45 58h246l491 397l37 -49l-500 -406h-229z" />
    <glyph glyph-name="Acircumflex" unicode="&#xc2;" horiz-adv-x="3101" 
d="M1933 2732l-204 -238l323 -872l82 45l-295 787l209 245l53 -20l-200 -238l278 -745l94 78q26 17 78 69q48 -218 160 -409q-41 4 -86 4q-185 0 -279 -62l365 -979l299 -233h-1008l275 233l-222 582q-213 -215 -339 -422l-46 12q121 202 353 439l16 20l-37 90
q-102 -84 -217 -219t-180 -244l-37 62q-101 160 -266 377l-17 24q-155 -352 -155 -573q0 -116 42 -197.5t208 -290.5q7 -7 18 -21.5t27 -35.5h-1082l-41 53h1020l-37 45q-130 158 -171.5 246t-41.5 205q0 200 168 614l-90 90q-25 -63 -65 -188l-66 -201q-53 -163 -53 -274
q0 -77 15.5 -131.5t56 -111t129.5 -146.5q5 -10 32 -37h-999q155 81 251 163t179 201q174 272 279 574q9 23 73 233l9 25q-105 90 -304 110q115 180 168 345l123 -119q80 -64 111 -86l37 86l-25 20q-86 73 -86 74v0q-26 26 -82 70l-16 12l33 45q110 -74 200 -164l275 750
l-213 229h921zM1438 2089l-217 -582l20 -24l82 -90q72 -84 168 -226l20 -28q71 89 201 213zM1348 2318l-316 -839q177 -185 262 -308l111 -155l70 86q-126 198 -324 389l254 676zM2527 1749q42 -180 221 -496q-24 4 -53 4q-11 4 -160 17q-146 8 -159 8h-41l331 -885
l447 -397h-1155l-41 53h1061l-357 320l-356 942q62 16 156 16t205 -12l32 -4q-92 170 -129 261.5t-63 209.5zM1380 3277l-237 -283h-176l-37 41h192l230 270l-50 62l-204 -234h-209l336 402h258l344 -402h-320zM2101 2994h-467l-33 41h398l-348 406l77 -17z" />
    <glyph glyph-name="Adieresis" unicode="&#xc4;" horiz-adv-x="3101" 
d="M1933 2732l-204 -238l323 -872l82 45l-295 787l209 245l53 -20l-200 -238l278 -745l94 78q26 17 78 69q48 -218 160 -409q-41 4 -86 4q-185 0 -279 -62l365 -979l299 -233h-1008l275 233l-222 582q-213 -215 -339 -422l-46 12q121 202 353 439l16 20l-37 90
q-102 -84 -217 -219t-180 -244l-37 62q-101 160 -266 377l-17 24q-155 -352 -155 -573q0 -116 42 -197.5t208 -290.5q7 -7 18 -21.5t27 -35.5h-1082l-41 53h1020l-37 45q-130 158 -171.5 246t-41.5 205q0 200 168 614l-90 90q-25 -63 -65 -188l-66 -201q-53 -163 -53 -274
q0 -77 15.5 -131.5t56 -111t129.5 -146.5q5 -10 32 -37h-999q155 81 251 163t179 201q174 272 279 574q9 23 73 233l9 25q-105 90 -304 110q115 180 168 345l123 -119q80 -64 111 -86l37 86l-25 20q-86 73 -86 74v0q-26 26 -82 70l-16 12l33 45q110 -74 200 -164l275 750
l-213 229h921zM1438 2089l-217 -582l20 -24l82 -90q72 -84 168 -226l20 -28q71 89 201 213zM1348 2318l-316 -839q177 -185 262 -308l111 -155l70 86q-126 198 -324 389l254 676zM2527 1749q42 -180 221 -496q-24 4 -53 4q-11 4 -160 17q-146 8 -159 8h-41l331 -885
l447 -397h-1155l-41 53h1061l-357 320l-356 942q62 16 156 16t205 -12l32 -4q-92 170 -129 261.5t-63 209.5zM1786 3527q84 0 140.5 -55.5t56.5 -137.5q0 -78 -57.5 -133t-139.5 -55q-78 0 -135 56t-57 132q0 79 56 136t136 57zM2036 3445q111 -49 111 -197q0 -106 -73 -180
t-177 -74q-120 0 -189 94v13q90 -66 164 -66q95 0 166.5 67.5t71.5 157.5q0 84 -74 185zM1344 3445q110 -52 110 -197q0 -108 -70.5 -181t-174.5 -73q-120 0 -189 94v13q90 -66 160 -66q95 0 166.5 67.5t71.5 157.5t-74 185zM1094 3527q81 0 137 -56t56 -137q0 -78 -57 -133
t-136 -55q-82 0 -139.5 55.5t-57.5 132.5q0 80 56.5 136.5t140.5 56.5z" />
    <glyph glyph-name="Agrave" unicode="&#xc0;" horiz-adv-x="3101" 
d="M1933 2732l-204 -238l323 -872l82 45l-295 787l209 245l53 -20l-200 -238l278 -745l94 78q26 17 78 69q48 -218 160 -409q-41 4 -86 4q-185 0 -279 -62l365 -979l299 -233h-1008l275 233l-222 582q-213 -215 -339 -422l-46 12q121 202 353 439l16 20l-37 90
q-102 -84 -217 -219t-180 -244l-37 62q-101 160 -266 377l-17 24q-155 -352 -155 -573q0 -116 42 -197.5t208 -290.5q7 -7 18 -21.5t27 -35.5h-1082l-41 53h1020l-37 45q-130 158 -171.5 246t-41.5 205q0 200 168 614l-90 90q-25 -63 -65 -188l-66 -201q-53 -163 -53 -274
q0 -77 15.5 -131.5t56 -111t129.5 -146.5q5 -10 32 -37h-999q155 81 251 163t179 201q174 272 279 574q9 23 73 233l9 25q-105 90 -304 110q115 180 168 345l123 -119q80 -64 111 -86l37 86l-25 20q-86 73 -86 74v0q-26 26 -82 70l-16 12l33 45q110 -74 200 -164l275 750
l-213 229h921zM1438 2089l-217 -582l20 -24l82 -90q72 -84 168 -226l20 -28q71 89 201 213zM1348 2318l-316 -839q177 -185 262 -308l111 -155l70 86q-126 198 -324 389l254 676zM2527 1749q42 -180 221 -496q-24 4 -53 4q-11 4 -160 17q-146 8 -159 8h-41l331 -885
l447 -397h-1155l-41 53h1061l-357 320l-356 942q62 16 156 16t205 -12l32 -4q-92 170 -129 261.5t-63 209.5zM1340 3482l274 -385h-234l-458 385h418zM1880 2961h-336l-57 50h279l-250 348l86 -17z" />
    <glyph glyph-name="Aring" unicode="&#xc5;" horiz-adv-x="3101" 
d="M1933 2732l-204 -238l323 -872l82 45l-295 787l209 245l53 -20l-200 -238l278 -745l94 78q26 17 78 69q48 -218 160 -409q-41 4 -86 4q-185 0 -279 -62l365 -979l299 -233h-1008l275 233l-222 582q-213 -215 -339 -422l-46 12q121 202 353 439l16 20l-37 90
q-102 -84 -217 -219t-180 -244l-37 62q-101 160 -266 377l-17 24q-155 -352 -155 -573q0 -116 42 -197.5t208 -290.5q7 -7 18 -21.5t27 -35.5h-1082l-41 53h1020l-37 45q-130 158 -171.5 246t-41.5 205q0 200 168 614l-90 90q-25 -63 -65 -188l-66 -201q-53 -163 -53 -274
q0 -77 15.5 -131.5t56 -111t129.5 -146.5q5 -10 32 -37h-999q155 81 251 163t179 201q174 272 279 574q9 23 73 233l9 25q-105 90 -304 110q115 180 168 345l123 -119q80 -64 111 -86l37 86l-25 20q-86 73 -86 74v0q-26 26 -82 70l-16 12l33 45q110 -74 200 -164l275 750
l-213 229h921zM1438 2089l-217 -582l20 -24l82 -90q72 -84 168 -226l20 -28q71 89 201 213zM1348 2318l-316 -839q177 -185 262 -308l111 -155l70 86q-126 198 -324 389l254 676zM2527 1749q42 -180 221 -496q-24 4 -53 4q-11 4 -160 17q-146 8 -159 8h-41l331 -885
l447 -397h-1155l-41 53h1061l-357 320l-356 942q62 16 156 16t205 -12l32 -4q-92 170 -129 261.5t-63 209.5zM1675 3576q84 -43 134.5 -124t50.5 -175q0 -144 -99 -248t-237 -104q-169 0 -275 118l17 13q111 -95 233 -95q129 0 222.5 93.5t93.5 222.5q0 171 -160 282z
M1401 3637q120 0 203.5 -83.5t83.5 -202.5q0 -120 -83.5 -203.5t-203.5 -83.5q-119 0 -203 84t-84 203q0 116 84 201t203 85zM1401 3478q-54 0 -92.5 -37.5t-38.5 -89.5q0 -55 39.5 -93.5t91.5 -38.5q55 0 93 38t38 94q0 53 -37 90t-94 37z" />
    <glyph glyph-name="Atilde" unicode="&#xc3;" horiz-adv-x="3101" 
d="M1933 2732l-204 -238l323 -872l82 45l-295 787l209 245l53 -20l-200 -238l278 -745l94 78q26 17 78 69q48 -218 160 -409q-41 4 -86 4q-185 0 -279 -62l365 -979l299 -233h-1008l275 233l-222 582q-213 -215 -339 -422l-46 12q121 202 353 439l16 20l-37 90
q-102 -84 -217 -219t-180 -244l-37 62q-101 160 -266 377l-17 24q-155 -352 -155 -573q0 -116 42 -197.5t208 -290.5q7 -7 18 -21.5t27 -35.5h-1082l-41 53h1020l-37 45q-130 158 -171.5 246t-41.5 205q0 200 168 614l-90 90q-25 -63 -65 -188l-66 -201q-53 -163 -53 -274
q0 -77 15.5 -131.5t56 -111t129.5 -146.5q5 -10 32 -37h-999q155 81 251 163t179 201q174 272 279 574q9 23 73 233l9 25q-105 90 -304 110q115 180 168 345l123 -119q80 -64 111 -86l37 86l-25 20q-86 73 -86 74v0q-26 26 -82 70l-16 12l33 45q110 -74 200 -164l275 750
l-213 229h921zM1438 2089l-217 -582l20 -24l82 -90q72 -84 168 -226l20 -28q71 89 201 213zM1348 2318l-316 -839q177 -185 262 -308l111 -155l70 86q-126 198 -324 389l254 676zM2527 1749q42 -180 221 -496q-24 4 -53 4q-11 4 -160 17q-146 8 -159 8h-41l331 -885
l447 -397h-1155l-41 53h1061l-357 320l-356 942q62 16 156 16t205 -12l32 -4q-92 170 -129 261.5t-63 209.5zM2032 3519q4 -25 4 -54q0 -144 -91 -246t-220 -102q-135 0 -373 119q-138 66 -189 66q-62 0 -102 -42t-49 -114h-143v16q0 161 107 275t257 114q90 0 153 -24.5
t224 -122.5q97 -57 151 -57q56 0 91.5 41t35.5 106v25h144zM2146 3461l41 -37v-16q0 -169 -108 -291.5t-260 -122.5q-101 0 -225 62l24 24q120 -41 193 -41q145 0 230.5 103.5t100.5 294.5zM1176 3207v-61q-40 -57 -58 -148h-159l-29 46h156q24 116 90 163z" />
    <glyph glyph-name="Ccedilla" unicode="&#xc7;" horiz-adv-x="2425" 
d="M1327 98l-41 -164q205 0 205 -249q0 -174 -107 -290t-270 -116q-196 0 -311 197l12 12l70 41q57 38 131 98q0 -87 32.5 -137.5t86.5 -50.5q57 0 100 76t43 182q0 135 -111 135q-57 0 -102 -61l-37 32q26 60 53 144l4 12q-123 20 -206.5 56.5t-206.5 123.5v17
q108 -71 196 -101t230 -47q6 20 8.5 28t4.5 16.5t7 33.5l4 12q-244 26 -434 127.5t-322.5 275t-202 414t-69.5 531.5q0 378 145 688t399 487t562 177q153 0 233.5 -18t278.5 -93q149 -57 238 -57q110 0 200 57l33 -16l-24 -41q-171 -295 -312 -627l-16 -45l-25 12
q-33 204 -119 352.5t-216 228t-287 79.5q-131 0 -258 -75t-201 -196q-61 -103 -100 -231.5t-57.5 -290.5t-18.5 -367q0 -376 87.5 -648.5t255 -416t398.5 -143.5q188 0 325 82.5t218.5 244.5t103.5 394q7 82 62 82q82 0 82 -131q0 -95 -32.5 -230t-78.5 -221
q-85 -168 -251 -266.5t-392 -118.5zM1602 2322q-109 88 -179 118t-166 30q-168 0 -284.5 -112t-176 -334t-59.5 -541q0 -298 55 -535.5t160 -392.5t248 -211v-20q-120 26 -214.5 117.5t-164 245t-105.5 358.5t-36 438q0 504 146.5 770t422.5 266q112 0 187 -37t166 -135v-25
zM1499 -123q135 -105 135 -311q0 -160 -115.5 -283t-269.5 -123q-171 0 -262 90v17q109 -66 217 -66q151 0 264 125t113 289q0 134 -98 250zM1139 -283q13 66 90 66v-21q-35 -17 -66 -77zM2253 950q-15 -239 -66 -401.5t-155 -290.5q-102 -126 -207.5 -188t-292.5 -103
l-21 -4l-53 49q147 11 288.5 89.5t240.5 201.5q98 119 142 256t62 371l4 45zM2327 2572l-21 -37q-214 -361 -348 -680l-53 29l196 397l180 320zM1147 -467l45 -25l-37 -24z" />
    <glyph glyph-name="Eacute" unicode="&#xc9;" horiz-adv-x="2548" 
d="M2249 2732l-33 -41q-125 -152 -187.5 -262t-136.5 -311q-4 10 -15.5 36t-12.5 29q-76 169 -150 247t-191 106t-347 28q-197 0 -361 -8v-922h127v815q135 13 291 13q175 0 279.5 -22.5t175.5 -78.5t135 -161q-21 12 -41 32q-106 82 -111 82q-74 56 -155 74q-93 16 -259 16
q-69 0 -221 -8h-41v-762h365l258 357v-861l-258 332h-545v-1122h127v1028h434l54 -53h-435v-975h29q290 0 471 33q227 44 348 254l107 180l24 45q50 -222 127 -354t258 -305h-2240l303 229v893q-168 -15 -303 -103l-29 41q113 88 332 115v94q-13 0 -26 2t-15 2
q-211 0 -381 -151q49 170 145.5 243t276.5 76v856l-303 242h2130zM2347 2593l-16 -21q-165 -225 -218 -314t-106 -235l-37 41q134 305 348 570zM1757 1925v-885l-49 25v885zM2589 180l-107 -180h-2183l-33 53h2188l69 127q-155 145 -247.5 275.5t-157.5 294.5l65 -25
q65 -154 137.5 -254t235.5 -258zM1483 3527l-487 -398h-213l295 398h405zM869 2961l-45 58h246l491 397l37 -49l-500 -406h-229z" />
    <glyph glyph-name="Ecircumflex" unicode="&#xca;" horiz-adv-x="2548" 
d="M2249 2732l-33 -41q-125 -152 -187.5 -262t-136.5 -311q-4 10 -15.5 36t-12.5 29q-76 169 -150 247t-191 106t-347 28q-197 0 -361 -8v-922h127v815q135 13 291 13q175 0 279.5 -22.5t175.5 -78.5t135 -161q-21 12 -41 32q-106 82 -111 82q-74 56 -155 74q-93 16 -259 16
q-69 0 -221 -8h-41v-762h365l258 357v-861l-258 332h-545v-1122h127v1028h434l54 -53h-435v-975h29q290 0 471 33q227 44 348 254l107 180l24 45q50 -222 127 -354t258 -305h-2240l303 229v893q-168 -15 -303 -103l-29 41q113 88 332 115v94q-13 0 -26 2t-15 2
q-211 0 -381 -151q49 170 145.5 243t276.5 76v856l-303 242h2130zM2347 2593l-16 -21q-165 -225 -218 -314t-106 -235l-37 41q134 305 348 570zM1757 1925v-885l-49 25v885zM2589 180l-107 -180h-2183l-33 53h2188l69 127q-155 145 -247.5 275.5t-157.5 294.5l65 -25
q65 -154 137.5 -254t235.5 -258zM1155 3277l-237 -283h-176l-37 41h192l230 270l-50 62l-204 -234h-209l336 402h258l344 -402h-320zM1876 2994h-467l-33 41h398l-348 406l77 -17z" />
    <glyph glyph-name="Edieresis" unicode="&#xcb;" horiz-adv-x="2548" 
d="M2249 2732l-33 -41q-125 -152 -187.5 -262t-136.5 -311q-4 10 -15.5 36t-12.5 29q-76 169 -150 247t-191 106t-347 28q-197 0 -361 -8v-922h127v815q135 13 291 13q175 0 279.5 -22.5t175.5 -78.5t135 -161q-21 12 -41 32q-106 82 -111 82q-74 56 -155 74q-93 16 -259 16
q-69 0 -221 -8h-41v-762h365l258 357v-861l-258 332h-545v-1122h127v1028h434l54 -53h-435v-975h29q290 0 471 33q227 44 348 254l107 180l24 45q50 -222 127 -354t258 -305h-2240l303 229v893q-168 -15 -303 -103l-29 41q113 88 332 115v94q-13 0 -26 2t-15 2
q-211 0 -381 -151q49 170 145.5 243t276.5 76v856l-303 242h2130zM2347 2593l-16 -21q-165 -225 -218 -314t-106 -235l-37 41q134 305 348 570zM1757 1925v-885l-49 25v885zM2589 180l-107 -180h-2183l-33 53h2188l69 127q-155 145 -247.5 275.5t-157.5 294.5l65 -25
q65 -154 137.5 -254t235.5 -258zM1429 3527q84 0 140.5 -55.5t56.5 -137.5q0 -78 -57.5 -133t-139.5 -55q-78 0 -135 56t-57 132q0 79 56 136t136 57zM1679 3445q111 -49 111 -197q0 -106 -73 -180t-177 -74q-120 0 -189 94v13q90 -66 164 -66q95 0 166.5 67.5t71.5 157.5
q0 84 -74 185zM987 3445q110 -52 110 -197q0 -108 -70.5 -181t-174.5 -73q-120 0 -189 94v13q90 -66 160 -66q95 0 166.5 67.5t71.5 157.5t-74 185zM737 3527q81 0 137 -56t56 -137q0 -78 -57 -133t-136 -55q-82 0 -139.5 55.5t-57.5 132.5q0 80 56.5 136.5t140.5 56.5z" />
    <glyph glyph-name="Egrave" unicode="&#xc8;" horiz-adv-x="2548" 
d="M2249 2732l-33 -41q-125 -152 -187.5 -262t-136.5 -311q-4 10 -15.5 36t-12.5 29q-76 169 -150 247t-191 106t-347 28q-197 0 -361 -8v-922h127v815q135 13 291 13q175 0 279.5 -22.5t175.5 -78.5t135 -161q-21 12 -41 32q-106 82 -111 82q-74 56 -155 74q-93 16 -259 16
q-69 0 -221 -8h-41v-762h365l258 357v-861l-258 332h-545v-1122h127v1028h434l54 -53h-435v-975h29q290 0 471 33q227 44 348 254l107 180l24 45q50 -222 127 -354t258 -305h-2240l303 229v893q-168 -15 -303 -103l-29 41q113 88 332 115v94q-13 0 -26 2t-15 2
q-211 0 -381 -151q49 170 145.5 243t276.5 76v856l-303 242h2130zM2347 2593l-16 -21q-165 -225 -218 -314t-106 -235l-37 41q134 305 348 570zM1757 1925v-885l-49 25v885zM2589 180l-107 -180h-2183l-33 53h2188l69 127q-155 145 -247.5 275.5t-157.5 294.5l65 -25
q65 -154 137.5 -254t235.5 -258zM1127 3482l274 -385h-234l-458 385h418zM1667 2961h-336l-57 50h279l-250 348l86 -17z" />
    <glyph glyph-name="Eth" horiz-adv-x="2474" 
d="M139 2732h828q367 0 605.5 -95.5t385.5 -301.5q133 -179 187.5 -387t54.5 -531q0 -227 -49.5 -427t-143 -354t-225.5 -255q-145 -115 -337.5 -166t-481.5 -51h-881l274 209v942h-155l-21 53h176v86h-250l-69 184h319v869zM750 2556v-918h110v791q70 16 197 16
q154 0 248.5 -32.5t189.5 -118.5q-220 94 -451 94q-73 0 -135 -8v-742h320l65 -184h-544v-1135h110v1049h565l-77 209l53 -25l94 -237h-586v-996q29 -4 58 -4q182 0 316 53t227.5 168t156.5 295q94 281 94 631q0 388 -102 647q-64 163 -167.5 262.5t-263 144t-397.5 44.5
q-40 0 -81 -4zM1958 2474q422 -277 422 -975q0 -318 -43.5 -528t-145.5 -398q-121 -218 -307 -344q-317 -229 -901 -229h-778l-29 53h795q693 0 1026.5 341.5t333.5 1047.5q0 279 -36.5 438.5t-140.5 339.5q-52 93 -196 254z" />
    <glyph glyph-name="Iacute" unicode="&#xcd;" horiz-adv-x="1254" 
d="M82 2732h950l-270 -274v-2081l254 -213h-934l278 229v2089zM1122 2617l-204 -200v-2040l335 -377h-1040l-49 53h971l-275 303v2077l225 225zM889 3527l-487 -398h-213l295 398h405zM275 2961l-45 58h246l491 397l37 -49l-500 -406h-229z" />
    <glyph glyph-name="Icircumflex" unicode="&#xce;" horiz-adv-x="1253" 
d="M82 2732h950l-270 -274v-2081l254 -213h-934l278 229v2089zM1122 2617l-204 -200v-2040l335 -377h-1040l-49 53h971l-275 303v2077l225 225zM565 3277l-237 -283h-176l-37 41h192l230 270l-50 62l-204 -234h-209l336 402h258l344 -402h-320zM1286 2994h-467l-33 41h398
l-348 406l77 -17z" />
    <glyph glyph-name="Idieresis" unicode="&#xcf;" horiz-adv-x="1254" 
d="M82 2732h950l-270 -274v-2081l254 -213h-934l278 229v2089zM1122 2617l-204 -200v-2040l335 -377h-1040l-49 53h971l-275 303v2077l225 225zM893 3527q84 0 140.5 -55.5t56.5 -137.5q0 -78 -57.5 -133t-139.5 -55q-78 0 -135 56t-57 132q0 79 56 136t136 57zM1143 3445
q111 -49 111 -197q0 -106 -73 -180t-177 -74q-120 0 -189 94v13q90 -66 164 -66q95 0 166.5 67.5t71.5 157.5q0 84 -74 185zM451 3445q110 -52 110 -197q0 -108 -70.5 -181t-174.5 -73q-120 0 -189 94v13q90 -66 160 -66q95 0 166.5 67.5t71.5 157.5t-74 185zM201 3527
q81 0 137 -56t56 -137q0 -78 -57 -133t-136 -55q-82 0 -139.5 55.5t-57.5 132.5q0 80 56.5 136.5t140.5 56.5z" />
    <glyph glyph-name="Igrave" unicode="&#xcc;" horiz-adv-x="1253" 
d="M82 2732h950l-270 -274v-2081l254 -213h-934l278 229v2089zM1122 2617l-204 -200v-2040l335 -377h-1040l-49 53h971l-275 303v2077l225 225zM631 3515l274 -385h-234l-458 385h418zM1171 2994h-336l-57 50h279l-250 348l86 -17z" />
    <glyph glyph-name="Ntilde" unicode="&#xd1;" horiz-adv-x="2457" 
d="M2535 2580l-36 -57q-105 -25 -160.5 -73t-79 -137.5t-23.5 -248.5v-2064h-430l-28 53h405v1991q0 282 72 392.5t280 143.5zM467 1745v762l-266 225h1011l-286 -192l970 -1889v242l-831 1614l283 192l32 -37l-245 -168l761 -1495v1041q0 242 -23.5 360.5t-91 186
t-225.5 145.5h910q-165 -86 -248 -167t-114 -196t-31 -313v-1892h-340l-942 1831v-1176q0 -227 48 -351.5t156 -234.5l13 -12q-144 49 -209.5 190t-65.5 400v1282l-106 213v-1155q0 -284 9.5 -425t36.5 -222t85 -152q57 -70 109 -101t169 -67l176 -184h-1085l-29 53h1000
l-103 111h-934q236 84 312 221q55 101 74.5 207t19.5 313v840zM1774 3527q4 -25 4 -54q0 -144 -91 -246t-220 -102q-135 0 -373 119q-138 66 -189 66q-62 0 -102 -42t-49 -114h-143v16q0 161 107 275t257 114q90 0 153 -24.5t224 -122.5q97 -57 151 -57q56 0 91.5 41
t35.5 106v25h144zM1888 3469l41 -37v-16q0 -169 -108 -291.5t-260 -122.5q-101 0 -225 62l24 24q120 -41 193 -41q145 0 230.5 103.5t100.5 294.5zM918 3215v-61q-40 -57 -58 -148h-159l-29 46h156q24 116 90 163z" />
    <glyph glyph-name="Oacute" unicode="&#xd3;" horiz-adv-x="2556" 
d="M1647 2314q-134 77 -216.5 104t-181.5 27q-544 0 -544 -1069q0 -773 335 -1028l-16 -20q-142 98 -226 233.5t-121.5 332t-37.5 490.5q0 1110 606 1110q126 0 233.5 -47t168.5 -133zM2302 1430q0 -305 -75 -553.5t-217.5 -423.5t-343.5 -267t-449 -92q-335 0 -598.5 171.5
t-410.5 479t-147 697.5q0 306 80 559t229.5 430t362 272t471.5 95q245 0 449 -97.5t348.5 -277.5t222.5 -432t78 -561zM1847 1487q0 526 -127 811q-71 147 -211 235t-305 88q-696 0 -696 -1224q0 -1131 684 -1131q344 0 516 357q53 119 82.5 236t43 265.5t13.5 362.5z
M1860 2691q198 -96 341.5 -283.5t220.5 -452.5t77 -579q0 -316 -88 -579t-252.5 -458.5t-389 -300t-491.5 -104.5q-346 0 -660 234v12q258 -184 644 -184q255 0 471.5 100.5t376.5 287.5t245.5 441t85.5 551q0 302 -68.5 555.5t-198.5 441t-314 298.5v20zM1556 3527
l-487 -398h-213l295 398h405zM942 2961l-45 58h246l491 397l37 -49l-500 -406h-229z" />
    <glyph glyph-name="Ocircumflex" unicode="&#xd4;" horiz-adv-x="2556" 
d="M1647 2314q-134 77 -216.5 104t-181.5 27q-544 0 -544 -1069q0 -773 335 -1028l-16 -20q-142 98 -226 233.5t-121.5 332t-37.5 490.5q0 1110 606 1110q126 0 233.5 -47t168.5 -133zM2302 1430q0 -305 -75 -553.5t-217.5 -423.5t-343.5 -267t-449 -92q-335 0 -598.5 171.5
t-410.5 479t-147 697.5q0 306 80 559t229.5 430t362 272t471.5 95q245 0 449 -97.5t348.5 -277.5t222.5 -432t78 -561zM1847 1487q0 526 -127 811q-71 147 -211 235t-305 88q-696 0 -696 -1224q0 -1131 684 -1131q344 0 516 357q53 119 82.5 236t43 265.5t13.5 362.5z
M1860 2691q198 -96 341.5 -283.5t220.5 -452.5t77 -579q0 -316 -88 -579t-252.5 -458.5t-389 -300t-491.5 -104.5q-346 0 -660 234v12q258 -184 644 -184q255 0 471.5 100.5t376.5 287.5t245.5 441t85.5 551q0 302 -68.5 555.5t-198.5 441t-314 298.5v20zM1179 3277
l-237 -283h-176l-37 41h192l230 270l-50 62l-204 -234h-209l336 402h258l344 -402h-320zM1900 2994h-467l-33 41h398l-348 406l77 -17z" />
    <glyph glyph-name="Odieresis" unicode="&#xd6;" horiz-adv-x="2556" 
d="M1647 2314q-134 77 -216.5 104t-181.5 27q-544 0 -544 -1069q0 -773 335 -1028l-16 -20q-142 98 -226 233.5t-121.5 332t-37.5 490.5q0 1110 606 1110q126 0 233.5 -47t168.5 -133zM2302 1430q0 -305 -75 -553.5t-217.5 -423.5t-343.5 -267t-449 -92q-335 0 -598.5 171.5
t-410.5 479t-147 697.5q0 306 80 559t229.5 430t362 272t471.5 95q245 0 449 -97.5t348.5 -277.5t222.5 -432t78 -561zM1847 1487q0 526 -127 811q-71 147 -211 235t-305 88q-696 0 -696 -1224q0 -1131 684 -1131q344 0 516 357q53 119 82.5 236t43 265.5t13.5 362.5z
M1860 2691q198 -96 341.5 -283.5t220.5 -452.5t77 -579q0 -316 -88 -579t-252.5 -458.5t-389 -300t-491.5 -104.5q-346 0 -660 234v12q258 -184 644 -184q255 0 471.5 100.5t376.5 287.5t245.5 441t85.5 551q0 302 -68.5 555.5t-198.5 441t-314 298.5v20zM1470 3527
q84 0 140.5 -55.5t56.5 -137.5q0 -78 -57.5 -133t-139.5 -55q-78 0 -135 56t-57 132q0 79 56 136t136 57zM1720 3445q111 -49 111 -197q0 -106 -73 -180t-177 -74q-120 0 -189 94v13q90 -66 164 -66q95 0 166.5 67.5t71.5 157.5q0 84 -74 185zM1028 3445q110 -52 110 -197
q0 -108 -70.5 -181t-174.5 -73q-120 0 -189 94v13q90 -66 160 -66q95 0 166.5 67.5t71.5 157.5t-74 185zM778 3527q81 0 137 -56t56 -137q0 -78 -57 -133t-136 -55q-82 0 -139.5 55.5t-57.5 132.5q0 80 56.5 136.5t140.5 56.5z" />
    <glyph glyph-name="Ograve" unicode="&#xd2;" horiz-adv-x="2556" 
d="M1647 2314q-134 77 -216.5 104t-181.5 27q-544 0 -544 -1069q0 -773 335 -1028l-16 -20q-142 98 -226 233.5t-121.5 332t-37.5 490.5q0 1110 606 1110q126 0 233.5 -47t168.5 -133zM2302 1430q0 -305 -75 -553.5t-217.5 -423.5t-343.5 -267t-449 -92q-335 0 -598.5 171.5
t-410.5 479t-147 697.5q0 306 80 559t229.5 430t362 272t471.5 95q245 0 449 -97.5t348.5 -277.5t222.5 -432t78 -561zM1847 1487q0 526 -127 811q-71 147 -211 235t-305 88q-696 0 -696 -1224q0 -1131 684 -1131q344 0 516 357q53 119 82.5 236t43 265.5t13.5 362.5z
M1860 2691q198 -96 341.5 -283.5t220.5 -452.5t77 -579q0 -316 -88 -579t-252.5 -458.5t-389 -300t-491.5 -104.5q-346 0 -660 234v12q258 -184 644 -184q255 0 471.5 100.5t376.5 287.5t245.5 441t85.5 551q0 302 -68.5 555.5t-198.5 441t-314 298.5v20zM1135 3482
l274 -385h-234l-458 385h418zM1675 2961h-336l-57 50h279l-250 348l86 -17z" />
    <glyph glyph-name="Otilde" unicode="&#xd5;" horiz-adv-x="2556" 
d="M1647 2314q-134 77 -216.5 104t-181.5 27q-544 0 -544 -1069q0 -773 335 -1028l-16 -20q-142 98 -226 233.5t-121.5 332t-37.5 490.5q0 1110 606 1110q126 0 233.5 -47t168.5 -133zM2302 1430q0 -305 -75 -553.5t-217.5 -423.5t-343.5 -267t-449 -92q-335 0 -598.5 171.5
t-410.5 479t-147 697.5q0 306 80 559t229.5 430t362 272t471.5 95q245 0 449 -97.5t348.5 -277.5t222.5 -432t78 -561zM1847 1487q0 526 -127 811q-71 147 -211 235t-305 88q-696 0 -696 -1224q0 -1131 684 -1131q344 0 516 357q53 119 82.5 236t43 265.5t13.5 362.5z
M1860 2691q198 -96 341.5 -283.5t220.5 -452.5t77 -579q0 -316 -88 -579t-252.5 -458.5t-389 -300t-491.5 -104.5q-346 0 -660 234v12q258 -184 644 -184q255 0 471.5 100.5t376.5 287.5t245.5 441t85.5 551q0 302 -68.5 555.5t-198.5 441t-314 298.5v20zM1741 3527
q4 -25 4 -54q0 -144 -91 -246t-220 -102q-135 0 -373 119q-138 66 -189 66q-62 0 -102 -42t-49 -114h-143v16q0 161 107 275t257 114q90 0 153 -24.5t224 -122.5q97 -57 151 -57q56 0 91.5 41t35.5 106v25h144zM1855 3469l41 -37v-16q0 -169 -108 -291.5t-260 -122.5
q-101 0 -225 62l24 24q120 -41 193 -41q145 0 230.5 103.5t100.5 294.5zM885 3215v-61q-40 -57 -58 -148h-159l-29 46h156q24 116 90 163z" />
    <glyph glyph-name="Scaron" horiz-adv-x="2273" 
d="M1958 2707q-111 -152 -164 -290q-127 -312 -164 -369q-2 0 -8 -12q-8 24 -12 32q-71 228 -121.5 305.5t-181.5 153.5q-141 86 -295 86q-227 0 -371.5 -114.5t-144.5 -298.5q0 -174 123 -286t385 -177l335 -78q252 -61 397.5 -155t233.5 -251q90 -154 90 -356
q0 -222 -113.5 -399.5t-317 -276t-462.5 -98.5q-210 0 -475 70l-229 57q-155 33 -225 33q-135 0 -263 -78l-16 28q100 152 206 366.5t142 346.5l37 -12q27 -207 130.5 -356t275 -226.5t397.5 -77.5q168 0 301 54.5t207 154t74 226.5q0 304 -267 450q-103 60 -221.5 95.5
t-380.5 84.5q-263 53 -404.5 133t-222.5 224q-90 167 -90 364q0 322 230 517.5t610 195.5q223 0 524 -86q142 -37 217 -37q93 0 213 66zM2085 2626l-21 -33q-62 -101 -139 -262q-167 -343 -168 -344l-49 20l176 360l148 283zM1499 2224q-221 234 -471 234q-152 0 -252 -88
t-100 -224q0 -86 42.5 -150t158.5 -153l16 -12l-8 -12q-267 114 -267 340q0 156 113 254t293 98q171 0 300.5 -73.5t186.5 -205.5zM1958 1430q274 -207 274 -566q0 -249 -135.5 -458t-370 -330t-514.5 -121q-200 0 -389 41l-319 82q-111 24 -238 24q-114 0 -209 -45l-24 62
q100 45 213 45q111 0 270 -37l307 -74q180 -41 389 -41q256 0 479 116t353.5 313t130.5 427q0 320 -217 549v13zM532 856q40 -190 134 -310t264 -202v-16q-196 58 -301.5 178.5t-149.5 337.5zM287 1503l65 -37q40 -70 118.5 -109t270.5 -87l320 -82q235 -58 344 -98
t163 -89.5t87 -132.5l-17 -8q-87 106 -189.5 152t-408.5 118q-336 79 -478 129t-206 117q-56 61 -69 127zM1106 3281l205 234h209l-336 -402h-258l-344 402h319zM1626 3380l-348 -414h-172l-45 49h193l331 410z" />
    <glyph glyph-name="Thorn" horiz-adv-x="2367" 
d="M1114 2732l-270 -274v-275h106v250l226 225l32 -41l-204 -200v-234h86q350 0 549.5 -55.5t330.5 -190.5q189 -187 189 -475q0 -265 -181 -437.5t-491 -201.5q-99 -9 -328 -16h-69h-246v-422l237 -221h-921l278 233v258h-20q-156 0 -291 -61l-16 37q119 65 237 74l90 4v98
q-28 4 -65 4q-214 0 -340 -102l-21 28q128 226 394 226h32v1519l-278 250h954zM844 1978v-1003h106v893h217q156 0 245.5 -18.5t143 -68t99.5 -147.5q-68 102 -166 143.5t-277 41.5h-208v-844h28q684 0 684 471q0 389 -295 496q-127 45 -348 45q-42 0 -96 -2q-55 -3 -88 -3z
M2056 1970q118 -59 194.5 -208t76.5 -324q0 -283 -129.5 -469t-378.5 -256q-141 -39 -267.5 -52.5t-375.5 -13.5q-52 0 -68.5 1t-42.5 2.5t-61 4.5v-282l315 -373h-1004l-53 53h942l-254 299v357q155 -13 348 -13q506 0 744.5 180.5t238.5 561.5q0 157 -48 270t-177 262z
" />
    <glyph glyph-name="Uacute" unicode="&#xda;" horiz-adv-x="2486" 
d="M2376 2732l-357 -287v-1294q0 -317 -15.5 -457t-61.5 -239q-152 -328 -705 -328q-293 0 -496.5 87t-289.5 249q-63 116 -89 273.5t-26 422.5v1327l-270 246h946l-275 -266v-1618q0 -201 54.5 -320t174 -172t320.5 -53q175 0 300.5 64t170.5 174q78 205 78 610v1294
l-311 287h852zM2445 2593l-274 -221v-1246q0 -521 -53 -696q-49 -150 -160 -257t-276.5 -162.5t-370.5 -55.5q-232 0 -429 65t-313 181l17 -8l69 -41q116 -66 279.5 -105t322.5 -39q667 0 799 438q62 212 62 664v1282l295 246zM1094 2626l-197 -201v-1622
q0 -144 47.5 -232.5t185.5 -205.5l5 -21q-166 67 -230.5 198t-64.5 404v1499l225 221zM1552 3527l-487 -398h-213l295 398h405zM938 2961l-45 58h246l491 397l37 -49l-500 -406h-229z" />
    <glyph glyph-name="Ucircumflex" unicode="&#xdb;" horiz-adv-x="2486" 
d="M2376 2732l-357 -287v-1294q0 -317 -15.5 -457t-61.5 -239q-152 -328 -705 -328q-293 0 -496.5 87t-289.5 249q-63 116 -89 273.5t-26 422.5v1327l-270 246h946l-275 -266v-1618q0 -201 54.5 -320t174 -172t320.5 -53q175 0 300.5 64t170.5 174q78 205 78 610v1294
l-311 287h852zM2445 2593l-274 -221v-1246q0 -521 -53 -696q-49 -150 -160 -257t-276.5 -162.5t-370.5 -55.5q-232 0 -429 65t-313 181l17 -8l69 -41q116 -66 279.5 -105t322.5 -39q667 0 799 438q62 212 62 664v1282l295 246zM1094 2626l-197 -201v-1622
q0 -144 47.5 -232.5t185.5 -205.5l5 -21q-166 67 -230.5 198t-64.5 404v1499l225 221zM1261 3277l-237 -283h-176l-37 41h192l230 270l-50 62l-204 -234h-209l336 402h258l344 -402h-320zM1982 2994h-467l-33 41h398l-348 406l77 -17z" />
    <glyph glyph-name="Udieresis" unicode="&#xdc;" horiz-adv-x="2486" 
d="M2376 2732l-357 -287v-1294q0 -317 -15.5 -457t-61.5 -239q-152 -328 -705 -328q-293 0 -496.5 87t-289.5 249q-63 116 -89 273.5t-26 422.5v1327l-270 246h946l-275 -266v-1618q0 -201 54.5 -320t174 -172t320.5 -53q175 0 300.5 64t170.5 174q78 205 78 610v1294
l-311 287h852zM2445 2593l-274 -221v-1246q0 -521 -53 -696q-49 -150 -160 -257t-276.5 -162.5t-370.5 -55.5q-232 0 -429 65t-313 181l17 -8l69 -41q116 -66 279.5 -105t322.5 -39q667 0 799 438q62 212 62 664v1282l295 246zM1094 2626l-197 -201v-1622
q0 -144 47.5 -232.5t185.5 -205.5l5 -21q-166 67 -230.5 198t-64.5 404v1499l225 221zM1609 3539q84 0 140.5 -55.5t56.5 -137.5q0 -78 -57.5 -133t-139.5 -55q-78 0 -135 56t-57 132q0 79 56 136t136 57zM1859 3457q111 -49 111 -197q0 -106 -73 -180t-177 -74
q-120 0 -189 94v13q90 -66 164 -66q95 0 166.5 67.5t71.5 157.5q0 84 -74 185zM1167 3457q110 -52 110 -197q0 -108 -70.5 -181t-174.5 -73q-120 0 -189 94v13q90 -66 160 -66q95 0 166.5 67.5t71.5 157.5t-74 185zM917 3539q81 0 137 -56t56 -137q0 -78 -57 -133t-136 -55
q-82 0 -139.5 55.5t-57.5 132.5q0 80 56.5 136.5t140.5 56.5z" />
    <glyph glyph-name="Ugrave" unicode="&#xd9;" horiz-adv-x="2486" 
d="M2376 2732l-357 -287v-1294q0 -317 -15.5 -457t-61.5 -239q-152 -328 -705 -328q-293 0 -496.5 87t-289.5 249q-63 116 -89 273.5t-26 422.5v1327l-270 246h946l-275 -266v-1618q0 -201 54.5 -320t174 -172t320.5 -53q175 0 300.5 64t170.5 174q78 205 78 610v1294
l-311 287h852zM2445 2593l-274 -221v-1246q0 -521 -53 -696q-49 -150 -160 -257t-276.5 -162.5t-370.5 -55.5q-232 0 -429 65t-313 181l17 -8l69 -41q116 -66 279.5 -105t322.5 -39q667 0 799 438q62 212 62 664v1282l295 246zM1094 2626l-197 -201v-1622
q0 -144 47.5 -232.5t185.5 -205.5l5 -21q-166 67 -230.5 198t-64.5 404v1499l225 221zM1201 3482l274 -385h-234l-458 385h418zM1741 2961h-336l-57 50h279l-250 348l86 -17z" />
    <glyph glyph-name="Yacute" horiz-adv-x="2626" 
d="M2879 3437l13 -17l-21 -24q-255 -264 -401 -463q-59 -80 -189 -291q-70 -114 -95.5 -156.5l-31.5 -52.5l-745 -1188v-815l291 -266h-975l291 266v815l-479 733l-107 168q-142 224 -237 331t-263 235l-24 20h1012l-250 -258l667 -1008l62 103l-590 905l209 197l41 -29
l-185 -168l553 -856l451 709q114 184 153 273.5t39 172.5q0 140 -167 303q141 33 340 94q343 104 614 250zM2970 3314v-82l-21 -21q-130 -124 -182 -183t-141 -185q-142 -196 -324 -488l-725 -1138v-787l356 -430h-1253l-21 53h1168l-303 377v799l852 1347q187 306 389 533
q125 136 205 205zM1782 3527l-487 -398h-213l295 398h405zM1168 2961l-45 58h246l491 397l37 -49l-500 -406h-229z" />
    <glyph glyph-name="Ydieresis" unicode="&#x178;" horiz-adv-x="2626" 
d="M2879 3437l13 -17l-21 -24q-255 -264 -401 -463q-59 -80 -189 -291q-70 -114 -95.5 -156.5l-31.5 -52.5l-745 -1188v-815l291 -266h-975l291 266v815l-479 733l-107 168q-142 224 -237 331t-263 235l-24 20h1012l-250 -258l667 -1008l62 103l-590 905l209 197l41 -29
l-185 -168l553 -856l451 709q114 184 153 273.5t39 172.5q0 140 -167 303q141 33 340 94q343 104 614 250zM2970 3314v-82l-21 -21q-130 -124 -182 -183t-141 -185q-142 -196 -324 -488l-725 -1138v-787l356 -430h-1253l-21 53h1168l-303 377v799l852 1347q187 306 389 533
q125 136 205 205zM1581 3523q84 0 140.5 -55.5t56.5 -137.5q0 -78 -57.5 -133t-139.5 -55q-78 0 -135 56t-57 132q0 79 56 136t136 57zM1831 3441q111 -49 111 -197q0 -106 -73 -180t-177 -74q-120 0 -189 94v13q90 -66 164 -66q95 0 166.5 67.5t71.5 157.5q0 84 -74 185z
M1139 3441q110 -52 110 -197q0 -108 -70.5 -181t-174.5 -73q-120 0 -189 94v13q90 -66 160 -66q95 0 166.5 67.5t71.5 157.5t-74 185zM889 3523q81 0 137 -56t56 -137q0 -78 -57 -133t-136 -55q-82 0 -139.5 55.5t-57.5 132.5q0 80 56.5 136.5t140.5 56.5z" />
    <glyph glyph-name="Zcaron" horiz-adv-x="2626" 
d="M2265 2732l-1601 -2400h122l1573 2355l37 -49l-1540 -2306l438 4q178 0 325.5 68t227.5 182q82 118 144 250q166 -438 356 -672h-2277l1482 2228h-41q-69 4 -258 4q-275 0 -398.5 -34.5t-195.5 -133.5q-69 -99 -106 -233l-41 45q29 123 100 216t170 136q128 53 467 53
q226 0 307 -4l29 -4l78 115q-173 12 -274 12q-278 0 -420.5 -13t-227.5 -48t-163 -107q-106 -95 -172 -278l-17 32q-108 251 -283 557l-12 25h2171zM2560 180l-106 -180h-2282l-41 53h2294l69 127q-127 154 -207 295.5t-153 339.5l70 -24q60 -181 129 -300.5t211 -289.5z
M1274 3301l205 234h209l-336 -402h-258l-344 402h319zM1794 3400l-348 -414h-172l-45 49h193l331 410z" />
    <glyph glyph-name="aacute" unicode="&#xe1;" horiz-adv-x="3101" 
d="M1933 2732l-204 -238l323 -872l82 45l-295 787l209 245l53 -20l-200 -238l278 -745l94 78q26 17 78 69q48 -218 160 -409q-41 4 -86 4q-185 0 -279 -62l365 -979l299 -233h-1008l275 233l-222 582q-213 -215 -339 -422l-46 12q121 202 353 439l16 20l-37 90
q-102 -84 -217 -219t-180 -244l-37 62q-101 160 -266 377l-17 24q-155 -352 -155 -573q0 -116 42 -197.5t208 -290.5q7 -7 18 -21.5t27 -35.5h-1082l-41 53h1020l-37 45q-130 158 -171.5 246t-41.5 205q0 200 168 614l-90 90q-25 -63 -65 -188l-66 -201q-53 -163 -53 -274
q0 -77 15.5 -131.5t56 -111t129.5 -146.5q5 -10 32 -37h-999q155 81 251 163t179 201q174 272 279 574q9 23 73 233l9 25q-105 90 -304 110q115 180 168 345l123 -119q80 -64 111 -86l37 86l-25 20q-86 73 -86 74v0q-26 26 -82 70l-16 12l33 45q110 -74 200 -164l275 750
l-213 229h921zM1438 2089l-217 -582l20 -24l82 -90q72 -84 168 -226l20 -28q71 89 201 213zM1348 2318l-316 -839q177 -185 262 -308l111 -155l70 86q-126 198 -324 389l254 676zM2527 1749q42 -180 221 -496q-24 4 -53 4q-11 4 -160 17q-146 8 -159 8h-41l331 -885
l447 -397h-1155l-41 53h1061l-357 320l-356 942q62 16 156 16t205 -12l32 -4q-92 170 -129 261.5t-63 209.5zM1847 3527l-487 -398h-213l295 398h405zM1233 2961l-45 58h246l491 397l37 -49l-500 -406h-229z" />
    <glyph glyph-name="acircumflex" unicode="&#xe2;" horiz-adv-x="3101" 
d="M1933 2732l-204 -238l323 -872l82 45l-295 787l209 245l53 -20l-200 -238l278 -745l94 78q26 17 78 69q48 -218 160 -409q-41 4 -86 4q-185 0 -279 -62l365 -979l299 -233h-1008l275 233l-222 582q-213 -215 -339 -422l-46 12q121 202 353 439l16 20l-37 90
q-102 -84 -217 -219t-180 -244l-37 62q-101 160 -266 377l-17 24q-155 -352 -155 -573q0 -116 42 -197.5t208 -290.5q7 -7 18 -21.5t27 -35.5h-1082l-41 53h1020l-37 45q-130 158 -171.5 246t-41.5 205q0 200 168 614l-90 90q-25 -63 -65 -188l-66 -201q-53 -163 -53 -274
q0 -77 15.5 -131.5t56 -111t129.5 -146.5q5 -10 32 -37h-999q155 81 251 163t179 201q174 272 279 574q9 23 73 233l9 25q-105 90 -304 110q115 180 168 345l123 -119q80 -64 111 -86l37 86l-25 20q-86 73 -86 74v0q-26 26 -82 70l-16 12l33 45q110 -74 200 -164l275 750
l-213 229h921zM1438 2089l-217 -582l20 -24l82 -90q72 -84 168 -226l20 -28q71 89 201 213zM1348 2318l-316 -839q177 -185 262 -308l111 -155l70 86q-126 198 -324 389l254 676zM2527 1749q42 -180 221 -496q-24 4 -53 4q-11 4 -160 17q-146 8 -159 8h-41l331 -885
l447 -397h-1155l-41 53h1061l-357 320l-356 942q62 16 156 16t205 -12l32 -4q-92 170 -129 261.5t-63 209.5zM1380 3277l-237 -283h-176l-37 41h192l230 270l-50 62l-204 -234h-209l336 402h258l344 -402h-320zM2101 2994h-467l-33 41h398l-348 406l77 -17z" />
    <glyph glyph-name="adieresis" unicode="&#xe4;" horiz-adv-x="3101" 
d="M1933 2732l-204 -238l323 -872l82 45l-295 787l209 245l53 -20l-200 -238l278 -745l94 78q26 17 78 69q48 -218 160 -409q-41 4 -86 4q-185 0 -279 -62l365 -979l299 -233h-1008l275 233l-222 582q-213 -215 -339 -422l-46 12q121 202 353 439l16 20l-37 90
q-102 -84 -217 -219t-180 -244l-37 62q-101 160 -266 377l-17 24q-155 -352 -155 -573q0 -116 42 -197.5t208 -290.5q7 -7 18 -21.5t27 -35.5h-1082l-41 53h1020l-37 45q-130 158 -171.5 246t-41.5 205q0 200 168 614l-90 90q-25 -63 -65 -188l-66 -201q-53 -163 -53 -274
q0 -77 15.5 -131.5t56 -111t129.5 -146.5q5 -10 32 -37h-999q155 81 251 163t179 201q174 272 279 574q9 23 73 233l9 25q-105 90 -304 110q115 180 168 345l123 -119q80 -64 111 -86l37 86l-25 20q-86 73 -86 74v0q-26 26 -82 70l-16 12l33 45q110 -74 200 -164l275 750
l-213 229h921zM1438 2089l-217 -582l20 -24l82 -90q72 -84 168 -226l20 -28q71 89 201 213zM1348 2318l-316 -839q177 -185 262 -308l111 -155l70 86q-126 198 -324 389l254 676zM2527 1749q42 -180 221 -496q-24 4 -53 4q-11 4 -160 17q-146 8 -159 8h-41l331 -885
l447 -397h-1155l-41 53h1061l-357 320l-356 942q62 16 156 16t205 -12l32 -4q-92 170 -129 261.5t-63 209.5zM1786 3527q84 0 140.5 -55.5t56.5 -137.5q0 -78 -57.5 -133t-139.5 -55q-78 0 -135 56t-57 132q0 79 56 136t136 57zM2036 3445q111 -49 111 -197q0 -106 -73 -180
t-177 -74q-120 0 -189 94v13q90 -66 164 -66q95 0 166.5 67.5t71.5 157.5q0 84 -74 185zM1344 3445q110 -52 110 -197q0 -108 -70.5 -181t-174.5 -73q-120 0 -189 94v13q90 -66 160 -66q95 0 166.5 67.5t71.5 157.5t-74 185zM1094 3527q81 0 137 -56t56 -137q0 -78 -57 -133
t-136 -55q-82 0 -139.5 55.5t-57.5 132.5q0 80 56.5 136.5t140.5 56.5z" />
    <glyph glyph-name="agrave" unicode="&#xe0;" horiz-adv-x="3101" 
d="M1933 2732l-204 -238l323 -872l82 45l-295 787l209 245l53 -20l-200 -238l278 -745l94 78q26 17 78 69q48 -218 160 -409q-41 4 -86 4q-185 0 -279 -62l365 -979l299 -233h-1008l275 233l-222 582q-213 -215 -339 -422l-46 12q121 202 353 439l16 20l-37 90
q-102 -84 -217 -219t-180 -244l-37 62q-101 160 -266 377l-17 24q-155 -352 -155 -573q0 -116 42 -197.5t208 -290.5q7 -7 18 -21.5t27 -35.5h-1082l-41 53h1020l-37 45q-130 158 -171.5 246t-41.5 205q0 200 168 614l-90 90q-25 -63 -65 -188l-66 -201q-53 -163 -53 -274
q0 -77 15.5 -131.5t56 -111t129.5 -146.5q5 -10 32 -37h-999q155 81 251 163t179 201q174 272 279 574q9 23 73 233l9 25q-105 90 -304 110q115 180 168 345l123 -119q80 -64 111 -86l37 86l-25 20q-86 73 -86 74v0q-26 26 -82 70l-16 12l33 45q110 -74 200 -164l275 750
l-213 229h921zM1438 2089l-217 -582l20 -24l82 -90q72 -84 168 -226l20 -28q71 89 201 213zM1348 2318l-316 -839q177 -185 262 -308l111 -155l70 86q-126 198 -324 389l254 676zM2527 1749q42 -180 221 -496q-24 4 -53 4q-11 4 -160 17q-146 8 -159 8h-41l331 -885
l447 -397h-1155l-41 53h1061l-357 320l-356 942q62 16 156 16t205 -12l32 -4q-92 170 -129 261.5t-63 209.5zM1340 3482l274 -385h-234l-458 385h418zM1880 2961h-336l-57 50h279l-250 348l86 -17z" />
    <glyph glyph-name="aring" unicode="&#xe5;" horiz-adv-x="3101" 
d="M1933 2732l-204 -238l323 -872l82 45l-295 787l209 245l53 -20l-200 -238l278 -745l94 78q26 17 78 69q48 -218 160 -409q-41 4 -86 4q-185 0 -279 -62l365 -979l299 -233h-1008l275 233l-222 582q-213 -215 -339 -422l-46 12q121 202 353 439l16 20l-37 90
q-102 -84 -217 -219t-180 -244l-37 62q-101 160 -266 377l-17 24q-155 -352 -155 -573q0 -116 42 -197.5t208 -290.5q7 -7 18 -21.5t27 -35.5h-1082l-41 53h1020l-37 45q-130 158 -171.5 246t-41.5 205q0 200 168 614l-90 90q-25 -63 -65 -188l-66 -201q-53 -163 -53 -274
q0 -77 15.5 -131.5t56 -111t129.5 -146.5q5 -10 32 -37h-999q155 81 251 163t179 201q174 272 279 574q9 23 73 233l9 25q-105 90 -304 110q115 180 168 345l123 -119q80 -64 111 -86l37 86l-25 20q-86 73 -86 74v0q-26 26 -82 70l-16 12l33 45q110 -74 200 -164l275 750
l-213 229h921zM1438 2089l-217 -582l20 -24l82 -90q72 -84 168 -226l20 -28q71 89 201 213zM1348 2318l-316 -839q177 -185 262 -308l111 -155l70 86q-126 198 -324 389l254 676zM2527 1749q42 -180 221 -496q-24 4 -53 4q-11 4 -160 17q-146 8 -159 8h-41l331 -885
l447 -397h-1155l-41 53h1061l-357 320l-356 942q62 16 156 16t205 -12l32 -4q-92 170 -129 261.5t-63 209.5zM1675 3576q84 -43 134.5 -124t50.5 -175q0 -144 -99 -248t-237 -104q-169 0 -275 118l17 13q111 -95 233 -95q129 0 222.5 93.5t93.5 222.5q0 171 -160 282z
M1401 3637q120 0 203.5 -83.5t83.5 -202.5q0 -120 -83.5 -203.5t-203.5 -83.5q-119 0 -203 84t-84 203q0 116 84 201t203 85zM1401 3478q-54 0 -92.5 -37.5t-38.5 -89.5q0 -55 39.5 -93.5t91.5 -38.5q55 0 93 38t38 94q0 53 -37 90t-94 37z" />
    <glyph glyph-name="atilde" unicode="&#xe3;" horiz-adv-x="3101" 
d="M1933 2732l-204 -238l323 -872l82 45l-295 787l209 245l53 -20l-200 -238l278 -745l94 78q26 17 78 69q48 -218 160 -409q-41 4 -86 4q-185 0 -279 -62l365 -979l299 -233h-1008l275 233l-222 582q-213 -215 -339 -422l-46 12q121 202 353 439l16 20l-37 90
q-102 -84 -217 -219t-180 -244l-37 62q-101 160 -266 377l-17 24q-155 -352 -155 -573q0 -116 42 -197.5t208 -290.5q7 -7 18 -21.5t27 -35.5h-1082l-41 53h1020l-37 45q-130 158 -171.5 246t-41.5 205q0 200 168 614l-90 90q-25 -63 -65 -188l-66 -201q-53 -163 -53 -274
q0 -77 15.5 -131.5t56 -111t129.5 -146.5q5 -10 32 -37h-999q155 81 251 163t179 201q174 272 279 574q9 23 73 233l9 25q-105 90 -304 110q115 180 168 345l123 -119q80 -64 111 -86l37 86l-25 20q-86 73 -86 74v0q-26 26 -82 70l-16 12l33 45q110 -74 200 -164l275 750
l-213 229h921zM1438 2089l-217 -582l20 -24l82 -90q72 -84 168 -226l20 -28q71 89 201 213zM1348 2318l-316 -839q177 -185 262 -308l111 -155l70 86q-126 198 -324 389l254 676zM2527 1749q42 -180 221 -496q-24 4 -53 4q-11 4 -160 17q-146 8 -159 8h-41l331 -885
l447 -397h-1155l-41 53h1061l-357 320l-356 942q62 16 156 16t205 -12l32 -4q-92 170 -129 261.5t-63 209.5zM2032 3519q4 -25 4 -54q0 -144 -91 -246t-220 -102q-135 0 -373 119q-138 66 -189 66q-62 0 -102 -42t-49 -114h-143v16q0 161 107 275t257 114q90 0 153 -24.5
t224 -122.5q97 -57 151 -57q56 0 91.5 41t35.5 106v25h144zM2146 3461l41 -37v-16q0 -169 -108 -291.5t-260 -122.5q-101 0 -225 62l24 24q120 -41 193 -41q145 0 230.5 103.5t100.5 294.5zM1176 3207v-61q-40 -57 -58 -148h-159l-29 46h156q24 116 90 163z" />
    <glyph glyph-name="brokenbar" 
d="M872 2728h304v-1405h-304v1405zM872 627h304v-1311h-304v1311z" />
    <glyph glyph-name="ccedilla" unicode="&#xe7;" horiz-adv-x="2425" 
d="M1327 98l-41 -164q205 0 205 -249q0 -174 -107 -290t-270 -116q-196 0 -311 197l12 12l70 41q57 38 131 98q0 -87 32.5 -137.5t86.5 -50.5q57 0 100 76t43 182q0 135 -111 135q-57 0 -102 -61l-37 32q26 60 53 144l4 12q-123 20 -206.5 56.5t-206.5 123.5v17
q108 -71 196 -101t230 -47q6 20 8.5 28t4.5 16.5t7 33.5l4 12q-244 26 -434 127.5t-322.5 275t-202 414t-69.5 531.5q0 378 145 688t399 487t562 177q153 0 233.5 -18t278.5 -93q149 -57 238 -57q110 0 200 57l33 -16l-24 -41q-171 -295 -312 -627l-16 -45l-25 12
q-33 204 -119 352.5t-216 228t-287 79.5q-131 0 -258 -75t-201 -196q-61 -103 -100 -231.5t-57.5 -290.5t-18.5 -367q0 -376 87.5 -648.5t255 -416t398.5 -143.5q188 0 325 82.5t218.5 244.5t103.5 394q7 82 62 82q82 0 82 -131q0 -95 -32.5 -230t-78.5 -221
q-85 -168 -251 -266.5t-392 -118.5zM1602 2322q-109 88 -179 118t-166 30q-168 0 -284.5 -112t-176 -334t-59.5 -541q0 -298 55 -535.5t160 -392.5t248 -211v-20q-120 26 -214.5 117.5t-164 245t-105.5 358.5t-36 438q0 504 146.5 770t422.5 266q112 0 187 -37t166 -135v-25
zM1499 -123q135 -105 135 -311q0 -160 -115.5 -283t-269.5 -123q-171 0 -262 90v17q109 -66 217 -66q151 0 264 125t113 289q0 134 -98 250zM1139 -283q13 66 90 66v-21q-35 -17 -66 -77zM2253 950q-15 -239 -66 -401.5t-155 -290.5q-102 -126 -207.5 -188t-292.5 -103
l-21 -4l-53 49q147 11 288.5 89.5t240.5 201.5q98 119 142 256t62 371l4 45zM2327 2572l-21 -37q-214 -361 -348 -680l-53 29l196 397l180 320zM1147 -467l45 -25l-37 -24z" />
    <glyph glyph-name="copyright" unicode="&#xa9;" horiz-adv-x="3211" 
d="M2179 2327l-53 16q-166 64 -284 87.5t-265 23.5q-241 0 -446.5 -72t-323.5 -199t-184 -340t-66 -467q0 -238 71 -438.5t199 -319.5q84 -79 151.5 -124t154 -78t256.5 -80l-29 -21q-10 4 -37.5 10t-40.5 11q-350 107 -520 258q-266 228 -266 790q0 256 71.5 482t190.5 354
q265 283 815 283q195 0 356.5 -47t249.5 -129zM2138 2163l-16 -25q-116 -187 -201 -377l-12 -28l-17 8q-30 183 -139 290t-266 107q-199 0 -306.5 -179.5t-107.5 -516.5q0 -224 57 -388t166.5 -250.5t259.5 -86.5q373 0 422 434q6 49 41 49q54 0 54 -78q0 -145 -67.5 -259
t-187.5 -179.5t-270 -65.5q-240 0 -414 95t-265 277.5t-91 439.5q0 226 94.5 410.5t259.5 290t367 105.5q102 0 156.5 -10t175.5 -55q92 -33 156 -33q77 0 131 33zM1786 1929q-117 82 -221 82q-157 0 -240.5 -148t-83.5 -429q0 -268 73.5 -442t209.5 -230v-25
q-153 32 -244.5 221t-91.5 476q0 300 95.5 461t272.5 161q128 0 230 -102v-25zM2228 1106q-21 -302 -180.5 -458t-445.5 -156q-226 0 -418 135v12q160 -102 401 -102q264 0 414.5 144.5t171.5 420.5l4 28zM2273 2081l-16 -25q-132 -205 -225 -405l-50 24l17 29
q69 138 217 377l12 24zM2888 1430q0 -299 -92 -539t-268 -411t-425.5 -260t-558.5 -89q-407 0 -728.5 167t-499 466.5t-177.5 677.5q0 299 98 542.5t281.5 416t442.5 264.5t575 92q287 0 533.5 -99t431.5 -280.5t286 -424t101 -523.5zM2638 1483q0 361 -127.5 614.5
t-375.5 384.5t-599 131q-1155 0 -1155 -1216q0 -363 131 -615.5t387.5 -382t624.5 -129.5q583 0 872 353q136 165 189 352t53 508zM2335 2654q232 -91 398.5 -274t254.5 -439.5t88 -564.5q0 -405 -187 -725t-523 -498t-760 -178q-429 0 -803 230v8q318 -180 786 -180
q309 0 574 99t457.5 279.5t297.5 427.5t105 537q0 441 -179.5 768.5t-508.5 489.5v20z" />
    <glyph glyph-name="degree" unicode="&#xb0;" horiz-adv-x="1241" 
d="M864 2691q106 -56 170 -163t64 -226q0 -136 -63 -252t-171 -182t-237 -66q-215 0 -353 144l17 8q151 -111 303 -111q185 0 317.5 135t132.5 320q0 231 -200 373zM516 2769q114 0 208 -55.5t148 -150t54 -204.5q0 -173 -119 -293t-291 -120q-170 0 -290 120t-120 293
q0 111 55 205t149.5 149.5t205.5 55.5zM516 2597q-98 0 -170 -71t-72 -171q0 -98 72.5 -169.5t169.5 -71.5q100 0 171 70t71 171q0 66 -32 122t-88 88t-122 32z" />
    <glyph glyph-name="divide" unicode="&#xf7;" horiz-adv-x="2404" 
d="M1937 1589v-250h-1630v250h1630zM2052 1479l45 -45v-258h-1687l-37 53h1679v250zM1114 2277q57 0 105 -28t76 -76t28 -105q0 -86 -62 -147t-147 -61t-147 62t-62 146q0 85 61 147t148 62zM1376 2200q59 -47 81 -89.5t22 -115.5q0 -71 -39.5 -136t-105.5 -104t-138 -39
q-78 0 -120.5 21t-88.5 82l8 12q109 -62 189 -62q102 0 171.5 70.5t69.5 175.5q0 82 -65 172zM1114 1065q57 0 105 -28t76 -76t28 -105q0 -87 -61.5 -146t-147.5 -59t-147.5 60t-61.5 145t61 147t148 62zM1376 987q59 -45 81 -88t22 -117q0 -71 -39.5 -135.5t-105.5 -103.5
t-138 -39q-77 0 -120.5 21.5t-88.5 80.5l8 12q107 -61 189 -61q102 0 171.5 70.5t69.5 175.5q0 81 -65 172z" />
    <glyph glyph-name="eacute" unicode="&#xe9;" horiz-adv-x="2548" 
d="M2249 2732l-33 -41q-125 -152 -187.5 -262t-136.5 -311q-4 10 -15.5 36t-12.5 29q-76 169 -150 247t-191 106t-347 28q-197 0 -361 -8v-922h127v815q135 13 291 13q175 0 279.5 -22.5t175.5 -78.5t135 -161q-21 12 -41 32q-106 82 -111 82q-74 56 -155 74q-93 16 -259 16
q-69 0 -221 -8h-41v-762h365l258 357v-861l-258 332h-545v-1122h127v1028h434l54 -53h-435v-975h29q290 0 471 33q227 44 348 254l107 180l24 45q50 -222 127 -354t258 -305h-2240l303 229v893q-168 -15 -303 -103l-29 41q113 88 332 115v94q-13 0 -26 2t-15 2
q-211 0 -381 -151q49 170 145.5 243t276.5 76v856l-303 242h2130zM2347 2593l-16 -21q-165 -225 -218 -314t-106 -235l-37 41q134 305 348 570zM1757 1925v-885l-49 25v885zM2589 180l-107 -180h-2183l-33 53h2188l69 127q-155 145 -247.5 275.5t-157.5 294.5l65 -25
q65 -154 137.5 -254t235.5 -258zM1483 3527l-487 -398h-213l295 398h405zM869 2961l-45 58h246l491 397l37 -49l-500 -406h-229z" />
    <glyph glyph-name="ecircumflex" unicode="&#xea;" horiz-adv-x="2548" 
d="M2249 2732l-33 -41q-125 -152 -187.5 -262t-136.5 -311q-4 10 -15.5 36t-12.5 29q-76 169 -150 247t-191 106t-347 28q-197 0 -361 -8v-922h127v815q135 13 291 13q175 0 279.5 -22.5t175.5 -78.5t135 -161q-21 12 -41 32q-106 82 -111 82q-74 56 -155 74q-93 16 -259 16
q-69 0 -221 -8h-41v-762h365l258 357v-861l-258 332h-545v-1122h127v1028h434l54 -53h-435v-975h29q290 0 471 33q227 44 348 254l107 180l24 45q50 -222 127 -354t258 -305h-2240l303 229v893q-168 -15 -303 -103l-29 41q113 88 332 115v94q-13 0 -26 2t-15 2
q-211 0 -381 -151q49 170 145.5 243t276.5 76v856l-303 242h2130zM2347 2593l-16 -21q-165 -225 -218 -314t-106 -235l-37 41q134 305 348 570zM1757 1925v-885l-49 25v885zM2589 180l-107 -180h-2183l-33 53h2188l69 127q-155 145 -247.5 275.5t-157.5 294.5l65 -25
q65 -154 137.5 -254t235.5 -258zM1155 3277l-237 -283h-176l-37 41h192l230 270l-50 62l-204 -234h-209l336 402h258l344 -402h-320zM1876 2994h-467l-33 41h398l-348 406l77 -17z" />
    <glyph glyph-name="edieresis" unicode="&#xeb;" horiz-adv-x="2548" 
d="M2249 2732l-33 -41q-125 -152 -187.5 -262t-136.5 -311q-4 10 -15.5 36t-12.5 29q-76 169 -150 247t-191 106t-347 28q-197 0 -361 -8v-922h127v815q135 13 291 13q175 0 279.5 -22.5t175.5 -78.5t135 -161q-21 12 -41 32q-106 82 -111 82q-74 56 -155 74q-93 16 -259 16
q-69 0 -221 -8h-41v-762h365l258 357v-861l-258 332h-545v-1122h127v1028h434l54 -53h-435v-975h29q290 0 471 33q227 44 348 254l107 180l24 45q50 -222 127 -354t258 -305h-2240l303 229v893q-168 -15 -303 -103l-29 41q113 88 332 115v94q-13 0 -26 2t-15 2
q-211 0 -381 -151q49 170 145.5 243t276.5 76v856l-303 242h2130zM2347 2593l-16 -21q-165 -225 -218 -314t-106 -235l-37 41q134 305 348 570zM1757 1925v-885l-49 25v885zM2589 180l-107 -180h-2183l-33 53h2188l69 127q-155 145 -247.5 275.5t-157.5 294.5l65 -25
q65 -154 137.5 -254t235.5 -258zM1429 3527q84 0 140.5 -55.5t56.5 -137.5q0 -78 -57.5 -133t-139.5 -55q-78 0 -135 56t-57 132q0 79 56 136t136 57zM1679 3445q111 -49 111 -197q0 -106 -73 -180t-177 -74q-120 0 -189 94v13q90 -66 164 -66q95 0 166.5 67.5t71.5 157.5
q0 84 -74 185zM987 3445q110 -52 110 -197q0 -108 -70.5 -181t-174.5 -73q-120 0 -189 94v13q90 -66 160 -66q95 0 166.5 67.5t71.5 157.5t-74 185zM737 3527q81 0 137 -56t56 -137q0 -78 -57 -133t-136 -55q-82 0 -139.5 55.5t-57.5 132.5q0 80 56.5 136.5t140.5 56.5z" />
    <glyph glyph-name="egrave" unicode="&#xe8;" horiz-adv-x="2548" 
d="M2249 2732l-33 -41q-125 -152 -187.5 -262t-136.5 -311q-4 10 -15.5 36t-12.5 29q-76 169 -150 247t-191 106t-347 28q-197 0 -361 -8v-922h127v815q135 13 291 13q175 0 279.5 -22.5t175.5 -78.5t135 -161q-21 12 -41 32q-106 82 -111 82q-74 56 -155 74q-93 16 -259 16
q-69 0 -221 -8h-41v-762h365l258 357v-861l-258 332h-545v-1122h127v1028h434l54 -53h-435v-975h29q290 0 471 33q227 44 348 254l107 180l24 45q50 -222 127 -354t258 -305h-2240l303 229v893q-168 -15 -303 -103l-29 41q113 88 332 115v94q-13 0 -26 2t-15 2
q-211 0 -381 -151q49 170 145.5 243t276.5 76v856l-303 242h2130zM2347 2593l-16 -21q-165 -225 -218 -314t-106 -235l-37 41q134 305 348 570zM1757 1925v-885l-49 25v885zM2589 180l-107 -180h-2183l-33 53h2188l69 127q-155 145 -247.5 275.5t-157.5 294.5l65 -25
q65 -154 137.5 -254t235.5 -258zM1127 3482l274 -385h-234l-458 385h418zM1667 2961h-336l-57 50h279l-250 348l86 -17z" />
    <glyph glyph-name="eth" horiz-adv-x="2474" 
d="M139 2732h828q367 0 605.5 -95.5t385.5 -301.5q133 -179 187.5 -387t54.5 -531q0 -227 -49.5 -427t-143 -354t-225.5 -255q-145 -115 -337.5 -166t-481.5 -51h-881l274 209v942h-155l-21 53h176v86h-250l-69 184h319v869zM750 2556v-918h110v791q70 16 197 16
q154 0 248.5 -32.5t189.5 -118.5q-220 94 -451 94q-73 0 -135 -8v-742h320l65 -184h-544v-1135h110v1049h565l-77 209l53 -25l94 -237h-586v-996q29 -4 58 -4q182 0 316 53t227.5 168t156.5 295q94 281 94 631q0 388 -102 647q-64 163 -167.5 262.5t-263 144t-397.5 44.5
q-40 0 -81 -4zM1958 2474q422 -277 422 -975q0 -318 -43.5 -528t-145.5 -398q-121 -218 -307 -344q-317 -229 -901 -229h-778l-29 53h795q693 0 1026.5 341.5t333.5 1047.5q0 279 -36.5 438.5t-140.5 339.5q-52 93 -196 254z" />
    <glyph glyph-name="iacute" unicode="&#xed;" horiz-adv-x="1254" 
d="M82 2732h950l-270 -274v-2081l254 -213h-934l278 229v2089zM1122 2617l-204 -200v-2040l335 -377h-1040l-49 53h971l-275 303v2077l225 225zM889 3527l-487 -398h-213l295 398h405zM275 2961l-45 58h246l491 397l37 -49l-500 -406h-229z" />
    <glyph glyph-name="icircumflex" unicode="&#xee;" horiz-adv-x="1253" 
d="M82 2732h950l-270 -274v-2081l254 -213h-934l278 229v2089zM1122 2617l-204 -200v-2040l335 -377h-1040l-49 53h971l-275 303v2077l225 225zM565 3277l-237 -283h-176l-37 41h192l230 270l-50 62l-204 -234h-209l336 402h258l344 -402h-320zM1286 2994h-467l-33 41h398
l-348 406l77 -17z" />
    <glyph glyph-name="idieresis" unicode="&#xef;" horiz-adv-x="1254" 
d="M82 2732h950l-270 -274v-2081l254 -213h-934l278 229v2089zM1122 2617l-204 -200v-2040l335 -377h-1040l-49 53h971l-275 303v2077l225 225zM893 3527q84 0 140.5 -55.5t56.5 -137.5q0 -78 -57.5 -133t-139.5 -55q-78 0 -135 56t-57 132q0 79 56 136t136 57zM1143 3445
q111 -49 111 -197q0 -106 -73 -180t-177 -74q-120 0 -189 94v13q90 -66 164 -66q95 0 166.5 67.5t71.5 157.5q0 84 -74 185zM451 3445q110 -52 110 -197q0 -108 -70.5 -181t-174.5 -73q-120 0 -189 94v13q90 -66 160 -66q95 0 166.5 67.5t71.5 157.5t-74 185zM201 3527
q81 0 137 -56t56 -137q0 -78 -57 -133t-136 -55q-82 0 -139.5 55.5t-57.5 132.5q0 80 56.5 136.5t140.5 56.5z" />
    <glyph glyph-name="igrave" unicode="&#xec;" horiz-adv-x="1253" 
d="M82 2732h950l-270 -274v-2081l254 -213h-934l278 229v2089zM1122 2617l-204 -200v-2040l335 -377h-1040l-49 53h971l-275 303v2077l225 225zM631 3515l274 -385h-234l-458 385h418zM1171 2994h-336l-57 50h279l-250 348l86 -17z" />
    <glyph glyph-name="logicalnot" unicode="&#xac;" 
d="M1405 0v872h-1270v222h1778v-1094h-508z" />
    <glyph glyph-name="minus" horiz-adv-x="2404" 
d="M1937 1585v-250h-1630v250h1630zM2052 1475l45 -45v-259h-1687l-37 58h1679v246z" />
    <glyph glyph-name="mu" unicode="&#xb5;" horiz-adv-x="2261" 
d="M1925 1872v-1368q0 -195 31 -259.5t125 -64.5q35 0 127 33v-70l-422 -188q-1 0 -8 -2t-13 -2q-85 0 -134 70t-87 249q-206 -206 -312 -268.5t-249 -62.5q-183 0 -287.5 79t-175.5 273v-94q0 -193 45 -377q27 -122 41 -193q33 -129 33 -192q0 -102 -56 -164t-145 -62
q-96 0 -150.5 60t-54.5 166q0 59 33 241q119 672 119 1397v799h406v-1176q0 -540 311 -540q125 0 214 59t204 219v1438h405z" />
    <glyph glyph-name="multiply" horiz-adv-x="2404" 
d="M393 1962l176 176l541 -541l45 41l-414 414l62 16l389 -389l446 447l177 -180l-525 -525l508 -512l-176 -176l-393 393l-508 -508l-66 17l533 532l-78 74l-524 -524l-176 176l524 528zM1487 1384l504 -503l-185 -185l-61 4l172 172l-508 512l528 533l-172 176h62
l184 -184z" />
    <glyph glyph-name="ntilde" unicode="&#xf1;" horiz-adv-x="2457" 
d="M2535 2580l-36 -57q-105 -25 -160.5 -73t-79 -137.5t-23.5 -248.5v-2064h-430l-28 53h405v1991q0 282 72 392.5t280 143.5zM467 1745v762l-266 225h1011l-286 -192l970 -1889v242l-831 1614l283 192l32 -37l-245 -168l761 -1495v1041q0 242 -23.5 360.5t-91 186
t-225.5 145.5h910q-165 -86 -248 -167t-114 -196t-31 -313v-1892h-340l-942 1831v-1176q0 -227 48 -351.5t156 -234.5l13 -12q-144 49 -209.5 190t-65.5 400v1282l-106 213v-1155q0 -284 9.5 -425t36.5 -222t85 -152q57 -70 109 -101t169 -67l176 -184h-1085l-29 53h1000
l-103 111h-934q236 84 312 221q55 101 74.5 207t19.5 313v840zM1774 3527q4 -25 4 -54q0 -144 -91 -246t-220 -102q-135 0 -373 119q-138 66 -189 66q-62 0 -102 -42t-49 -114h-143v16q0 161 107 275t257 114q90 0 153 -24.5t224 -122.5q97 -57 151 -57q56 0 91.5 41
t35.5 106v25h144zM1888 3469l41 -37v-16q0 -169 -108 -291.5t-260 -122.5q-101 0 -225 62l24 24q120 -41 193 -41q145 0 230.5 103.5t100.5 294.5zM918 3215v-61q-40 -57 -58 -148h-159l-29 46h156q24 116 90 163z" />
    <glyph glyph-name="oacute" unicode="&#xf3;" horiz-adv-x="2556" 
d="M1647 2314q-134 77 -216.5 104t-181.5 27q-544 0 -544 -1069q0 -773 335 -1028l-16 -20q-142 98 -226 233.5t-121.5 332t-37.5 490.5q0 1110 606 1110q126 0 233.5 -47t168.5 -133zM2302 1430q0 -305 -75 -553.5t-217.5 -423.5t-343.5 -267t-449 -92q-335 0 -598.5 171.5
t-410.5 479t-147 697.5q0 306 80 559t229.5 430t362 272t471.5 95q245 0 449 -97.5t348.5 -277.5t222.5 -432t78 -561zM1847 1487q0 526 -127 811q-71 147 -211 235t-305 88q-696 0 -696 -1224q0 -1131 684 -1131q344 0 516 357q53 119 82.5 236t43 265.5t13.5 362.5z
M1860 2691q198 -96 341.5 -283.5t220.5 -452.5t77 -579q0 -316 -88 -579t-252.5 -458.5t-389 -300t-491.5 -104.5q-346 0 -660 234v12q258 -184 644 -184q255 0 471.5 100.5t376.5 287.5t245.5 441t85.5 551q0 302 -68.5 555.5t-198.5 441t-314 298.5v20zM1556 3527
l-487 -398h-213l295 398h405zM942 2961l-45 58h246l491 397l37 -49l-500 -406h-229z" />
    <glyph glyph-name="ocircumflex" unicode="&#xf4;" horiz-adv-x="2556" 
d="M1647 2314q-134 77 -216.5 104t-181.5 27q-544 0 -544 -1069q0 -773 335 -1028l-16 -20q-142 98 -226 233.5t-121.5 332t-37.5 490.5q0 1110 606 1110q126 0 233.5 -47t168.5 -133zM2302 1430q0 -305 -75 -553.5t-217.5 -423.5t-343.5 -267t-449 -92q-335 0 -598.5 171.5
t-410.5 479t-147 697.5q0 306 80 559t229.5 430t362 272t471.5 95q245 0 449 -97.5t348.5 -277.5t222.5 -432t78 -561zM1847 1487q0 526 -127 811q-71 147 -211 235t-305 88q-696 0 -696 -1224q0 -1131 684 -1131q344 0 516 357q53 119 82.5 236t43 265.5t13.5 362.5z
M1860 2691q198 -96 341.5 -283.5t220.5 -452.5t77 -579q0 -316 -88 -579t-252.5 -458.5t-389 -300t-491.5 -104.5q-346 0 -660 234v12q258 -184 644 -184q255 0 471.5 100.5t376.5 287.5t245.5 441t85.5 551q0 302 -68.5 555.5t-198.5 441t-314 298.5v20zM1179 3277
l-237 -283h-176l-37 41h192l230 270l-50 62l-204 -234h-209l336 402h258l344 -402h-320zM1900 2994h-467l-33 41h398l-348 406l77 -17z" />
    <glyph glyph-name="odieresis" unicode="&#xf6;" horiz-adv-x="2556" 
d="M1647 2314q-134 77 -216.5 104t-181.5 27q-544 0 -544 -1069q0 -773 335 -1028l-16 -20q-142 98 -226 233.5t-121.5 332t-37.5 490.5q0 1110 606 1110q126 0 233.5 -47t168.5 -133zM2302 1430q0 -305 -75 -553.5t-217.5 -423.5t-343.5 -267t-449 -92q-335 0 -598.5 171.5
t-410.5 479t-147 697.5q0 306 80 559t229.5 430t362 272t471.5 95q245 0 449 -97.5t348.5 -277.5t222.5 -432t78 -561zM1847 1487q0 526 -127 811q-71 147 -211 235t-305 88q-696 0 -696 -1224q0 -1131 684 -1131q344 0 516 357q53 119 82.5 236t43 265.5t13.5 362.5z
M1860 2691q198 -96 341.5 -283.5t220.5 -452.5t77 -579q0 -316 -88 -579t-252.5 -458.5t-389 -300t-491.5 -104.5q-346 0 -660 234v12q258 -184 644 -184q255 0 471.5 100.5t376.5 287.5t245.5 441t85.5 551q0 302 -68.5 555.5t-198.5 441t-314 298.5v20zM1470 3527
q84 0 140.5 -55.5t56.5 -137.5q0 -78 -57.5 -133t-139.5 -55q-78 0 -135 56t-57 132q0 79 56 136t136 57zM1720 3445q111 -49 111 -197q0 -106 -73 -180t-177 -74q-120 0 -189 94v13q90 -66 164 -66q95 0 166.5 67.5t71.5 157.5q0 84 -74 185zM1028 3445q110 -52 110 -197
q0 -108 -70.5 -181t-174.5 -73q-120 0 -189 94v13q90 -66 160 -66q95 0 166.5 67.5t71.5 157.5t-74 185zM778 3527q81 0 137 -56t56 -137q0 -78 -57 -133t-136 -55q-82 0 -139.5 55.5t-57.5 132.5q0 80 56.5 136.5t140.5 56.5z" />
    <glyph glyph-name="ograve" unicode="&#xf2;" horiz-adv-x="2556" 
d="M1647 2314q-134 77 -216.5 104t-181.5 27q-544 0 -544 -1069q0 -773 335 -1028l-16 -20q-142 98 -226 233.5t-121.5 332t-37.5 490.5q0 1110 606 1110q126 0 233.5 -47t168.5 -133zM2302 1430q0 -305 -75 -553.5t-217.5 -423.5t-343.5 -267t-449 -92q-335 0 -598.5 171.5
t-410.5 479t-147 697.5q0 306 80 559t229.5 430t362 272t471.5 95q245 0 449 -97.5t348.5 -277.5t222.5 -432t78 -561zM1847 1487q0 526 -127 811q-71 147 -211 235t-305 88q-696 0 -696 -1224q0 -1131 684 -1131q344 0 516 357q53 119 82.5 236t43 265.5t13.5 362.5z
M1860 2691q198 -96 341.5 -283.5t220.5 -452.5t77 -579q0 -316 -88 -579t-252.5 -458.5t-389 -300t-491.5 -104.5q-346 0 -660 234v12q258 -184 644 -184q255 0 471.5 100.5t376.5 287.5t245.5 441t85.5 551q0 302 -68.5 555.5t-198.5 441t-314 298.5v20zM1135 3482
l274 -385h-234l-458 385h418zM1675 2961h-336l-57 50h279l-250 348l86 -17z" />
    <glyph glyph-name="onehalf" horiz-adv-x="3510" 
d="M872 2732v-1339l123 -136h-499l155 136v983q-65 -33 -143 -33q-53 0 -86.5 22.5t-81.5 88.5l16 -5l74 -49q21 -16 78 -16q62 0 143 41v94q-35 -26 -92 -43.5t-100 -17.5q-60 0 -102 27.5t-42 66.5q0 65 58 65q49 0 49 -45v-16v-8q0 -21 33 -21q78 0 157.5 59t116.5 146
h143zM958 2687l46 -25v-1314l225 -254h-664l-24 41h606l-189 208v1344zM2658 2773l-1585 -2621h-188l1581 2621h192zM922 33h208l1623 2683l36 -41l-1626 -2695h-221zM3265 508v-344h-1131q44 189 158.5 329t324.5 265q234 138 311.5 238.5t77.5 273.5q0 135 -88 219
t-227 84q-137 0 -222 -70.5t-85 -183.5q0 -91 52.5 -150t131.5 -59q88 0 152 70l20 -9q-18 -97 -88.5 -152.5t-181.5 -55.5q-129 0 -218 87t-89 216q0 181 147.5 293t380.5 112q145 0 273 -62t202 -166.5t74 -225.5q0 -137 -94 -248t-303 -219l-185 -95q-77 -38 -167 -116
t-128 -138l-28 -49l-8 -8h106q92 165 348 287l164 86q202 102 293.5 214.5t91.5 256.5q0 117 -48 205t-157 172l8 8q116 -53 181 -155t65 -230q0 -314 -397 -504l-168 -82q-109 -54 -204 -128.5t-120 -129.5h336q161 0 242 12t118 46t54 106h25zM3400 422v-422h-1147l-45 41
h1147v410zM2990 1245l-8 17q-92 188 -279 188q-81 0 -134.5 -47t-53.5 -117q0 -98 86 -147v-17q-57 14 -92 59t-35 105q0 92 63.5 150.5t165.5 58.5q125 0 206 -70t81 -180zM2843 1098l-9 -21q-74 -229 -307 -229q-168 0 -250 143q66 -60 116 -83t118 -23q242 0 287 233z
" />
    <glyph glyph-name="onequarter" horiz-adv-x="3510" 
d="M872 2732v-1339l123 -136h-499l155 136v983q-65 -33 -143 -33q-53 0 -86.5 22.5t-81.5 88.5l16 -5l74 -49q21 -16 78 -16q62 0 143 41v94q-35 -26 -92 -43.5t-100 -17.5q-60 0 -102 27.5t-42 66.5q0 65 58 65q49 0 49 -45v-16v-8q0 -21 33 -21q78 0 157.5 59t116.5 146
h143zM958 2687l46 -25v-1314l225 -254h-664l-24 41h606l-189 208v1344zM2658 2773l-1585 -2621h-188l1581 2621h192zM922 33h208l1623 2683l36 -41l-1626 -2695h-221zM2814 1638q-26 -184 -225 -516q-69 -121 -134 -206t-194 -228l-4 -29h82q220 231 352 455
q117 203 213 471l41 -16q-23 -102 -90 -238q-178 -366 -315 -512l-140 -147l-12 -13h401v447q137 73 205 184h25v-631h102v586l45 -24v-562h12q148 0 148 -135q0 -38 -22.5 -62t-59.5 -24q-78 0 -78 58q0 16 8 32l9 9q4 4 4 8q0 28 -62 28h-106v-274l151 -135h-528l147 127
v106h-589l-25 45h614v131h-712l4 41q183 228 278 439q56 129 103 274q53 190 53 295v16h299zM3351 610q106 -33 106 -135q0 -50 -31 -86.5t-75 -36.5q-35 0 -103 37l-8 17q54 -25 82 -25q41 0 69.5 29.5t28.5 72.5q0 58 -69 127zM3387 0h-639l-41 41h598l-184 213v180
l45 -20v-160z" />
    <glyph glyph-name="onesuperior" horiz-adv-x="1503" 
d="M872 2732v-1339l123 -136h-499l155 136v983q-65 -33 -143 -33q-53 0 -86.5 22.5t-81.5 88.5l16 -5l74 -49q32 -16 78 -16q62 0 143 41v94q-35 -26 -92 -43.5t-100 -17.5q-59 0 -101.5 28.5t-42.5 65.5q0 65 58 65q49 0 49 -41v-16v-12q0 -21 33 -21q78 0 157.5 59
t116.5 146h143zM958 2687l46 -25v-1314l225 -254h-664l-24 41h606l-189 213v1339z" />
    <glyph glyph-name="otilde" unicode="&#xf5;" horiz-adv-x="2556" 
d="M1647 2314q-134 77 -216.5 104t-181.5 27q-544 0 -544 -1069q0 -773 335 -1028l-16 -20q-142 98 -226 233.5t-121.5 332t-37.5 490.5q0 1110 606 1110q126 0 233.5 -47t168.5 -133zM2302 1430q0 -305 -75 -553.5t-217.5 -423.5t-343.5 -267t-449 -92q-335 0 -598.5 171.5
t-410.5 479t-147 697.5q0 306 80 559t229.5 430t362 272t471.5 95q245 0 449 -97.5t348.5 -277.5t222.5 -432t78 -561zM1847 1487q0 526 -127 811q-71 147 -211 235t-305 88q-696 0 -696 -1224q0 -1131 684 -1131q344 0 516 357q53 119 82.5 236t43 265.5t13.5 362.5z
M1860 2691q198 -96 341.5 -283.5t220.5 -452.5t77 -579q0 -316 -88 -579t-252.5 -458.5t-389 -300t-491.5 -104.5q-346 0 -660 234v12q258 -184 644 -184q255 0 471.5 100.5t376.5 287.5t245.5 441t85.5 551q0 302 -68.5 555.5t-198.5 441t-314 298.5v20zM1741 3527
q4 -25 4 -54q0 -144 -91 -246t-220 -102q-135 0 -373 119q-138 66 -189 66q-62 0 -102 -42t-49 -114h-143v16q0 161 107 275t257 114q90 0 153 -24.5t224 -122.5q97 -57 151 -57q56 0 91.5 41t35.5 106v25h144zM1855 3469l41 -37v-16q0 -169 -108 -291.5t-260 -122.5
q-101 0 -225 62l24 24q120 -41 193 -41q145 0 230.5 103.5t100.5 294.5zM885 3215v-61q-40 -57 -58 -148h-159l-29 46h156q24 116 90 163z" />
    <glyph glyph-name="plusminus" unicode="&#xb1;" horiz-adv-x="2404" 
d="M307 532h1049v693h696v250l45 -45v-259h-688v-639h528v-249h-1630v249zM995 2294h250v-709h111v598l53 -33v-565h528v-250h-692v-671h-250v507h-585l-37 54h622v110h-688v250h688v709zM2052 422l45 -45v-258h-1687l-37 57h1679v246z" />
    <glyph glyph-name="registered" unicode="&#xae;" horiz-adv-x="3211" 
d="M852 2097q177 98 292.5 127t321.5 29q168 0 300 -47.5t207 -133.5t75 -192q0 -132 -108 -234.5t-293 -146.5q73 -214 206.5 -424t260.5 -313l-17 -4q-157 -56 -328 -164l-16 -12l-4 32q-66 416 -197 738q-57 -32 -176 -49h-8v-418l274 -279h-684l-45 53h623l-213 218v458
l20 4q145 27 193 50l-29 73q-88 -25 -135 -28l-155 -21v-508l135 -135h-529l156 135v357q-22 -9 -25 -9q-36 -7 -36 -8v0q-4 -2 -14.5 -6t-22.5 -10q-5 0 -21 -8l-24 45q70 27 73 28l70 17v65q-66 0 -94 -8q-8 -2 -19 -4t-30 -7t-33 -9l-17 -5q2 4 25 74q3 6 16 45q4 4 4 17
q46 -4 87 -4q36 0 61 4l-4 561q-49 28 -115 53zM1217 2126v-615h8q29 0 98 17v532q53 17 131 17q125 0 193 -28.5t110 -98.5q-130 86 -262 86q-82 0 -127 -13v-491l8 4q217 43 315.5 125.5t98.5 218.5q0 127 -102.5 209t-262.5 82q-130 0 -208 -45zM1847 1409
q81 -264 295 -500q94 -104 246 -204q-146 -39 -250 -84.5t-246 -133.5l-12 -8l-49 33q207 138 450 205q-213 150 -376 438q-56 103 -119 266l-8 21q193 67 280.5 165.5t87.5 247.5q0 102 -94 234q135 -105 135 -287q0 -123 -88 -225.5t-252 -167.5zM2179 2327l-53 16
q-166 64 -284 87.5t-265 23.5q-241 0 -446.5 -72t-323.5 -199t-184 -340t-66 -467q0 -238 71 -438.5t199 -319.5q84 -79 151.5 -124t154 -78t256.5 -80l-29 -21q-10 4 -37.5 10t-40.5 11q-350 107 -520 258q-266 228 -266 790q0 256 71.5 482t190.5 354q265 283 815 283
q195 0 356.5 -47t249.5 -129zM2888 1430q0 -299 -92 -539t-268 -411t-425.5 -260t-558.5 -89q-407 0 -728.5 167t-499 466.5t-177.5 677.5q0 299 98 542.5t281.5 416t442.5 264.5t575 92q287 0 533.5 -99t431.5 -280.5t286 -424t101 -523.5zM2638 1483q0 361 -127.5 614.5
t-375.5 384.5t-599 131q-1155 0 -1155 -1216q0 -363 131 -615.5t387.5 -382t624.5 -129.5q583 0 872 353q136 165 189 352t53 508zM2335 2654q232 -91 398.5 -274t254.5 -439.5t88 -564.5q0 -405 -187 -725t-523 -498t-760 -178q-429 0 -803 230v8q318 -180 786 -180
q309 0 574 99t457.5 279.5t297.5 427.5t105 537q0 441 -179.5 768.5t-508.5 489.5v20z" />
    <glyph glyph-name="scaron" horiz-adv-x="2273" 
d="M1958 2707q-111 -152 -164 -290q-127 -312 -164 -369q-2 0 -8 -12q-8 24 -12 32q-71 228 -121.5 305.5t-181.5 153.5q-141 86 -295 86q-227 0 -371.5 -114.5t-144.5 -298.5q0 -174 123 -286t385 -177l335 -78q252 -61 397.5 -155t233.5 -251q90 -154 90 -356
q0 -222 -113.5 -399.5t-317 -276t-462.5 -98.5q-210 0 -475 70l-229 57q-155 33 -225 33q-135 0 -263 -78l-16 28q100 152 206 366.5t142 346.5l37 -12q27 -207 130.5 -356t275 -226.5t397.5 -77.5q168 0 301 54.5t207 154t74 226.5q0 304 -267 450q-103 60 -221.5 95.5
t-380.5 84.5q-263 53 -404.5 133t-222.5 224q-90 167 -90 364q0 322 230 517.5t610 195.5q223 0 524 -86q142 -37 217 -37q93 0 213 66zM2085 2626l-21 -33q-62 -101 -139 -262q-167 -343 -168 -344l-49 20l176 360l148 283zM1499 2224q-221 234 -471 234q-152 0 -252 -88
t-100 -224q0 -86 42.5 -150t158.5 -153l16 -12l-8 -12q-267 114 -267 340q0 156 113 254t293 98q171 0 300.5 -73.5t186.5 -205.5zM1958 1430q274 -207 274 -566q0 -249 -135.5 -458t-370 -330t-514.5 -121q-200 0 -389 41l-319 82q-111 24 -238 24q-114 0 -209 -45l-24 62
q100 45 213 45q111 0 270 -37l307 -74q180 -41 389 -41q256 0 479 116t353.5 313t130.5 427q0 320 -217 549v13zM532 856q40 -190 134 -310t264 -202v-16q-196 58 -301.5 178.5t-149.5 337.5zM287 1503l65 -37q40 -70 118.5 -109t270.5 -87l320 -82q235 -58 344 -98
t163 -89.5t87 -132.5l-17 -8q-87 106 -189.5 152t-408.5 118q-336 79 -478 129t-206 117q-56 61 -69 127zM1106 3281l205 234h209l-336 -402h-258l-344 402h319zM1626 3380l-348 -414h-172l-45 49h193l331 410z" />
    <glyph glyph-name="thorn" horiz-adv-x="2367" 
d="M1114 2732l-270 -274v-275h106v250l226 225l32 -41l-204 -200v-234h86q350 0 549.5 -55.5t330.5 -190.5q189 -187 189 -475q0 -265 -181 -437.5t-491 -201.5q-99 -9 -328 -16h-69h-246v-422l237 -221h-921l278 233v258h-20q-156 0 -291 -61l-16 37q119 65 237 74l90 4v98
q-28 4 -65 4q-214 0 -340 -102l-21 28q128 226 394 226h32v1519l-278 250h954zM844 1978v-1003h106v893h217q156 0 245.5 -18.5t143 -68t99.5 -147.5q-68 102 -166 143.5t-277 41.5h-208v-844h28q684 0 684 471q0 389 -295 496q-127 45 -348 45q-42 0 -96 -2q-55 -3 -88 -3z
M2056 1970q118 -59 194.5 -208t76.5 -324q0 -283 -129.5 -469t-378.5 -256q-141 -39 -267.5 -52.5t-375.5 -13.5q-52 0 -68.5 1t-42.5 2.5t-61 4.5v-282l315 -373h-1004l-53 53h942l-254 299v357q155 -13 348 -13q506 0 744.5 180.5t238.5 561.5q0 157 -48 270t-177 262z
" />
    <glyph glyph-name="threequarters" horiz-adv-x="3510" 
d="M381 1753q-16 -65 -16 -123q0 -146 78 -226.5t216 -80.5q166 0 255.5 88t89.5 252q0 107 -44 196t-122.5 139t-173.5 50q-31 0 -111 -12h-12l53 118h65q129 0 212 72t83 182q0 114 -90.5 192.5t-220.5 78.5q-117 0 -193.5 -63t-76.5 -158q0 -59 31 -95t83 -36q31 0 66 24
l20 -8q-47 -63 -82 -82.5t-106 -19.5q-85 0 -149 63t-64 145q0 137 148 226.5t368 89.5q216 0 354 -97.5t138 -250.5q0 -108 -78.5 -194.5t-192.5 -104.5q-28 -6 -28 -21q0 -10 24 -16q171 -50 261.5 -162t90.5 -272q0 -194 -157 -306t-432 -112q-469 0 -553 393l12 4
q151 50 254 127zM520 1708q-2 -8 -4 -20t-4 -17q-8 -49 -8 -82q0 -141 131 -233l4 -13q-83 20 -131.5 87t-48.5 163q0 56 16 127zM934 1847q-101 74 -225 74q-39 0 -115 -16l-25 45q77 16 127 16q170 0 238 -119zM1221 1929q101 -90 140.5 -169t39.5 -187q0 -153 -80 -269
t-226.5 -179.5t-332.5 -63.5q-148 0 -284.5 51t-186.5 125l12 -8l98 -58q48 -31 150 -52t194 -21q173 0 312 61.5t217 172t78 249.5q0 58 -23 135t-51 115l-57 74l-9 12zM1122 2662q80 -18 140.5 -111t60.5 -196q0 -227 -250 -327l-41 24q115 38 180.5 119.5t65.5 187.5
q0 90 -30 151t-113 144v0q0 1 -13 8zM922 2437q-13 6 -13 12q-102 140 -237 140q-80 0 -128 -42.5t-48 -113.5q0 -38 32 -66l-8 -12q-74 26 -74 99t62.5 124.5t155.5 51.5q97 0 168.5 -48t97.5 -133zM672 2269q-82 -119 -221 -119q-103 0 -213 95v12l8 -8l41 -29
q52 -41 147 -41q57 0 111.5 32.5t81.5 82.5zM2654 2773l-1581 -2621h-188l1581 2621h188zM918 33h212l1623 2683l32 -41l-1622 -2695h-221zM2814 1638q-26 -184 -225 -516q-122 -203 -328 -434l-4 -29h82q220 231 352 455q117 203 213 471l41 -16q-23 -102 -90 -238
q-191 -380 -315 -512l-144 -147l-8 -13h401v447q127 68 205 184h25v-631h98v586l49 -24v-562h12q148 0 148 -135q0 -38 -22.5 -62t-59.5 -24q-78 0 -78 58q0 16 8 32l9 9q4 4 4 8q0 28 -62 28h-106v-274l151 -135h-528l147 127v106h-589l-29 45h618v131h-712v41
q118 144 171.5 228.5t110.5 210.5q63 145 99 274q57 182 57 295v16h299zM3351 610q106 -33 106 -135q0 -49 -32 -86t-74 -37q-31 0 -107 37l-4 17q49 -25 82 -25q41 0 69.5 29.5t28.5 72.5q0 58 -69 127zM3387 0h-639l-45 41h602l-188 213v180l49 -20v-160z" />
    <glyph glyph-name="threesuperior" horiz-adv-x="1503" 
d="M381 1757q-16 -71 -16 -127q0 -146 78 -226.5t216 -80.5q166 0 255.5 88t89.5 252q0 107 -44 196t-122.5 139t-173.5 50q-31 0 -111 -12h-12l53 118h65q129 0 212 72.5t83 186.5q0 110 -91 188t-220 78q-118 0 -194 -62t-76 -159q0 -59 31 -95t83 -36q22 0 66 24l20 -8
q-47 -63 -82 -82.5t-106 -19.5q-85 0 -149 64t-64 149q0 133 148 222t368 89q141 0 253.5 -44t175.5 -123t63 -177q0 -108 -78 -195t-193 -108q-28 -6 -28 -17q0 -14 24 -20q352 -103 352 -434q0 -194 -157 -306t-432 -112q-469 0 -553 393l12 4q165 60 254 131zM520 1708
q-2 -6 -4 -17t-4 -16q-8 -53 -8 -86q0 -141 131 -233l4 -13q-83 20 -131.5 87t-48.5 163q0 55 16 131zM934 1847q-101 74 -225 74q-39 0 -115 -16l-25 45q77 16 127 16q97 0 149.5 -26t88.5 -93zM1221 1929q101 -90 140.5 -169t39.5 -187q0 -153 -80 -269t-226.5 -179.5
t-332.5 -63.5q-148 0 -284.5 51t-186.5 125l12 -4l98 -62q48 -31 150 -52t194 -21q173 0 312 61.5t217 172t78 249.5q0 58 -23 135t-51 115l-57 74l-9 12zM1122 2666q80 -21 140.5 -115t60.5 -196q0 -227 -250 -327l-41 24q116 41 181 122t65 189q0 87 -30 147.5t-113 143.5
q-4 4 -6.5 7t-6.5 5zM922 2437q-13 6 -13 17q-99 135 -237 135q-80 0 -128 -42t-48 -110q0 -42 32 -70l-8 -12q-74 26 -74 99q0 76 62 126t156 50q97 0 168.5 -48t97.5 -133zM672 2269q-82 -119 -221 -119q-62 0 -105 20t-108 79v8l8 -8l41 -29q52 -41 147 -41
q57 0 111.5 32.5t81.5 82.5z" />
    <glyph glyph-name="trademark" unicode="&#x2122;" horiz-adv-x="3584" 
d="M1581 2732l-98 -164l-78 -176l-4 -8l-8 8l-4 16q-38 130 -100.5 178t-194.5 48q-58 0 -111 -4h-12v-1221l139 -123h-545l164 131v1094h-82q-112 0 -158 -42t-55 -151l-45 9q4 4 4 16q13 126 73 169.5t218 43.5h45v65q-45 9 -111 9q-159 0 -225.5 -56t-77.5 -202h-12
q-56 159 -160 348l-8 12h1446zM1683 2646q-95 -120 -176 -332l-4 -8l-41 29l4 8q94 245 181 332zM1335 2470q-76 53 -168 53h-77v-1134l192 -213h-610l-41 41h573l-160 172v1175h70q104 0 149 -19t72 -75zM3277 2732l-164 -156v-1159l152 -131h-553l167 131v733l-356 -974
h-115l-20 41h102l389 1040v188l-446 -1159h-86l-315 873v-562q0 -110 12.5 -157t56.5 -92l45 -50l119 -122h-643l-37 41h590l-57 69h-533l21 12q138 72 179.5 139t41.5 222v934l-160 139h623l-176 -147l340 -947l45 111l-295 819l155 107l41 -25l-151 -102l270 -738l299 775
l-147 147h606zM1921 2466v-811q0 -129 16 -197t56.5 -103t120.5 -57l-9 17q-118 75 -118 221v750zM3375 2630l-135 -95v-1134l209 -225h-639l-29 41h578l-164 176v1171l139 90z" />
    <glyph glyph-name="twosuperior" horiz-adv-x="1503" 
d="M1257 1602v-345h-1130q44 189 158.5 329t324.5 265q157 92 239.5 165t114 151t31.5 196q0 135 -85.5 219t-225.5 84q-139 0 -225 -71t-86 -187q0 -87 54.5 -145.5t133.5 -58.5q88 0 152 69l16 -8q-15 -98 -86 -153.5t-180 -55.5q-129 0 -218 87t-89 216q0 180 148 293
t380 113q146 0 272 -61.5t199.5 -166t73.5 -227.5q0 -138 -93.5 -249t-299.5 -218l-185 -94q-77 -38 -167 -116t-128 -138l-32 -49l-5 -8h103q100 166 348 286l168 86q200 101 292.5 214t92.5 257q0 219 -205 377l8 8q114 -51 180 -154.5t66 -230.5q0 -311 -397 -503
l-168 -82q-108 -53 -203 -129t-121 -129h336q158 0 240 12t119.5 46t54.5 106h24zM1393 1516v-422h-1147l-45 41h1142v409zM983 2339l-8 16q-92 189 -279 189q-83 0 -135.5 -47.5t-52.5 -120.5q0 -95 82 -144v-16q-53 12 -90 59t-37 105q0 92 64 150.5t169 58.5
q123 0 203.5 -70t83.5 -180zM836 2191l-9 -20q-72 -229 -307 -229q-173 0 -254 143q123 -107 234 -107q246 0 291 234z" />
    <glyph glyph-name="uacute" unicode="&#xfa;" horiz-adv-x="2486" 
d="M2376 2732l-357 -287v-1294q0 -317 -15.5 -457t-61.5 -239q-152 -328 -705 -328q-293 0 -496.5 87t-289.5 249q-63 116 -89 273.5t-26 422.5v1327l-270 246h946l-275 -266v-1618q0 -201 54.5 -320t174 -172t320.5 -53q175 0 300.5 64t170.5 174q78 205 78 610v1294
l-311 287h852zM2445 2593l-274 -221v-1246q0 -521 -53 -696q-49 -150 -160 -257t-276.5 -162.5t-370.5 -55.5q-232 0 -429 65t-313 181l17 -8l69 -41q116 -66 279.5 -105t322.5 -39q667 0 799 438q62 212 62 664v1282l295 246zM1094 2626l-197 -201v-1622
q0 -144 47.5 -232.5t185.5 -205.5l5 -21q-166 67 -230.5 198t-64.5 404v1499l225 221zM1552 3527l-487 -398h-213l295 398h405zM938 2961l-45 58h246l491 397l37 -49l-500 -406h-229z" />
    <glyph glyph-name="ucircumflex" unicode="&#xfb;" horiz-adv-x="2486" 
d="M2376 2732l-357 -287v-1294q0 -317 -15.5 -457t-61.5 -239q-152 -328 -705 -328q-293 0 -496.5 87t-289.5 249q-63 116 -89 273.5t-26 422.5v1327l-270 246h946l-275 -266v-1618q0 -201 54.5 -320t174 -172t320.5 -53q175 0 300.5 64t170.5 174q78 205 78 610v1294
l-311 287h852zM2445 2593l-274 -221v-1246q0 -521 -53 -696q-49 -150 -160 -257t-276.5 -162.5t-370.5 -55.5q-232 0 -429 65t-313 181l17 -8l69 -41q116 -66 279.5 -105t322.5 -39q667 0 799 438q62 212 62 664v1282l295 246zM1094 2626l-197 -201v-1622
q0 -144 47.5 -232.5t185.5 -205.5l5 -21q-166 67 -230.5 198t-64.5 404v1499l225 221zM1261 3277l-237 -283h-176l-37 41h192l230 270l-50 62l-204 -234h-209l336 402h258l344 -402h-320zM1982 2994h-467l-33 41h398l-348 406l77 -17z" />
    <glyph glyph-name="udieresis" unicode="&#xfc;" horiz-adv-x="2486" 
d="M2376 2732l-357 -287v-1294q0 -317 -15.5 -457t-61.5 -239q-152 -328 -705 -328q-293 0 -496.5 87t-289.5 249q-63 116 -89 273.5t-26 422.5v1327l-270 246h946l-275 -266v-1618q0 -201 54.5 -320t174 -172t320.5 -53q175 0 300.5 64t170.5 174q78 205 78 610v1294
l-311 287h852zM2445 2593l-274 -221v-1246q0 -521 -53 -696q-49 -150 -160 -257t-276.5 -162.5t-370.5 -55.5q-232 0 -429 65t-313 181l17 -8l69 -41q116 -66 279.5 -105t322.5 -39q667 0 799 438q62 212 62 664v1282l295 246zM1094 2626l-197 -201v-1622
q0 -144 47.5 -232.5t185.5 -205.5l5 -21q-166 67 -230.5 198t-64.5 404v1499l225 221zM1609 3539q84 0 140.5 -55.5t56.5 -137.5q0 -78 -57.5 -133t-139.5 -55q-78 0 -135 56t-57 132q0 79 56 136t136 57zM1859 3457q111 -49 111 -197q0 -106 -73 -180t-177 -74
q-120 0 -189 94v13q90 -66 164 -66q95 0 166.5 67.5t71.5 157.5q0 84 -74 185zM1167 3457q110 -52 110 -197q0 -108 -70.5 -181t-174.5 -73q-120 0 -189 94v13q90 -66 160 -66q95 0 166.5 67.5t71.5 157.5t-74 185zM917 3539q81 0 137 -56t56 -137q0 -78 -57 -133t-136 -55
q-82 0 -139.5 55.5t-57.5 132.5q0 80 56.5 136.5t140.5 56.5z" />
    <glyph glyph-name="ugrave" unicode="&#xf9;" horiz-adv-x="2486" 
d="M2376 2732l-357 -287v-1294q0 -317 -15.5 -457t-61.5 -239q-152 -328 -705 -328q-293 0 -496.5 87t-289.5 249q-63 116 -89 273.5t-26 422.5v1327l-270 246h946l-275 -266v-1618q0 -201 54.5 -320t174 -172t320.5 -53q175 0 300.5 64t170.5 174q78 205 78 610v1294
l-311 287h852zM2445 2593l-274 -221v-1246q0 -521 -53 -696q-49 -150 -160 -257t-276.5 -162.5t-370.5 -55.5q-232 0 -429 65t-313 181l17 -8l69 -41q116 -66 279.5 -105t322.5 -39q667 0 799 438q62 212 62 664v1282l295 246zM1094 2626l-197 -201v-1622
q0 -144 47.5 -232.5t185.5 -205.5l5 -21q-166 67 -230.5 198t-64.5 404v1499l225 221zM1201 3482l274 -385h-234l-458 385h418zM1741 2961h-336l-57 50h279l-250 348l86 -17z" />
    <glyph glyph-name="yacute" horiz-adv-x="2626" 
d="M2879 3437l13 -17l-21 -24q-255 -264 -401 -463q-59 -80 -189 -291q-70 -114 -95.5 -156.5l-31.5 -52.5l-745 -1188v-815l291 -266h-975l291 266v815l-479 733l-107 168q-142 224 -237 331t-263 235l-24 20h1012l-250 -258l667 -1008l62 103l-590 905l209 197l41 -29
l-185 -168l553 -856l451 709q114 184 153 273.5t39 172.5q0 140 -167 303q141 33 340 94q343 104 614 250zM2970 3314v-82l-21 -21q-130 -124 -182 -183t-141 -185q-142 -196 -324 -488l-725 -1138v-787l356 -430h-1253l-21 53h1168l-303 377v799l852 1347q187 306 389 533
q125 136 205 205zM1782 3527l-487 -398h-213l295 398h405zM1168 2961l-45 58h246l491 397l37 -49l-500 -406h-229z" />
    <glyph glyph-name="ydieresis" unicode="&#xff;" horiz-adv-x="2626" 
d="M2879 3437l13 -17l-21 -24q-255 -264 -401 -463q-59 -80 -189 -291q-70 -114 -95.5 -156.5l-31.5 -52.5l-745 -1188v-815l291 -266h-975l291 266v815l-479 733l-107 168q-142 224 -237 331t-263 235l-24 20h1012l-250 -258l667 -1008l62 103l-590 905l209 197l41 -29
l-185 -168l553 -856l451 709q114 184 153 273.5t39 172.5q0 140 -167 303q141 33 340 94q343 104 614 250zM2970 3314v-82l-21 -21q-130 -124 -182 -183t-141 -185q-142 -196 -324 -488l-725 -1138v-787l356 -430h-1253l-21 53h1168l-303 377v799l852 1347q187 306 389 533
q125 136 205 205zM1581 3523q84 0 140.5 -55.5t56.5 -137.5q0 -78 -57.5 -133t-139.5 -55q-78 0 -135 56t-57 132q0 79 56 136t136 57zM1831 3441q111 -49 111 -197q0 -106 -73 -180t-177 -74q-120 0 -189 94v13q90 -66 164 -66q95 0 166.5 67.5t71.5 157.5q0 84 -74 185z
M1139 3441q110 -52 110 -197q0 -108 -70.5 -181t-174.5 -73q-120 0 -189 94v13q90 -66 160 -66q95 0 166.5 67.5t71.5 157.5t-74 185zM889 3523q81 0 137 -56t56 -137q0 -78 -57 -133t-136 -55q-82 0 -139.5 55.5t-57.5 132.5q0 80 56.5 136.5t140.5 56.5z" />
    <glyph glyph-name="zcaron" horiz-adv-x="2626" 
d="M2265 2732l-1601 -2400h122l1573 2355l37 -49l-1540 -2306l438 4q178 0 325.5 68t227.5 182q82 118 144 250q166 -438 356 -672h-2277l1482 2228h-41q-69 4 -258 4q-275 0 -398.5 -34.5t-195.5 -133.5q-69 -99 -106 -233l-41 45q29 123 100 216t170 136q128 53 467 53
q226 0 307 -4l29 -4l78 115q-173 12 -274 12q-278 0 -420.5 -13t-227.5 -48t-163 -107q-106 -95 -172 -278l-17 32q-108 251 -283 557l-12 25h2171zM2560 180l-106 -180h-2282l-41 53h2294l69 127q-127 154 -207 295.5t-153 339.5l70 -24q60 -181 129 -300.5t211 -289.5z
M1274 3301l205 234h209l-336 -402h-258l-344 402h319zM1794 3400l-348 -414h-172l-45 49h193l331 410z" />
    <glyph glyph-name="nonbreakingspace" unicode="&#xa0;" horiz-adv-x="1139" 
 />
    </font>
</defs>
</svg>
